<?xml version="1.0" encoding="UTF-8"?>
<svg xmlns="http://www.w3.org/2000/svg" width="39" height="8" viewBox="0 0 39 8" fill="none">
  <path
    d="M17.6186 0L15.8562 5.84695L14.3805 1.00765C14.1023 0.135656 13.9619 0.000275163 13.4303 0.000275163L12.0518 0.00137582L14.6025 7.69632L16.4736 7.69742L18.8505 0.000275163H17.6186V0Z"
    fill="#19569C"
  ></path>
  <path
    d="M10.9495 3.01992L11.3306 2.46134C12.1365 1.28061 11.5818 0 9.99027 0H6.59668V7.701H9.87085C12.7513 7.70072 13.6205 4.38803 10.9495 3.01992ZM8.984 6.66666H8.42982V1.0049H9.42976C9.91295 1.0049 10.3309 1.39976 10.3309 1.87001C10.3309 2.03841 10.2965 2.1892 10.132 2.42997L9.48149 3.38781C10.1609 3.55043 10.6143 4.06031 10.6143 5.01485C10.6146 6.17302 9.9113 6.66666 8.984 6.66666Z"
    fill="#19569C"
  ></path>
  <path
    d="M4.35364 3.01992L4.73501 2.46134C5.54097 1.28061 4.98624 0 3.39524 0H0V7.701H3.275C6.15513 7.70072 7.02327 4.38803 4.35364 3.01992ZM2.38814 6.66666H1.83396V1.0049H2.83473C3.31655 1.0049 3.73534 1.39976 3.73534 1.87001C3.73534 2.03841 3.70095 2.1892 3.5364 2.42997L2.88619 3.38781C3.56447 3.55043 4.01849 4.06031 4.01849 5.01485C4.01876 6.17302 3.31517 6.66666 2.38814 6.66666Z"
    fill="#19569C"
  ></path>
  <path
    d="M21.8132 0.000550327L20.3234 0L17.9375 7.69715H19.1534L19.665 6.03543H22.5014L23.0154 7.69715H25.1228L22.757 0.785592C22.5377 0.14281 22.3894 0.000550327 21.8132 0.000550327ZM20.0065 4.90919L21.0702 1.39783L22.1503 4.90919H20.0065Z"
    fill="#19569C"
  ></path>
  <path
    d="M30.2559 3.6579C30.1618 3.5261 30.0391 3.42099 29.8877 3.34174C29.7364 3.26277 29.5501 3.22314 29.3292 3.22314C29.1536 3.22314 28.9932 3.24736 28.8479 3.29689C28.7026 3.34642 28.5722 3.41658 28.4572 3.50794C28.3421 3.59929 28.2409 3.70826 28.1531 3.83483C28.0653 3.96223 27.9894 4.10367 27.9258 4.25886H27.9079V3.32165H27.0723V7.69345H27.9079V5.8372C27.9079 5.72961 27.9176 5.61046 27.9374 5.48086C27.9572 5.35071 27.988 5.21973 28.0304 5.08848C28.073 4.95667 28.1253 4.82845 28.1872 4.7027C28.2491 4.5775 28.324 4.46578 28.4118 4.36892C28.4995 4.27152 28.5989 4.19365 28.7092 4.13559C28.8198 4.07725 28.9434 4.04781 29.0796 4.04781C29.2007 4.04781 29.2983 4.06569 29.3724 4.10174C29.4467 4.13751 29.5047 4.18759 29.5474 4.25143C29.5895 4.31582 29.62 4.39231 29.6382 4.48037C29.656 4.56842 29.6682 4.66362 29.6745 4.76516C29.6805 4.85761 29.6833 4.95062 29.6833 5.04308C29.6833 5.13278 29.6833 5.22083 29.6833 5.30806V7.69317H30.519V4.66225C30.519 4.47101 30.4986 4.28885 30.4576 4.11522C30.4169 3.9416 30.3495 3.78971 30.2559 3.6579Z"
    fill="#19569C"
  ></path>
  <path
    d="M34.5912 3.72064C34.4594 3.56517 34.2935 3.44328 34.0937 3.35495C33.8937 3.26717 33.6576 3.22314 33.3852 3.22314C33.0674 3.22314 32.7947 3.27515 32.5677 3.37971C32.3404 3.48455 32.1535 3.62929 32.0069 3.81475C31.8599 3.99993 31.7524 4.21924 31.6844 4.47184C31.6161 4.72444 31.582 4.9985 31.582 5.29402C31.582 5.65559 31.6228 5.98936 31.7048 6.29424C31.7865 6.59885 31.915 6.86273 32.0905 7.08589C32.2664 7.3085 32.4925 7.4824 32.7699 7.60815C33.0467 7.73335 33.3822 7.79636 33.7756 7.79636C33.966 7.79636 34.1515 7.78178 34.3317 7.75399C34.512 7.72537 34.6958 7.6907 34.8837 7.6486V6.99343C34.7442 7.04461 34.6072 7.08369 34.4723 7.11065C34.3378 7.13707 34.1961 7.15083 34.048 7.15083C33.7693 7.15083 33.528 7.09387 33.3235 6.9805C33.1191 6.86658 32.9504 6.71772 32.817 6.53391C32.6841 6.3501 32.5839 6.14043 32.5173 5.90406C32.4507 5.66825 32.4174 5.42885 32.4174 5.18671H34.9836V4.97594C34.9836 4.72499 34.9509 4.49165 34.8859 4.2762C34.8213 4.06129 34.723 3.87583 34.5912 3.72064ZM32.454 4.63501C32.454 4.59043 32.4609 4.54586 32.4747 4.50128C32.4881 4.45725 32.5041 4.41378 32.5223 4.37223C32.5977 4.20575 32.7077 4.08028 32.8514 3.99525C32.995 3.9105 33.1579 3.86813 33.3395 3.86813C33.4548 3.86813 33.5616 3.88656 33.6598 3.92399C33.758 3.96086 33.8436 4.01314 33.9165 4.08C33.9892 4.14632 34.0458 4.22694 34.0868 4.3205C34.1273 4.4146 34.1482 4.51944 34.1482 4.63501H32.454Z"
    fill="#19569C"
  ></path>
  <path
    d="M38.4485 3.96789V3.32208H37.2223V1.77979L36.3869 2.29544V3.32208H35.5967V3.96789H36.3869V6.72998C36.3869 6.93965 36.42 7.11328 36.486 7.25031C36.5523 7.38789 36.6442 7.49686 36.7617 7.57748C36.8792 7.6581 37.0184 7.71506 37.18 7.74781C37.3415 7.7811 37.5187 7.79734 37.713 7.79734C37.94 7.79734 38.1609 7.77477 38.3761 7.7302V7.08906C38.3062 7.11328 38.233 7.12924 38.1557 7.13804C38.0784 7.14712 38.0019 7.15208 37.9262 7.15208C37.7812 7.15208 37.6621 7.13116 37.5699 7.08906C37.4774 7.04724 37.4053 6.98808 37.3542 6.91158C37.3024 6.83536 37.268 6.74511 37.2496 6.64027C37.2317 6.53599 37.2223 6.42262 37.2223 6.29962V3.96816H38.4485V3.96789Z"
    fill="#19569C"
  ></path>
</svg>
