<?xml version="1.0" encoding="UTF-8"?>
<svg xmlns="http://www.w3.org/2000/svg" width="37" height="16" viewBox="0 0 37 16" fill="none">
  <path d="M17.5566 6.92041V11.1603C18.1097 10.9759 18.869 10.1727 18.869 8.57949C18.869 7.23642 18.1931 6.92041 17.5566 6.92041Z" fill="#1166B0"></path>
  <path
    d="M35.2883 0H1.71174C0.76809 0 0 0.76809 0 1.71174V14.2206C0 15.1643 0.76809 15.9324 1.71174 15.9324H35.2883C36.2319 15.9324 37 15.1643 37 14.2206V1.71174C37 0.76809 36.2319 0 35.2883 0ZM6.42123 13.3604L6.28956 13.3911C6.05694 13.4438 5.78921 13.5096 5.43808 13.5096C5.2669 13.5096 5.17473 13.5096 4.9465 13.4701C4.6261 13.413 4.2618 13.3033 3.93701 13.1014C2.72562 12.3289 2.15943 10.6567 2.15943 8.98007C2.15943 6.50902 3.2567 3.52883 5.70581 2.43594L5.89893 2.34816L6.21056 5.15279L6.22373 5.29763L6.10083 5.34152C4.8675 5.80676 4.07307 6.75042 4.07307 8.60261C4.07307 9.87545 4.69632 10.5558 5.59609 10.6567C5.83749 10.683 6.41684 10.5558 6.41684 10.5558L6.42123 10.762L6.41684 13.2112L6.42123 13.3604ZM10.3758 13.5359C10.2441 13.1058 9.15563 9.91056 9.00202 9.4102C9.24781 9.11613 9.64721 8.48849 9.64721 7.72918C9.64721 7.19371 9.46287 6.68458 8.85279 6.67141V9.69549C8.85279 10.13 8.86596 13.0049 8.87912 13.176H7.62384C7.6414 12.9039 7.63262 9.29609 7.63262 9.05907V8.12859C7.63262 7.78624 7.62384 5.31957 7.60629 5.10451C8.37877 5.10451 9.16441 5.12645 9.66916 5.26252C10.5031 5.47758 10.9552 6.14033 10.9552 7.18494C10.9552 8.11542 10.6699 8.83084 10.2266 9.45409C10.3977 9.84033 11.2624 11.6047 11.4072 11.969L10.3758 13.5359ZM12.4431 13.1716C12.4606 12.5703 12.4606 10.1344 12.4606 9.87545V8.35682C12.4606 8.17248 12.4474 5.43369 12.4431 5.10451C12.7591 5.10451 14.6552 4.93333 14.8614 4.89822L14.8834 6.77236C14.6771 6.77236 13.7905 6.82942 13.6896 6.82942V8.33049C13.8037 8.33049 14.4533 8.27343 14.6991 8.22954L14.7166 10.0466C14.563 10.0466 13.8125 10.0027 13.6896 10.0027V11.3546C13.8344 11.3546 14.6859 11.3765 14.9492 11.3326L14.9712 13.2858C14.7693 13.2858 12.7371 13.1716 12.4431 13.1716ZM16.2835 13.2243C16.3055 12.702 16.3186 9.88422 16.3186 9.57699V8.16809C16.3186 7.93108 16.3098 5.41613 16.2879 5.10012C17.3237 5.10012 17.9294 5.15718 18.4517 5.30641C19.9308 5.71459 20.2117 7.26394 20.2117 8.17687C20.2117 11.7584 18.1006 13.2243 16.2835 13.2243ZM22.6345 13.1716H21.3266C21.3397 12.6713 21.3441 10.0115 21.3441 9.71744V8.48849C21.3441 8.29537 21.3266 5.37224 21.3266 5.10012H22.6345C22.6301 5.30641 22.6126 7.14982 22.6126 8.51044V9.73938C22.6126 10.8762 22.6301 12.9083 22.6345 13.1716ZM27.4274 7.11032C27.3177 7.09715 26.2731 7.04448 26.1853 7.04448V10.2046C26.1853 11.3765 26.1897 12.9434 26.2028 13.1716H24.9037C24.9168 12.8732 24.9212 11.258 24.9212 10.0203V7.04448C24.6491 7.04448 23.8503 7.09715 23.6747 7.11032V5.12206C23.9293 5.16596 25.2636 5.21424 25.325 5.21424H25.8166C25.9219 5.21424 27.1509 5.16596 27.4274 5.12206V7.11032ZM28.3447 13.1716C28.3623 12.5703 28.3623 10.1344 28.3623 9.87545V8.35682C28.3623 8.17248 28.3491 5.43369 28.3447 5.10451C28.6607 5.10451 30.5568 4.93333 30.7631 4.89822L30.7851 6.77236C30.5788 6.77236 29.6966 6.82942 29.5912 6.82942V8.33049C29.7053 8.33049 30.3505 8.27343 30.6007 8.22954L30.6183 10.0466C30.4646 10.0466 29.7141 10.0027 29.5912 10.0027V11.3546C29.7361 11.3546 30.5875 11.3765 30.8509 11.3326L30.8728 13.2858C30.6709 13.2858 28.6344 13.1716 28.3447 13.1716ZM32.2027 13.1716C32.2203 12.5703 32.2203 10.1388 32.2159 9.86228V8.35243C32.2159 8.16809 32.2071 5.31518 32.194 5.10012H33.5107C33.5063 5.35907 33.4843 7.70285 33.4843 9.13369V11.2141C33.6204 11.2141 34.2832 11.2141 34.7352 11.1702L34.744 13.2858C34.6079 13.2858 32.6548 13.1716 32.2027 13.1716Z"
    fill="#1166B0"
  ></path>
  <path
    d="M4.94625 13.473C5.17448 13.5125 5.26665 13.5125 5.43783 13.5125C5.78895 13.5125 6.05669 13.4467 6.28931 13.394L6.42098 13.3633L6.41659 13.2141L6.42098 10.765L6.41659 10.5587C6.41659 10.5587 5.83723 10.6859 5.59583 10.6596C4.69607 10.5587 4.07282 9.87836 4.07282 8.60552C4.07282 6.75333 4.86725 5.80967 6.10058 5.34443L6.22347 5.30054L6.21031 5.1557L5.89868 2.35107L5.70556 2.43886C3.25645 3.53174 2.15918 6.51193 2.15918 8.98298C2.15918 10.6596 2.72537 12.3319 3.93676 13.1043C4.26155 13.3062 4.62585 13.416 4.94625 13.473Z"
    fill="#FFD405"
  ></path>
</svg>
