<?xml version="1.0" encoding="UTF-8"?>
<svg xmlns="http://www.w3.org/2000/svg" width="37" height="37" viewBox="0 0 37 37" fill="none">
  <path
    d="M24.2134 29.0832C23.4701 29.0832 22.5654 28.8248 21.5339 28.3138C20.5428 27.8205 19.6151 27.2038 17.8115 25.5006C16.417 24.1851 15.7197 23.5273 15.1205 22.7521C12.902 19.886 12.2681 16.9025 11.9973 15.634C11.6976 14.2186 11.64 13.0733 11.5305 10.7887C11.4326 8.82127 11.421 6.84206 11.496 4.89222C11.4383 4.38714 11.3922 3.06571 12.3661 2.07905C12.6772 1.7619 13.0633 1.52111 13.4955 1.36841L13.5646 1.35079C17.0336 0.434603 20.5947 0.00587302 24.1846 0C27.5729 0.017619 30.9611 0.452222 34.2514 1.30381C34.6144 1.37429 35.3923 1.62095 36.0492 2.32571C36.758 3.07746 36.9482 3.94079 37 4.38714V4.44587V4.5046L36.8617 13.4375C36.6773 15.399 36.1875 17.2784 35.3981 19.0227C34.6144 20.7611 33.7558 21.8887 32.9261 22.9811C31.7448 24.5375 30.4252 25.8941 29.1114 26.916C28.6619 27.2684 27.9474 27.7852 26.9678 28.2668C26.1323 28.6779 25.3371 29.0656 24.2941 29.0949C24.2653 29.0949 24.2307 29.0949 24.2019 29.0949L24.2134 29.0832ZM14.0371 3.04222C13.8585 3.10683 13.7087 3.20667 13.5877 3.33C13.1036 3.81746 13.2074 4.62794 13.2189 4.71603L13.2304 4.79825V4.88048C13.1555 6.80095 13.1613 8.75667 13.2592 10.6948C13.363 12.8854 13.4206 13.9837 13.6914 15.2581C13.9392 16.4151 14.5097 19.1167 16.4804 21.6597C16.999 22.3292 17.6616 22.9517 18.9755 24.1968C20.6292 25.759 21.4417 26.3052 22.2888 26.7281C23.0725 27.1157 23.7928 27.3154 24.2538 27.3213C24.9337 27.2978 25.4754 27.0335 26.2302 26.6635C27.0658 26.2524 27.6823 25.806 28.0742 25.5006C29.2727 24.5727 30.4771 23.3276 31.5661 21.8946C32.3383 20.8786 33.1393 19.8273 33.8423 18.2768C34.5453 16.7263 34.9832 15.0525 35.1503 13.2965L35.2829 4.53397C35.2483 4.29905 35.1388 3.89381 34.8046 3.54143C34.4704 3.18317 34.0728 3.05984 33.8711 3.01873C30.673 2.19064 27.4288 1.77365 24.1788 1.75603C20.7618 1.75603 17.3505 2.17302 14.0371 3.04222Z"
    fill="#FC6BCB"
  ></path>
  <path
    d="M16.5206 11.8518C16.2843 11.8518 16.0539 11.7579 15.881 11.5641C15.5583 11.2058 15.5813 10.6479 15.9329 10.319C16.3938 9.89024 17.6846 8.90358 19.5228 8.89771C21.119 8.90945 22.2599 9.65532 22.7958 10.1017C23.1646 10.4071 23.2222 10.965 22.9226 11.3409C22.6229 11.7168 22.0755 11.7755 21.7067 11.4701C21.3437 11.1706 20.5773 10.6714 19.5113 10.6596H19.4882C18.2551 10.6596 17.408 11.3291 17.0968 11.6169C16.9297 11.7696 16.7223 11.846 16.5149 11.846L16.5206 11.8518Z"
    fill="#FC6BCB"
  ></path>
  <path
    d="M31.7736 11.8518C31.5661 11.8518 31.3529 11.7755 31.1916 11.6228C30.8804 11.335 30.0334 10.6655 28.8002 10.6655H28.7772C27.7111 10.6713 26.9447 11.1764 26.5817 11.4759C26.2129 11.7813 25.6655 11.7226 25.3659 11.3467C25.0662 10.9709 25.1238 10.4129 25.4926 10.1075C26.0285 9.66118 27.1695 8.91531 28.7656 8.90356C30.6326 8.90356 31.8946 9.89023 32.3613 10.3248C32.7128 10.6537 32.7359 11.2117 32.4132 11.5699C32.2403 11.7578 32.0098 11.8577 31.7736 11.8577V11.8518Z"
    fill="#FC6BCB"
  ></path>
  <path
    d="M17.8806 36.9942C17.4312 36.9942 16.9356 36.9472 16.3997 36.8532C15.3106 36.6653 14.2503 36.3364 12.0549 35.2205C10.3608 34.3572 9.50795 33.9285 8.71275 33.3529C5.79125 31.2386 4.3622 28.5605 3.75139 27.4153C3.07144 26.1467 2.70265 25.0602 1.96507 22.8989C1.33121 21.0372 0.772263 19.1343 0.305514 17.255C0.109595 16.791 -0.299527 15.5283 0.363141 14.3067C0.576347 13.9132 0.875981 13.5726 1.25629 13.3024C1.27358 13.2907 1.29663 13.2789 1.31392 13.2672C3.79748 11.7578 6.44815 10.5069 9.19101 9.54957C9.64048 9.39099 10.136 9.63766 10.2859 10.0958C10.4357 10.5539 10.1994 11.0589 9.74996 11.2116C7.13386 12.1219 4.60998 13.3142 2.2359 14.7531C2.08608 14.8646 1.96507 15.0056 1.87864 15.1583C1.55018 15.7691 1.87287 16.5091 1.90744 16.5972C1.93049 16.65 1.94777 16.7029 1.9593 16.7558C2.41452 18.6116 2.9677 20.4851 3.5958 22.3293C4.30456 24.4024 4.65606 25.4419 5.26687 26.5872C5.82005 27.6267 7.11659 30.0523 9.70964 31.9316C10.3954 32.425 11.2021 32.8361 12.8213 33.6583C14.8266 34.6743 15.7543 34.968 16.6878 35.1324C17.5522 35.2793 18.2955 35.2851 18.7334 35.1324C19.3788 34.921 19.8225 34.5099 20.4449 33.9402C21.1248 33.3177 21.58 32.7304 21.897 32.2899C22.2946 31.7437 22.6576 31.1623 23.0149 30.5104C23.2453 30.0875 23.7755 29.9348 24.1904 30.1697C24.6053 30.4046 24.7551 30.945 24.5246 31.3678C24.1327 32.0843 23.7294 32.7245 23.2914 33.3353C22.9515 33.8051 22.4098 34.5099 21.6088 35.244C20.9174 35.8783 20.2662 36.4774 19.2751 36.8062C18.8832 36.9354 18.4165 37 17.8864 37L17.8806 36.9942Z"
    fill="#FC6BCB"
  ></path>
  <path
    d="M8.50528 22.7286C7.73313 22.7286 7.11079 22.5348 6.80539 22.4114C6.36169 22.2352 6.13695 21.7243 6.30982 21.2721C6.48269 20.8198 6.98401 20.5908 7.42771 20.767C7.7504 20.8962 8.60323 21.1487 9.55401 20.767C10.4011 20.4205 10.8448 19.751 10.9946 19.4808C11.2308 19.0579 11.7552 18.9111 12.1701 19.1519C12.585 19.3927 12.7291 19.9271 12.4928 20.35C12.1932 20.8903 11.4959 21.8711 10.1879 22.4056C9.58859 22.6522 9.0066 22.7345 8.49951 22.7345L8.50528 22.7286Z"
    fill="#FC6BCB"
  ></path>
  <path
    d="M24.1674 22.8694C23.8793 22.8694 23.5739 22.8459 23.2627 22.7872C22.819 22.7108 21.6666 22.4231 20.5775 21.4716C19.7765 20.7669 19.1657 19.8331 18.8142 18.7642C18.6471 18.2532 18.7797 17.707 19.16 17.3312C19.5403 16.9612 20.0819 16.8496 20.5717 17.0375C21.7876 17.5073 23.0553 17.7129 24.3403 17.7247C25.5389 17.7129 26.7201 17.4956 27.8553 17.0727C28.3451 16.8907 28.8753 17.0081 29.2498 17.3723C29.6244 17.7423 29.7569 18.2826 29.6013 18.7935C29.2786 19.8037 28.7139 20.6964 27.959 21.3777C27.6594 21.6537 26.2073 22.8635 24.1617 22.8635L24.1674 22.8694ZM20.7792 18.9697C21.0212 19.4161 21.3266 19.8037 21.7012 20.1326C22.4848 20.8197 23.3204 21.0077 23.5566 21.0488C25.3257 21.36 26.6683 20.1972 26.8123 20.0621C27.1466 19.7567 27.4231 19.4043 27.6421 18.9991C26.5703 19.3162 25.4697 19.4807 24.3576 19.4866C23.1302 19.4866 21.9432 19.3221 20.7792 18.9639V18.9697Z"
    fill="#FC6BCB"
  ></path>
  <path
    d="M14.5328 30.9685C14.3772 30.9685 14.2216 30.9392 14.066 30.8804C13.5762 30.6925 13.2247 30.2344 13.1614 29.7117C13.0346 28.6428 13.1786 27.615 13.582 26.7458C13.7779 26.323 14.262 25.5066 15.328 24.7725C15.7256 24.5023 16.2615 24.6081 16.5266 25.0074C16.7916 25.4068 16.6879 25.9588 16.2961 26.229C15.547 26.7458 15.2416 27.2803 15.1494 27.4917C14.965 27.8911 14.867 28.3315 14.8497 28.8073C15.6852 28.1788 16.6188 27.6973 17.6329 27.3742C17.8058 27.3214 18.1227 27.2215 18.3474 27.1804C18.8142 27.0923 19.2694 27.3977 19.3616 27.8793C19.4538 28.355 19.1484 28.819 18.6759 28.913C18.5664 28.9365 18.3705 28.9893 18.14 29.0598C17.097 29.3887 16.1635 29.9231 15.3626 30.6514C15.1321 30.8628 14.8382 30.9685 14.5328 30.9685Z"
    fill="#FC6BCB"
  ></path>
</svg>
