<svg width="24" height="22" viewBox="0 0 24 22" fill="none" xmlns="http://www.w3.org/2000/svg">
  <path
    fill-rule="evenodd"
    clip-rule="evenodd"
    d="M6.89011 1.80702C4.03926 1.80702 1.81319 4.0247 1.81319 6.86128C1.81319 8.61152 2.59555 10.2703 4.15788 12.1722C5.7306 14.0867 7.99731 16.1355 10.8169 18.6813L10.8182 18.6825L11.788 19.5616L12.7538 18.6928C12.7541 18.6925 12.7544 18.6922 12.7547 18.6919C15.5741 16.1409 17.8406 14.0897 19.4134 12.1738C20.9759 10.2704 21.7582 8.61154 21.7582 6.86128C21.7582 4.0247 19.5322 1.80702 16.6813 1.80702C15.0625 1.80702 13.495 2.56176 12.4757 3.75355L11.7857 4.56031L11.0957 3.75355C10.0765 2.56176 8.50888 1.80702 6.89011 1.80702ZM0 6.86128C0 3.02516 3.03942 0 6.89011 0C8.71583 0 10.4698 0.709782 11.7857 1.87888C13.1017 0.709782 14.8556 0 16.6813 0C20.532 0 23.5714 3.02516 23.5714 6.86128C23.5714 9.20562 22.5043 11.2622 20.8167 13.318C19.1572 15.3397 16.8056 17.4674 14.0602 19.9514L13.9726 20.0307L13.9706 20.0324L11.7834 22L9.59955 20.0205L9.53943 19.9662C6.7821 17.4767 4.42022 15.3442 2.75489 13.3169C1.06709 11.2623 0 9.20564 0 6.86128Z"
    fill="black"
  />
</svg>
