<svg width="33" height="33" viewBox="0 0 33 33" fill="none" xmlns="http://www.w3.org/2000/svg">
<circle cx="16.6493" cy="17.5672" r="11.9764" fill="white"/>
<path fill-rule="evenodd" clip-rule="evenodd" d="M16.8474 0.804688C18.092 0.804763 19.294 1.25813 20.2286 2.08003L20.475 2.31206L21.592 3.42899C21.8985 3.73352 22.2988 3.92577 22.7281 3.97465L22.9441 3.98745H24.5443C25.852 3.98738 27.1102 4.48762 28.0608 5.3856C29.0114 6.28357 29.5825 7.51123 29.6569 8.81681L29.6649 9.10804V10.7082C29.6649 11.1403 29.8121 11.5611 30.0777 11.8972L30.2217 12.0572L31.3371 13.1741C32.2615 14.0933 32.8006 15.3306 32.8443 16.6335C32.888 17.9364 32.4331 19.207 31.5723 20.1861L31.3403 20.4326L30.2233 21.5495C29.9188 21.856 29.7266 22.2563 29.6777 22.6856L29.6649 22.9016V24.5018C29.665 25.8095 29.1647 27.0677 28.2667 28.0183C27.3688 28.969 26.1411 29.54 24.8355 29.6144L24.5443 29.6224H22.9441C22.5127 29.6226 22.0939 29.768 21.7552 30.0353L21.5952 30.1793L20.4782 31.2946C19.559 32.2191 18.3218 32.7581 17.0188 32.8018C15.7159 32.8455 14.4453 32.3906 13.4662 31.5298L13.2198 31.2978L12.1029 30.1809C11.7963 29.8763 11.396 29.6841 10.9667 29.6352L10.7507 29.6224H9.15052C7.84282 29.6225 6.58465 29.1222 5.63401 28.2243C4.68337 27.3263 4.11231 26.0986 4.03793 24.7931L4.02993 24.5018V22.9016C4.02979 22.4702 3.88436 22.0514 3.61708 21.7127L3.47307 21.5527L2.35774 20.4358C1.43328 19.5165 0.894247 18.2793 0.850538 16.9764C0.806829 15.6734 1.26174 14.4029 2.12251 13.4237L2.35454 13.1773L3.47147 12.0604C3.776 11.7539 3.96825 11.3536 4.01713 10.9243L4.02993 10.7082V9.10804L4.03793 8.81681C4.10938 7.56138 4.64028 6.37613 5.52945 5.48697C6.41861 4.59781 7.60385 4.06691 8.85929 3.99546L9.15052 3.98745H10.7507C11.1821 3.98731 11.601 3.84188 11.9396 3.57461L12.0997 3.43059L13.2166 2.31526C13.6924 1.83663 14.2581 1.45677 14.8812 1.19753C15.5043 0.938292 16.1725 0.804785 16.8474 0.804688ZM22.4084 17.3722C22.2727 18.1292 22.7961 18.8494 23.5772 18.981C24.3583 19.1126 25.1015 18.6054 25.2373 17.8483L26.3755 11.4975L23.5467 11.0214L22.4084 17.3722ZM23.8912 19.8338C24.6231 20.2072 24.904 21.0848 24.5187 21.7941C24.1335 22.5033 23.2279 22.7756 22.496 22.4022C21.7641 22.0288 21.4832 21.1512 21.8685 20.4419C22.2537 19.7327 23.1594 19.4604 23.8912 19.8338ZM11.5435 22.5898C9.21554 22.5898 7.32169 20.6637 7.32169 18.2959V13.3395H10.193V18.2961C10.193 19.1295 10.7987 19.8074 11.5435 19.8074C12.2882 19.8074 12.894 19.1295 12.894 18.2961V13.3395H15.7652V18.2961C15.7652 19.1295 16.3716 19.8074 17.1164 19.8074C17.8611 19.8074 18.4669 19.1295 18.4669 18.2961V13.3395H21.3381V18.2961C21.3381 20.6637 19.4443 22.5898 17.1164 22.5898C16.0496 22.5898 15.0739 22.1854 14.3297 21.5193C13.5858 22.1853 12.6102 22.5898 11.5435 22.5898Z" fill="url(#paint0_linear_798_12726)"/>
<defs>
<linearGradient id="paint0_linear_798_12726" x1="16.8474" y1="0.804688" x2="16.8474" y2="32.8047" gradientUnits="userSpaceOnUse">
<stop stop-color="#E2CE9B"/>
<stop offset="0.546875" stop-color="#D2AD4F"/>
<stop offset="0.911458" stop-color="#BC9121"/>
</linearGradient>
</defs>
</svg>
