<?xml version="1.0" encoding="UTF-8"?>
<svg xmlns="http://www.w3.org/2000/svg" width="37" height="12" viewBox="0 0 37 12" fill="none">
  <path
    d="M7.02777 0C3.68963 0 0.564566 2.68235 0.0673968 6C-0.429773 9.31765 1.87851 12 5.18114 12C8.48377 12 11.6088 9.31765 12.1415 6C12.6387 2.68235 10.3304 0 7.02777 0ZM9.12299 6C8.8744 7.65882 7.31187 9 5.6428 9C3.97373 9 2.83734 7.65882 3.08593 6C3.33451 4.34118 4.89705 3 6.56611 3C8.23518 3 9.37157 4.34118 9.12299 6ZM24.5352 8.71765C23.2568 10.6588 21.0195 12 18.6402 12C15.3021 12 12.9938 9.31765 13.5265 6C14.0592 2.68235 17.1487 0 20.4514 0C22.369 0 23.9671 0.882353 24.8549 2.29412C25.139 2.78824 25.1745 2.92941 25.1745 2.92941L23.0082 4.16471C23.0082 4.16471 22.4755 4.48235 22.0494 3.98824C21.5522 3.38824 20.8775 3 19.9897 3C18.3206 3 16.7581 4.34118 16.5095 6C16.2609 7.65882 17.3973 9 19.0664 9C20.0962 9 21.0551 8.50588 21.7298 7.72941C22.1559 7.34118 22.6176 7.58824 22.6176 7.58824L24.5352 8.71765ZM33.8039 11.9647L33.5908 10.2706L31.1405 7.83529C31.034 7.72941 31.105 7.51765 31.2825 7.51765H33.2357L32.632 2.78824L27.5893 11.9647H24.4287L30.9629 0.0352941H32.2769H34.159H35.473L37 11.9647H33.8039Z"
    fill="#0268C3"
  ></path>
</svg>
