<svg width="22" height="24" viewBox="0 0 22 24" fill="none" xmlns="http://www.w3.org/2000/svg">
  <path
    d="M17.578 24H3.64435C1.6321 24 0 22.3628 0 20.3556C0 15.5455 3.91299 11.6325 8.72313 11.6325H12.4993C17.3094 11.6325 21.2224 15.5455 21.2224 20.3556C21.2224 22.3679 19.5852 24 17.578 24ZM8.72313 13.1531C4.74931 13.1531 1.52059 16.3869 1.52059 20.3556C1.52059 21.5265 2.4735 22.4794 3.64435 22.4794H17.578C18.7489 22.4794 19.7018 21.5265 19.7018 20.3556C19.7018 16.3818 16.468 13.1531 12.4993 13.1531H8.72313Z"
    fill="black"
  />
  <path
    d="M10.6137 10.5377C7.7094 10.5377 5.34234 8.17571 5.34234 5.26631C5.34234 2.35692 7.70433 0 10.6137 0C13.5231 0 15.8851 2.36199 15.8851 5.27138C15.8851 8.18078 13.5231 10.5428 10.6137 10.5428V10.5377ZM10.6137 1.52059C8.54572 1.52059 6.86294 3.20338 6.86294 5.27138C6.86294 7.33939 8.54572 9.02217 10.6137 9.02217C12.6817 9.02217 14.3645 7.33939 14.3645 5.27138C14.3645 3.20338 12.6817 1.52059 10.6137 1.52059Z"
    fill="black"
  />
</svg>
