<?xml version="1.0" encoding="UTF-8"?>
<svg xmlns="http://www.w3.org/2000/svg" width="31" height="31" viewBox="0 0 31 31" fill="none">
  <path d="M9.1062 14.2139H22.2943V15.71H9.1062V14.2139Z" fill="white"></path>
  <path fill-rule="evenodd" clip-rule="evenodd" d="M17.1169 11.9936C18.1492 10.9613 18.1492 9.27821 17.1169 8.24591C16.0846 7.2136 14.4015 7.2136 13.3692 8.24591C12.3369 9.27821 12.3369 10.9613 13.3692 11.9936C14.4015 13.0259 16.0846 13.0259 17.1169 11.9936ZM14.4239 9.30066C14.8728 8.85183 15.6059 8.85183 16.0547 9.30066C16.5035 9.74948 16.5035 10.4826 16.0547 10.9314C15.6059 11.3802 14.8728 11.3802 14.4239 10.9314C13.9751 10.4826 13.9751 9.74948 14.4239 9.30066Z" fill="white"></path>
  <path fill-rule="evenodd" clip-rule="evenodd" d="M14.2899 21.6811C13.2575 20.6488 13.2575 18.9657 14.2899 17.9334C15.3222 16.9011 17.0053 16.9011 18.0376 17.9334C19.0699 18.9657 19.0699 20.6488 18.0376 21.6811C17.0053 22.7134 15.3222 22.7134 14.2899 21.6811ZM15.3521 20.6264C15.8009 21.0752 16.534 21.0752 16.9828 20.6264C17.4317 20.1776 17.4317 19.4445 16.9828 18.9956C16.534 18.5468 15.8009 18.5468 15.3521 18.9956C14.9033 19.4445 14.9033 20.1776 15.3521 20.6264Z" fill="white"></path>
  <path fill-rule="evenodd" clip-rule="evenodd" d="M28.9591 5.85147C28.7197 6.09832 28.4579 6.30778 28.1961 6.50227L29.8567 13.0701C30.1335 14.1623 29.8418 15.2619 29.0713 16.0324L15.7934 29.3102C14.5741 30.5295 12.5469 30.4772 11.2752 29.2055L1.46084 19.3911C0.181675 18.1194 0.136792 16.0922 1.35611 14.8729L14.6339 1.59508C15.4044 0.832071 16.5115 0.532852 17.5962 0.809629L25.4283 2.78447C26.5055 3.06125 27.3882 3.87662 27.7697 4.91641C27.7921 4.89397 27.8145 4.8734 27.837 4.85283C27.8594 4.83226 27.8819 4.81168 27.9043 4.78924C28.9217 3.76442 29.4228 2.32817 29.4004 0.517891L30.8965 0.50293C30.9264 2.73211 30.2756 4.5349 28.9591 5.85147ZM14.7312 28.248L28.0165 14.9702C28.4055 14.5812 28.5551 14.0052 28.4055 13.4292L26.8496 7.28024C25.0991 8.06569 23.431 8.06569 23.3337 8.06569L23.3487 6.56959C23.3637 6.56959 24.942 6.56211 26.4755 5.7991L26.4232 5.59713C26.3409 5.26799 26.1688 4.96877 25.9295 4.7294C25.6901 4.4975 25.3909 4.31797 25.0617 4.23569L17.2297 2.25336C16.6612 2.11123 16.0852 2.26084 15.6962 2.64983L2.41086 15.9351C1.77502 16.571 1.82738 17.6482 2.51558 18.3364L12.33 28.1433C13.0182 28.839 14.0954 28.8838 14.7312 28.248Z" fill="white"></path>
</svg>
