<?xml version="1.0" encoding="UTF-8"?>
<svg xmlns="http://www.w3.org/2000/svg" width="33" height="24" viewBox="0 0 33 24" fill="none">
  <path
    d="M32.6859 20.8311C32.6859 22.2222 31.574 23.3523 30.2018 23.3523H2.48408C1.1119 23.3523 0 22.2231 0 20.8311V2.52258C0 1.13228 1.1119 0.00390625 2.48408 0.00390625H30.2018C31.574 0.00390625 32.6859 1.13146 32.6859 2.52258V20.8311Z"
    fill="#114420"
  ></path>
  <path d="M18.1607 1.75684H16.5242L12.5098 8.11281H14.1471L18.1607 1.75684Z" fill="#F3E816"></path>
  <path d="M8.05946 15.5942L4.0459 21.5153H5.68246L9.42257 15.5942H8.05946Z" fill="#F3E816"></path>
  <path d="M17.552 8.11281L21.5565 1.77249C21.4214 1.76837 21.2888 1.75684 21.1529 1.75684H19.6794L15.665 8.11281H17.552Z" fill="#F3E816"></path>
  <path d="M10.9421 15.5942L7.20117 21.5153H9.08812L12.8282 15.5942H10.9421Z" fill="#F3E816"></path>
  <path d="M4.90941 9.93506H2.08105V10.7636H3.02988V13.293H3.95976V10.7636H4.90941V9.93506Z" fill="#F3E816"></path>
  <path
    d="M5.69281 13.293L5.83942 12.7379H6.89614L7.04687 13.293H8.02122L6.89038 9.93506H5.87484L4.74316 13.293H5.69281ZM6.36984 10.8056L6.70259 12.0123H6.04203L6.36984 10.8056Z"
    fill="#F3E816"
  ></path>
  <path
    d="M9.26392 11.9325H9.34711C9.43195 11.9325 9.50772 11.958 9.57443 12.0099C9.62385 12.0503 9.67986 12.1359 9.74328 12.2685L10.2408 13.2956H11.2909L10.8404 12.3221C10.8189 12.2735 10.7761 12.2043 10.711 12.1137C10.646 12.0239 10.5957 11.9646 10.5611 11.9374C10.5101 11.8954 10.4302 11.8542 10.3198 11.8139C10.4574 11.7785 10.5661 11.734 10.646 11.6805C10.7703 11.5965 10.8692 11.4877 10.9392 11.3527C11.0092 11.2176 11.0463 11.057 11.0463 10.87C11.0463 10.6559 10.9993 10.4755 10.9062 10.3264C10.8132 10.1773 10.6905 10.0752 10.5389 10.0208C10.3874 9.96648 10.1675 9.93848 9.87918 9.93848H8.3291V13.2964H9.2631V11.9325H9.26392ZM9.26392 10.6147H9.67245C9.84294 10.6147 9.95825 10.6435 10.02 10.7012C10.0818 10.7596 10.1123 10.8428 10.1123 10.9515C10.1123 11.0248 10.0933 11.0899 10.0538 11.1459C10.0151 11.2028 9.96484 11.2373 9.90306 11.2513C9.78117 11.2818 9.69798 11.2975 9.65597 11.2975H9.2631V10.6147H9.26392Z"
    fill="#F3E816"
  ></path>
  <path
    d="M11.9008 13.2123C12.068 13.3037 12.3035 13.3507 12.6066 13.3507C12.8949 13.3507 13.1305 13.2798 13.3141 13.1415C13.4994 13.0031 13.6205 12.8326 13.6815 12.6333C13.7424 12.434 13.7729 12.1424 13.7729 11.7594V9.93506H12.8397V12.004C12.8397 12.2083 12.8167 12.3532 12.7664 12.4406C12.7178 12.5262 12.6429 12.569 12.5383 12.569C12.4732 12.569 12.4213 12.5542 12.3859 12.5254C12.334 12.4801 12.2978 12.4224 12.2747 12.3516C12.2533 12.2791 12.2418 12.1696 12.2401 12.0221L11.3506 12.1572C11.3679 12.4167 11.4206 12.6358 11.512 12.8104C11.6051 12.9874 11.7344 13.1209 11.9008 13.2123Z"
    fill="#F3E816"
  ></path>
  <path d="M16.8867 10.6516V9.93506H14.3936V13.293H16.932V12.532H15.3243V11.8706H16.773V11.1853H15.3243V10.6516H16.8867Z" fill="#F3E816"></path>
  <path d="M17.2207 10.7636H18.1695V13.293H19.0994V10.7636H20.0491V9.93506H17.2207V10.7636Z" fill="#F3E816"></path>
  <path d="M20.8326 13.293L20.98 12.7379H22.0359L22.1875 13.293H23.161L22.0302 9.93506H21.0155L19.8838 13.293H20.8326ZM21.5105 10.8056L21.8424 12.0123H21.1802L21.5105 10.8056Z" fill="#F3E816"></path>
  <path
    d="M19.0703 8.11382H21.4588C22.6572 8.11382 25.2137 8.63024 25.2137 11.6283C25.2137 14.6263 22.6374 15.5932 21.4588 15.5932H14.3475L10.6074 21.5143H21.1532C21.2405 21.5143 21.3369 21.5044 21.4267 21.5012C21.5527 21.5094 21.6919 21.5143 21.8492 21.5143C27.0076 21.5143 31.1884 17.0922 31.1884 11.6357C31.1884 6.60493 27.6327 2.45299 23.0336 1.83691C23.0179 1.83527 19.0703 8.11382 19.0703 8.11382Z"
    fill="#F3E816"
  ></path>
</svg>
