<svg width="74" height="42" viewBox="0 0 74 42" fill="none" xmlns="http://www.w3.org/2000/svg">
  <path
    d="M40.3585 6.12197C40.8179 6.43556 41.2689 6.70462 41.8183 6.67526C41.8789 6.66803 41.9904 6.68576 42.0421 6.77426C42.0657 6.82447 42.1191 6.92177 42.0065 7.04885C41.563 7.50683 40.8615 7.84411 40.1091 7.98041C40.3449 8.48321 40.6088 8.94048 41.0948 9.18756C41.1529 9.21819 41.248 9.28372 41.2369 9.38414C41.2369 9.443 41.2333 9.55264 41.0717 9.60852C40.4583 9.78695 39.6823 9.72837 38.9577 9.46555C38.9151 10.0214 38.9067 10.5438 39.2068 10.9934C39.2433 11.0488 39.29 11.1512 39.2354 11.2431C39.2068 11.2885 39.1403 11.3847 38.9738 11.3562C38.3477 11.1993 37.7187 10.7721 37.221 10.1825C36.8969 10.6351 36.6338 11.085 36.6631 11.6306C36.6709 11.6942 36.6563 11.8054 36.567 11.8607C36.5135 11.8798 36.4113 11.9333 36.2806 11.8203C35.8237 11.3777 35.4908 10.686 35.3544 9.93459C34.8513 10.1709 34.3924 10.4309 34.1445 10.9125C34.1133 10.971 34.0461 11.0554 33.9402 11.0554C33.8888 11.0554 33.7755 11.0365 33.7145 10.8947C33.5411 10.2756 33.6033 9.51023 33.8649 8.79128C33.3085 8.74631 32.7848 8.73795 32.3224 9.03835C32.2623 9.07565 32.1665 9.11919 32.0748 9.06828C32.0304 9.03835 31.9313 8.97013 31.9622 8.80659C32.1199 8.18111 32.5568 7.55236 33.1458 7.05694C32.6851 6.73654 32.2315 6.47287 31.6845 6.50208C31.6151 6.50974 31.5109 6.49513 31.4591 6.40592C31.4284 6.35373 31.3846 6.24735 31.4963 6.12197C31.9408 5.663 32.6309 5.33267 33.3907 5.19878C33.1583 4.69456 32.8961 4.23842 32.4057 3.99064C32.3463 3.9593 32.2549 3.89022 32.2623 3.78711C32.2623 3.73591 32.27 3.62471 32.4291 3.56344C33.0433 3.38813 33.8202 3.4487 34.5408 3.70513C34.5876 3.15836 34.5966 2.62464 34.2934 2.16766C34.2549 2.11475 34.2132 2.01859 34.2652 1.92838C34.2934 1.87704 34.3631 1.78655 34.5274 1.81534C35.1447 1.97193 35.7839 2.40948 36.2806 2.99157C36.6045 2.535 36.8681 2.08724 36.8388 1.53735C36.8304 1.4704 36.8436 1.36474 36.9357 1.31254C36.9877 1.28219 37.0909 1.23865 37.221 1.35155C37.682 1.79208 38.0098 2.48026 38.1459 3.23963C38.6499 3.00859 39.1109 2.74449 39.3579 2.25829C39.3876 2.1973 39.4582 2.10667 39.5613 2.11475C39.6147 2.11475 39.7243 2.1217 39.7858 2.27914C39.9595 2.89427 39.9008 3.65847 39.6359 4.38054C40.1934 4.4343 40.7185 4.43983 41.1791 4.13106C41.2333 4.09971 41.3355 4.05574 41.4259 4.11049C41.4705 4.14113 41.5692 4.20878 41.5405 4.37231C41.3825 4.98659 40.9458 5.6264 40.3585 6.12197Z"
    fill="#C2C2C2"
  />
  <path
    d="M35.1326 18.3324C34.1665 17.8744 34.028 17.2308 35.4909 17.2444C43.8973 17.3026 47.5045 7.82496 47.3654 0.558415C47.3529 -0.0657933 47.6206 -0.283933 47.877 0.523808C48.2997 1.82853 48.576 3.23467 48.6854 4.70874C49.2383 12.2768 45.0607 18.7927 39.3902 19.2071C37.9085 19.3172 36.4793 18.9698 35.1326 18.3324Z"
    fill="#747474"
  />
  <path
    d="M26.3621 1.06164C25.2177 3.61109 24.5846 6.55229 24.817 9.74411C25.4367 18.2499 31.4879 24.8821 38.1619 24.4022C41.9326 24.128 45.1471 21.6636 47.1224 18.0387C47.5694 17.2054 47.3838 16.7342 46.6828 17.4665C37.9281 26.6877 26.9861 17.0365 26.5912 6.13757C26.4608 4.38437 26.5486 2.6818 26.7966 1.06164C26.9135 0.339566 26.5912 0.541112 26.3621 1.06164Z"
    fill="#747474"
  />
  <path
    d="M5.4157 38.2227C5.21526 38.8307 4.46188 39.6719 2.80224 39.6719C1.62719 39.6719 0.76149 39.3176 0.333125 38.6461C0.0777291 38.2482 0 37.9397 0 37.2001V31.8598H1.58249V36.9012C1.58249 37.3762 1.62719 37.6549 1.71574 37.8183C1.89383 38.1589 2.25827 38.3478 2.76821 38.3478C3.44471 38.3478 3.87535 38.016 3.94283 37.4542C3.9649 37.2869 3.9649 37.1789 3.9649 36.7716V31.8598H5.53714V37.0201C5.53714 37.7528 5.5266 37.8946 5.4157 38.2227Z"
    fill="#747474"
  />
  <path
    d="M9.8884 35.1707C9.74533 35.0916 9.62404 35.0585 9.45605 35.0585C9.12449 35.0585 8.8261 35.2157 8.55021 35.5328V39.525H7.06567V35.7537C7.06567 34.9922 6.97612 34.4194 6.85412 34.0997L8.1842 33.7457C8.31688 33.9809 8.39276 34.2319 8.41696 34.5532C8.73656 34.1231 9.19098 33.7457 9.74533 33.7457C9.96542 33.7457 10.0668 33.7687 10.2997 33.8667L9.8884 35.1707Z"
    fill="#747474"
  />
  <path
    d="M14.583 39.6846C14.3948 39.5505 14.2392 39.3616 14.1403 39.1294C13.7747 39.4825 13.2434 39.6719 12.6454 39.6719C11.8491 39.6719 11.1613 39.2961 10.974 38.7539C10.8838 38.5021 10.8526 38.2014 10.8526 37.6304V34.0131L12.3131 33.7354V37.3667C12.3131 37.8745 12.3578 38.1384 12.4351 38.2947C12.5145 38.4474 12.7341 38.559 12.9547 38.559C13.3217 38.559 13.7653 38.2947 13.8744 38.016V34.0454L15.2931 33.7457V38.0589C15.2931 38.437 15.4144 38.8202 15.6365 39.0873L14.583 39.6846Z"
    fill="#747474"
  />
  <path
    d="M19.834 35.6983C19.834 36.2172 19.5114 36.5072 18.9239 36.5072C18.402 36.5072 18.0497 36.2716 18.0497 35.6983C18.0497 35.171 18.3726 34.8605 18.9357 34.8605C19.4989 34.8605 19.834 35.171 19.834 35.6983ZM22.4559 34.4967L21.8368 33.5593C21.4927 33.8667 21.0729 34.0454 20.6636 34.0454C20.4755 34.0454 20.2775 34.0006 19.9683 33.9257C19.5563 33.822 19.2666 33.7795 18.9463 33.7795C17.4965 33.7795 16.5537 34.5316 16.5537 35.6881C16.5537 36.5276 16.9532 37.0472 17.7738 37.2554C16.843 37.4964 16.7314 37.84 16.7314 38.2011C16.7314 38.5896 16.8994 38.8426 17.1638 38.945C17.4303 39.0543 17.8626 39.109 18.5269 39.1211L19.1554 39.1294C19.7436 39.1426 20.1989 39.2961 20.1989 39.8037C20.1989 40.0349 20.0536 40.2449 19.834 40.3791C19.601 40.52 19.2793 40.5628 18.9038 40.5628C18.2174 40.5628 17.8403 40.3215 17.8403 39.8697C17.8403 39.7166 17.8507 39.6396 17.906 39.5076H16.5317C16.4774 39.6163 16.3991 39.769 16.3991 40.0814C16.3991 40.4665 16.5537 40.797 16.8651 41.0836C17.3729 41.5585 18.2047 41.6912 19.0133 41.6912C19.9001 41.6912 20.7507 41.4917 21.2485 40.9636C21.559 40.63 21.7025 40.2693 21.7025 39.7929C21.7025 39.2853 21.5472 38.8998 21.2152 38.5896C20.8176 38.2228 20.3649 38.0938 19.5009 38.0806L18.7035 38.0718C18.5475 38.0718 18.4601 38.016 18.4601 37.94C18.4601 37.7874 18.6692 37.6551 19.0462 37.4745C19.1554 37.4853 19.2001 37.4853 19.2666 37.4853C20.4755 37.4853 21.3597 36.7797 21.3597 35.8129C21.3597 35.4351 21.2485 35.1487 21.0282 34.8825C21.117 34.8923 21.2713 34.9141 21.415 34.9141C21.825 34.9141 22.1342 34.7953 22.4559 34.4967Z"
    fill="#747474"
  />
  <path
    d="M26.6435 39.6846C26.4531 39.5505 26.2987 39.3616 26.1991 39.1294C25.8327 39.4825 25.3024 39.6719 24.7042 39.6719C23.9071 39.6719 23.2202 39.2961 23.0306 38.7539C22.9435 38.5021 22.9093 38.2014 22.9093 37.6304V34.0131L24.3719 33.7354V37.3667C24.3719 37.8745 24.4168 38.1384 24.4934 38.2947C24.5721 38.4474 24.7913 38.559 25.0148 38.559C25.3794 38.559 25.8229 38.2947 25.9335 38.016V34.0454L27.35 33.7457V38.0589C27.35 38.437 27.4731 38.8202 27.6942 39.0873L26.6435 39.6846Z"
    fill="#747474"
  />
  <path
    d="M31.5478 37.0577L31.5257 38.2696C31.3032 38.5136 31.0276 38.654 30.7491 38.654C30.3735 38.654 30.0968 38.3603 30.0968 37.9166C30.0968 37.2428 30.4512 37.0577 31.4795 37.0577H31.5478ZM33.5289 38.9094C33.0326 38.5342 32.9878 38.2696 32.9997 37.6546L33.0326 35.7537C33.041 35.1479 33.0101 34.9693 32.934 34.7403C32.7093 34.1102 32.057 33.7576 31.1053 33.7576C30.5834 33.7576 30.1077 33.8569 29.555 34.0894C29.156 34.2528 28.9346 34.3643 28.6341 34.5532L29.2666 35.6111C29.8748 35.2052 30.4305 34.9693 30.9042 34.9693C31.4487 34.9693 31.5706 35.1787 31.5706 35.8127V36.0426C31.4487 36.0318 31.3498 36.0318 31.2382 36.0318C29.4319 36.0318 28.5128 36.6496 28.5128 37.9718C28.5128 39.0974 29.1997 39.7368 30.463 39.7368C30.9282 39.7368 31.3253 39.6294 31.6035 39.4273C31.7146 39.349 31.8349 39.2405 31.9468 39.1294C32.0909 39.4172 32.4001 39.6717 32.7429 39.8145L33.5289 38.9094Z"
    fill="#747474"
  />
  <path
    d="M37.2385 39.6163C36.8513 40.7106 36.5627 41.1806 36.151 41.4824C35.7775 41.7556 35.2893 41.9323 34.7785 42L34.2714 41.0287C34.591 40.9406 34.9682 40.8087 35.1892 40.6531C35.3554 40.5307 35.4865 40.3796 35.6101 40.1895C35.7553 39.9563 35.7988 39.8585 35.9315 39.525H35.5544C35.3782 38.9985 35.0781 38.1143 35.0234 37.9402L33.6852 33.9675L35.2018 33.7897L36.1861 37.0902C36.2847 37.4314 36.4859 38.2569 36.4859 38.2569C36.4859 38.2569 36.5963 37.6307 36.6611 37.3537C36.7051 37.1686 36.7934 36.8351 36.8851 36.5678L37.7371 33.8782H39.2958L37.2385 39.6163Z"
    fill="#747474"
  />
  <path
    d="M44.7822 39.5253H43.6637L42.4122 35.3259C42.1333 34.3967 41.9245 33.4501 41.9137 33.328C41.9023 33.4836 41.7482 34.5308 41.5694 35.4243L40.7375 39.5253H39.6537L41.2702 31.9373H42.4897L43.8175 36.3187C44.0491 37.0904 44.1728 37.9285 44.1848 38.0589C44.205 37.917 44.3808 36.7472 44.5707 35.7962L45.355 31.9373H46.3983L44.7822 39.5253Z"
    fill="#747474"
  />
  <path
    d="M50.5398 34.7953L49.9426 37.5881C49.6091 38.2696 48.9894 38.7984 48.4375 38.7984C47.9714 38.7984 47.7267 38.5464 47.7267 37.8745C47.7267 37.0809 47.9489 36.0081 48.4799 35.3811C48.9349 34.8505 49.3434 34.6632 49.9426 34.6632C50.173 34.6632 50.396 34.718 50.5398 34.7953ZM51.6917 34.2877C51.2489 33.9878 50.6605 33.845 50.052 33.845C49.1779 33.845 48.4241 34.1785 47.8355 34.7612C47.1064 35.4903 46.6761 36.7371 46.6761 37.8829C46.6761 39.0873 47.2844 39.6392 48.0479 39.6392C48.8459 39.6392 49.476 39.2608 49.8638 38.654C49.8422 39.1218 49.9623 39.428 50.2745 39.7267L51.1062 39.0977C50.8279 38.8102 50.7264 38.5464 50.9055 37.7305L51.3798 35.4999C51.4596 35.1141 51.6036 34.5713 51.6917 34.2877Z"
    fill="#747474"
  />
  <path
    d="M55.5765 34.7404H54.4362L53.7731 37.8624C53.7284 38.0935 53.6958 38.2821 53.6958 38.4367C53.6958 38.8095 53.8629 38.9452 54.239 38.9452C54.4601 38.9452 54.6351 38.9002 54.8149 38.8306V39.4633C54.4699 39.6171 54.1159 39.6944 53.7284 39.6944C53.0315 39.6944 52.6645 39.349 52.6645 38.7758C52.6645 38.514 52.6762 38.2952 52.7418 37.9948L53.4311 34.7404H52.7543L52.8973 33.9885H53.5857C53.6958 33.5272 53.8297 33.0412 53.9638 32.6217L55.0666 32.3807C54.9139 32.81 54.7156 33.4934 54.6133 33.9885H55.9657L55.5765 34.7404Z"
    fill="#747474"
  />
  <path
    d="M60.1609 37.8951C60.0283 38.5346 60.0516 38.8649 60.2931 39.209L59.4617 39.7482C59.1965 39.4727 59.0535 39.1534 59.0854 38.6541C58.4666 39.3616 57.78 39.7056 57.1046 39.7056C56.3423 39.7056 55.8857 39.3486 55.8857 38.5896C55.8857 38.3349 55.9199 38.0265 55.9747 37.7623L56.7699 34.0572L57.8137 33.8671L57.0387 37.5434C56.9712 37.84 56.938 38.0931 56.938 38.2698C56.938 38.6995 57.0921 38.8649 57.4366 38.8649C57.9585 38.8649 58.7099 38.414 59.2178 37.6104L59.9733 34.0782L61.0134 33.8918L60.1609 37.8951Z"
    fill="#747474"
  />
  <path
    d="M65.2985 34.9591C65.1891 34.9147 65.0902 34.893 64.9242 34.893C64.4699 34.893 63.9594 35.2707 63.4486 36.019L62.7076 39.5253H61.6969L62.4985 35.7959C62.6637 35.0042 62.6753 34.6312 62.5528 34.2423L63.5044 33.8217C63.6257 34.1231 63.6719 34.5306 63.5732 35.0361C64.0913 34.3089 64.7783 33.8569 65.2985 33.8569C65.5085 33.8569 65.6104 33.8782 65.7428 33.9263L65.2985 34.9591Z"
    fill="#747474"
  />
  <path
    d="M69.1744 34.7953L68.5755 37.5881C68.2455 38.2696 67.6257 38.7984 67.071 38.7984C66.6049 38.7984 66.3622 38.5464 66.3622 37.8745C66.3622 37.0809 66.5824 36.0081 67.115 35.3811C67.5701 34.8505 67.9816 34.6632 68.5755 34.6632C68.8108 34.6632 69.0299 34.718 69.1744 34.7953ZM70.327 34.2877C69.8818 33.9878 69.296 33.845 68.6875 33.845C67.8117 33.845 67.0571 34.1785 66.4721 34.7612C65.7425 35.4903 65.3107 36.7371 65.3107 37.8829C65.3107 39.0873 65.9187 39.6392 66.6812 39.6392C67.4823 39.6392 68.1117 39.2608 68.4979 38.654C68.4754 39.1218 68.5978 39.428 68.9092 39.7267L69.7383 39.0977C69.4637 38.8102 69.3627 38.5464 69.5404 37.7305L70.015 35.4999C70.0923 35.1141 70.2371 34.5713 70.327 34.2877Z"
    fill="#747474"
  />
  <path
    d="M73.3477 33.3181L72.3293 38.0386C72.2625 38.3271 72.2414 38.5021 72.2414 38.6115C72.2414 38.7991 72.3293 38.8882 72.4944 38.8882C72.5499 38.8882 72.6373 38.8882 72.694 38.8648L72.7497 39.5165C72.5052 39.6169 72.2625 39.6498 72.0052 39.6498C71.4661 39.6498 71.1647 39.3727 71.1647 38.8998C71.1647 38.7429 71.1998 38.5237 71.2537 38.2823L72.2861 33.4063C72.4407 32.664 72.4602 32.1141 72.352 31.7601L73.4361 31.3744C73.5587 31.773 73.4915 32.6423 73.3477 33.3181Z"
    fill="#747474"
  />
</svg>
