<?xml version="1.0" encoding="UTF-8"?>
<svg xmlns="http://www.w3.org/2000/svg" width="36" height="12" viewBox="0 0 36 12" fill="none">
  <path d="M12.1465 11.0925L13.8923 0.194336H16.6831L14.9373 11.0925H12.1465Z" fill="#2C3B92"></path>
  <path
    d="M25.0606 0.457201C24.5085 0.238524 23.6409 0 22.5598 0C19.8008 0 17.8581 1.47915 17.8422 3.59686C17.8248 5.16332 19.2281 6.03684 20.2862 6.55754C21.3736 7.09133 21.7391 7.43304 21.7348 7.91008C21.7268 8.63993 20.8664 8.9745 20.0643 8.9745C18.9471 8.9745 18.3534 8.80979 17.4354 8.403L17.0767 8.22956L16.6865 10.6691C17.3374 10.9728 18.5435 11.2363 19.7956 11.2502C22.7281 11.2502 24.6335 9.78888 24.6557 7.5275C24.6661 6.28528 23.9223 5.3435 22.3118 4.56603C21.3363 4.06081 20.7378 3.72585 20.7446 3.21468C20.7453 2.76145 21.2502 2.27686 22.3436 2.27686C23.2564 2.26218 23.9176 2.47411 24.4323 2.69557L24.6827 2.82018L25.0606 0.457201Z"
    fill="#2C3B92"
  ></path>
  <path
    d="M28.7776 7.22122C29.009 6.59495 29.8893 4.17522 29.8893 4.17522C29.873 4.20379 30.119 3.54379 30.2599 3.13541L30.4484 4.07521C30.4484 4.07521 30.9838 6.67671 31.0942 7.22122C30.6596 7.22122 29.3225 7.22122 28.7776 7.22122ZM32.2205 0.197754H30.0635C29.3944 0.197754 28.8939 0.390635 28.6006 1.10104L24.4561 11.0891H27.3874C27.3874 11.0891 27.8656 9.74533 27.9739 9.45046C28.2934 9.45046 31.1418 9.45641 31.5486 9.45641C31.6319 9.83662 31.8883 11.0891 31.8883 11.0891H34.4787L32.2205 0.197754Z"
    fill="#2C3B92"
  ></path>
  <path d="M9.80516 0.197754L7.07348 7.62802L6.78098 6.11792C6.27219 4.37763 4.68747 2.49129 2.91504 1.54633L5.41375 11.0776L8.36728 11.0761L12.7623 0.198154H9.80516" fill="#2C3B92"></path>
  <path d="M4.53785 0.197754H0.0373068L0 0.423575C3.50201 1.32646 5.81935 3.50569 6.78058 6.12506L5.80268 1.11731C5.63401 0.42675 5.14387 0.221963 4.53785 0.197754Z" fill="#F6961E"></path>
  <path
    d="M35.2724 10.3767H35.4046C35.4978 10.3767 35.5169 10.3219 35.5169 10.2775C35.5169 10.2013 35.4681 10.1834 35.3919 10.1834H35.2724V10.3767ZM35.1585 10.0989H35.4308C35.4943 10.0989 35.6336 10.1155 35.6336 10.2775C35.6336 10.3203 35.6209 10.3806 35.53 10.4199V10.4231C35.6086 10.4366 35.6125 10.512 35.6173 10.5719C35.6232 10.6684 35.6173 10.6854 35.6423 10.7196H35.524C35.5014 10.6966 35.5066 10.6787 35.5014 10.5779C35.5014 10.5203 35.4943 10.462 35.3665 10.462H35.2728V10.7196H35.1585V10.0989ZM35.3835 10.941C35.6633 10.941 35.8836 10.7069 35.8836 10.414C35.8836 10.1207 35.6633 9.88654 35.3835 9.88654C35.1037 9.88654 34.8839 10.1207 34.8839 10.414C34.8835 10.7069 35.1037 10.941 35.3835 10.941ZM35.3835 9.79248C35.7288 9.79248 35.9999 10.0711 35.9999 10.414C35.9999 10.7569 35.7288 11.0355 35.3835 11.0355C35.0382 11.0355 34.7676 10.7569 34.7676 10.414C34.7676 10.0711 35.0382 9.79248 35.3835 9.79248Z"
    fill="#2C3B92"
  ></path>
</svg>
