<svg width="137" height="32" viewBox="0 0 137 32" fill="none" xmlns="http://www.w3.org/2000/svg">
<path d="M133.926 21.252C135.35 21.252 136.499 22.4193 136.499 23.847C136.499 25.2746 135.349 26.449 133.926 26.449C132.504 26.449 131.375 25.2746 131.375 23.847C131.375 22.4193 132.51 21.252 133.926 21.252ZM133.926 25.9354C135.048 25.9354 135.931 25.0278 135.931 23.847C135.931 22.6661 135.048 21.7656 133.926 21.7656C132.805 21.7656 131.922 22.6656 131.922 23.847C131.922 25.0284 132.805 25.9354 133.926 25.9354ZM133.604 25.2389H133.071V22.4123H134.046C134.593 22.4123 134.999 22.7986 134.999 23.2982C134.999 23.6922 134.746 24.0158 134.382 24.1354L135.013 25.2395H134.403L133.814 24.1847H133.604V25.2395V25.2389ZM133.968 23.7197C134.284 23.7197 134.459 23.565 134.459 23.3046C134.459 23.0308 134.284 22.876 133.968 22.876H133.604V23.7197H133.968Z" fill="#01DC8C"/>
<path d="M126.381 21.2245C124.434 20.885 123.129 19.027 123.467 17.074L126.305 0.689453L133.356 1.91778L130.518 18.3023C130.18 20.2553 128.328 21.564 126.381 21.2245Z" fill="#01DC8C"/>
<path d="M128.727 28.4818C129.688 26.652 128.988 24.3878 127.163 23.4245C125.339 22.4612 123.082 23.1637 122.122 24.9935C121.161 26.8233 121.862 29.0875 123.686 30.0508C125.51 31.0141 127.767 30.3116 128.727 28.4818Z" fill="#01DC8C"/>
<path d="M71.8886 30.4516C63.8148 30.4516 57.2461 23.8632 57.2461 15.7639C57.2461 7.66457 63.8148 1.07617 71.8886 1.07617C79.9624 1.07617 86.5311 7.66516 86.5311 15.7639C86.5311 23.8626 79.9624 30.4516 71.8886 30.4516ZM71.8886 8.25499C67.7608 8.25499 64.4028 11.6239 64.4028 15.7639C64.4028 19.9039 67.7608 23.2728 71.8886 23.2728C76.0164 23.2728 79.3744 19.9044 79.3744 15.7639C79.3744 11.6234 76.0158 8.25499 71.8886 8.25499Z" fill="#01DC8C"/>
<path d="M47.0617 30.5555C40.3182 30.5555 34.832 25.0524 34.832 18.2881C34.832 11.5238 40.3182 6.02124 47.0617 6.02124C53.8052 6.02124 59.2908 11.5244 59.2908 18.2881C59.2908 25.0518 53.8046 30.5555 47.0617 30.5555ZM47.0617 13.2001C44.2642 13.2001 41.9888 15.4826 41.9888 18.2881C41.9888 21.0936 44.2642 23.3767 47.0617 23.3767C49.8592 23.3767 52.1341 21.0942 52.1341 18.2881C52.1341 15.482 49.8586 13.2001 47.0617 13.2001Z" fill="#01DC8C"/>
<path d="M96.3862 30.5346C90.5838 30.5346 85.8633 25.5656 85.8633 19.4568V6.66992H93.02V19.4574C93.02 21.6074 94.5298 23.3564 96.3862 23.3564C98.2426 23.3564 99.7524 21.6074 99.7524 19.4574V6.66992H106.909V19.4574C106.909 25.5656 102.189 30.5346 96.3862 30.5346Z" fill="#01DC8C"/>
<path d="M110.277 30.5346C104.474 30.5346 99.7539 25.5656 99.7539 19.4568V6.66992H106.911V19.4574C106.911 21.6074 108.42 23.3564 110.277 23.3564C112.133 23.3564 113.643 21.6074 113.643 19.4574V6.66992H120.8V19.4574C120.8 25.5656 116.079 30.5346 110.277 30.5346Z" fill="#01DC8C"/>
<path d="M11.0229 30.5346C5.22049 30.5346 0.5 25.5656 0.5 19.4574V6.66992H7.65672V19.4574C7.65672 21.6074 9.16651 23.3564 11.0229 23.3564C12.8793 23.3564 14.3891 21.6074 14.3891 19.4574V6.66992H21.5458V19.4574C21.5458 25.5656 16.8253 30.5346 11.0229 30.5346Z" fill="#01DC8C"/>
<path d="M24.9174 30.5346C19.115 30.5346 14.3945 25.5656 14.3945 19.4568V6.66992H21.5513V19.4574C21.5513 21.6074 23.061 23.3564 24.9174 23.3564C26.7738 23.3564 28.2836 21.6074 28.2836 19.4574V6.66992H35.4404V19.4574C35.4404 25.5656 30.7199 30.5346 24.9174 30.5346Z" fill="#01DC8C"/>
</svg>
