<?xml version="1.0" encoding="UTF-8"?>
<svg xmlns="http://www.w3.org/2000/svg" width="39" height="38" viewBox="0 0 39 38" fill="none">
  <path
    d="M36.9843 21.5004C34.746 20.8278 32.3976 20.7065 30.1924 21.142C24.0456 22.3604 21.0245 27.4157 20.4788 28.419C20.1149 29.0916 19.8007 29.7917 19.5526 30.5139C19.299 29.7917 18.9903 29.0916 18.6264 28.419C18.0807 27.4157 15.0596 22.3604 8.91277 21.142C6.70762 20.7065 4.35363 20.8278 2.12092 21.5004C1.13963 21.7981 0.489112 22.6801 0.500138 23.7C0.516677 25.2987 0.808858 26.8534 1.36566 28.3253C2.10438 30.2769 3.70311 33.0498 7.10455 35.1557C9.41995 36.5891 11.8236 37.3113 14.2658 37.3113C14.591 37.3113 14.9163 37.3003 15.2415 37.2727C16.4874 37.1735 17.7168 36.8923 18.8966 36.4292C19.1446 36.33 19.3652 36.1922 19.5581 36.0268C19.7511 36.1922 19.9716 36.33 20.2197 36.4292C21.3994 36.8923 22.6288 37.179 23.8747 37.2727C24.1999 37.3003 24.5252 37.3113 24.8505 37.3113C27.2982 37.3113 29.7018 36.5891 32.0117 35.1557C35.4186 33.0443 37.0118 30.2769 37.7506 28.3253C38.3074 26.8534 38.5995 25.2987 38.6161 23.7C38.6271 22.6801 37.9766 21.7926 36.9953 21.5004H36.9843ZM18.2846 34.8911C17.2592 35.2936 16.1897 35.5416 15.1037 35.6243C12.6836 35.8118 10.28 35.1833 7.96455 33.75C4.95453 31.8866 3.54875 29.4499 2.90375 27.7354C2.41861 26.4454 2.15951 25.0782 2.14848 23.678C2.14848 23.4023 2.3249 23.1598 2.59503 23.0771C3.80234 22.7132 5.04274 22.5313 6.26659 22.5313C7.04942 22.5313 7.83224 22.6085 8.58751 22.7573C14.0067 23.8323 16.6859 28.3143 17.171 29.2019C18.0145 30.751 18.5162 32.4489 18.676 34.2572C18.6981 34.5328 18.5437 34.7864 18.2901 34.8856L18.2846 34.8911ZM36.1959 27.7409C35.5509 29.4554 34.1451 31.8866 31.1351 33.7555C28.8197 35.1888 26.4216 35.8173 23.996 35.6299C22.9154 35.5472 21.8404 35.2991 20.815 34.8966C20.5614 34.7974 20.4016 34.5438 20.4291 34.2682C20.589 32.46 21.0907 30.7565 21.9341 29.2129C22.4138 28.3253 25.093 23.8434 30.5177 22.7683C31.2895 22.614 32.0723 22.5368 32.8606 22.5368C34.0735 22.5368 35.2973 22.7187 36.5157 23.0881C36.7858 23.1708 36.9622 23.4078 36.9622 23.689C36.9457 25.0948 36.6921 26.4564 36.207 27.7465L36.1959 27.7409Z"
    fill="#B19DFF"
  ></path>
  <path
    d="M12.5067 18.0326C12.2642 18.8375 12.0933 19.6755 11.9885 20.5134C11.9334 20.9655 12.2586 21.3789 12.7107 21.4341C13.1628 21.4837 13.5762 21.1639 13.6313 20.7119C13.7251 19.9621 13.8794 19.2179 14.0889 18.5012C15.1143 15.0557 17.358 12.6521 19.056 11.2408C19.2875 11.0478 19.6293 11.0423 19.8719 11.2243C21.1288 12.178 22.2094 13.3026 23.0694 14.5706C24.6405 16.8804 25.1863 19.2179 25.3627 20.7725C25.4123 21.1915 25.7707 21.5057 26.1841 21.5057C26.2172 21.5057 26.2503 21.5057 26.2779 21.5057C26.7299 21.4561 27.0552 21.0427 27.0056 20.5906C26.7189 18.0933 25.8313 15.6952 24.4366 13.6444C23.4718 12.2276 22.27 10.9707 20.8697 9.91219C20.0208 9.26718 18.8134 9.29475 17.9975 9.97283C16.1232 11.5275 13.6424 14.1902 12.5012 18.0326H12.5067Z"
    fill="#B19DFF"
  ></path>
  <path
    d="M26.9069 14.7304C26.51 14.9564 26.3666 15.4581 26.5927 15.855C26.8187 16.2519 27.3204 16.3897 27.7173 16.1692C28.3568 15.8054 29.0294 15.5077 29.7185 15.2761C30.1319 15.1383 30.5564 15.017 30.9864 14.9288C31.1959 14.8847 31.4219 15.0115 31.5432 15.2431C31.7803 15.6896 31.9898 16.1527 32.1607 16.6268C32.4969 17.5364 32.7175 18.4956 32.8222 19.4714C32.8663 19.8959 33.2246 20.2101 33.6436 20.2101C33.6712 20.2101 33.6987 20.2101 33.7318 20.2101C34.1839 20.1605 34.5146 19.7581 34.4705 19.3005C34.3548 18.1814 34.1012 17.0899 33.7153 16.0534C33.5113 15.5132 33.2743 14.9784 33.0041 14.4657C32.53 13.5727 31.5818 13.1041 30.6391 13.308C30.1485 13.4128 29.6578 13.5506 29.1837 13.705C28.4009 13.9696 27.6291 14.3169 26.9014 14.7248L26.9069 14.7304Z"
    fill="#B19DFF"
  ></path>
  <path
    d="M4.77817 20.2544C4.77817 20.2544 4.8333 20.2544 4.86086 20.2544C5.27984 20.2544 5.64369 19.9347 5.68228 19.5102C5.78151 18.5013 6.00754 17.5145 6.35485 16.5828C6.53126 16.1087 6.74075 15.6457 6.9778 15.1991C7.1046 14.9621 7.33063 14.8353 7.54012 14.8849C7.96461 14.9786 8.39461 15.0944 8.81359 15.2322C9.61295 15.5023 10.3903 15.8607 11.1235 16.3017C11.5149 16.5387 12.0221 16.4119 12.2591 16.0205C12.4962 15.6291 12.3694 15.1219 11.978 14.8849C11.14 14.3777 10.258 13.9697 9.34282 13.661C8.8632 13.5012 8.37256 13.3633 7.88743 13.2641C6.94473 13.0601 5.99651 13.5287 5.52241 14.4218C5.25228 14.9345 5.00971 15.4692 4.81125 16.0095C4.41432 17.079 4.15522 18.2036 4.04496 19.3503C4.00086 19.8024 4.33163 20.2103 4.78919 20.2544H4.77817Z"
    fill="#B19DFF"
  ></path>
  <path
    d="M24.5359 8.39613H26.063C26.063 8.39613 26.085 8.39613 26.0961 8.39613V9.98383C26.0961 10.4414 26.4654 10.8108 26.923 10.8108C27.3806 10.8108 27.7499 10.4414 27.7499 9.98383V8.39613C27.7499 8.39613 27.772 8.39613 27.783 8.39613H29.3101C29.7676 8.39613 30.137 8.02677 30.137 7.5692C30.137 7.11163 29.7676 6.74227 29.3101 6.74227H27.783C27.783 6.74227 27.7609 6.74227 27.7499 6.74227V4.98367C27.7499 4.5261 27.3806 4.15674 26.923 4.15674C26.4654 4.15674 26.0961 4.5261 26.0961 4.98367V6.74227C26.0961 6.74227 26.074 6.74227 26.063 6.74227H24.5359C24.0783 6.74227 23.709 7.11163 23.709 7.5692C23.709 8.02677 24.0783 8.39613 24.5359 8.39613Z"
    fill="#B19DFF"
  ></path>
  <path
    d="M12.3531 10.717C12.0443 10.717 11.7466 10.5792 11.5041 10.3366C11.1623 9.98379 10.9583 9.53725 10.8756 8.9584C10.7157 7.83378 9.93291 7.00134 8.89098 6.84698C8.42238 6.77531 7.82699 6.63197 7.36391 6.13582C7.07724 5.8271 7.0166 5.51838 7.0166 5.30889C7.0166 5.08837 7.08276 4.7576 7.41353 4.45439C7.77186 4.12362 8.22943 3.91413 8.76969 3.83144C9.97701 3.64952 10.7488 2.88874 10.9362 1.67591C11.0024 1.24039 11.1678 0.220515 12.2704 0.011026C12.32 2.52605e-07 12.3696 0 12.4192 0H12.4302C12.5405 0 12.6232 0.0165385 12.7004 0.0441029C13.61 0.352823 13.7699 1.1577 13.8691 1.63732L13.8801 1.69796C14.0179 2.36502 14.1999 2.78951 14.5031 3.11477C14.889 3.52823 15.3686 3.77631 16.0191 3.89208C16.3774 3.95824 16.8681 4.04093 17.2981 4.4158C17.6068 4.68593 17.7777 5.03324 17.7722 5.39709C17.7722 5.75543 17.5903 6.09723 17.276 6.36184C16.8681 6.70364 16.3995 6.78633 16.0577 6.84698L15.9695 6.86351C14.9992 7.03993 14.3928 7.48647 14.051 8.26378C13.9683 8.45673 13.9132 8.68827 13.8526 8.93084L13.825 9.04661C13.7313 9.427 13.6045 9.93969 13.1745 10.3587C12.9319 10.5957 12.6452 10.7225 12.342 10.7225L12.3531 10.717ZM12.3034 2.54143C11.901 3.88106 10.9362 4.82927 9.5856 5.21517L9.18316 5.33094L9.5856 5.4412C10.8811 5.80505 11.8789 6.82492 12.2648 8.17558L12.3806 8.57801L12.4909 8.17558C12.546 7.97711 12.6066 7.80621 12.6728 7.65185C13.1524 6.55479 14.0014 5.8271 15.1977 5.4853L15.5836 5.37504L15.1977 5.25927C14.481 5.04427 13.8911 4.68042 13.4005 4.15119C13.0036 3.72118 12.7224 3.19746 12.535 2.54694L12.4247 2.16656L12.3089 2.54694L12.3034 2.54143Z"
    fill="#B19DFF"
  ></path>
</svg>
