<?xml version="1.0" encoding="UTF-8"?>
<svg xmlns="http://www.w3.org/2000/svg" width="37" height="13" viewBox="0 0 37 13" fill="none">
  <path
    d="M37 0V10.489C37 11.8781 35.9138 13 34.569 13H0V0H37ZM24.819 6.41986C24.8362 6.40205 24.8621 6.39315 24.8793 6.37534C25.181 6.21507 25.3362 5.95685 25.3276 5.60959C25.3276 5.38699 25.3276 5.16438 25.319 4.95069C25.3017 4.51438 25.0776 4.20274 24.681 4.06027C24.4483 3.97123 24.2069 3.94452 23.9569 3.94452C23.2672 3.94452 22.5862 3.94452 21.8966 3.94452C21.7586 3.94452 21.7328 3.98904 21.7328 4.1226C21.7414 5.75205 21.7414 7.39041 21.7328 9.01986C21.7328 9.15343 21.7672 9.19795 21.9052 9.18904C22.6121 9.18014 23.319 9.18904 24.0172 9.18904C24.1897 9.18904 24.3707 9.18014 24.5431 9.14452C25.0776 9.03767 25.431 8.69932 25.5 8.20959C25.5259 7.97808 25.5086 7.74658 25.5086 7.50617C25.5086 6.9363 25.319 6.66027 24.8017 6.47329C24.8103 6.42877 24.8103 6.41986 24.819 6.41986ZM22.7845 7.07877C22.7845 6.97192 22.8017 6.9274 22.9224 6.9363C23.2845 6.94521 23.6379 6.9363 24 6.9363C24.3017 6.94521 24.4569 7.07877 24.4828 7.39041C24.5 7.56849 24.4914 7.75548 24.4741 7.93356C24.4569 8.14726 24.3362 8.27192 24.1293 8.31644C23.8103 8.37877 23.4914 8.34315 23.1724 8.34315C22.7845 8.35205 22.7845 8.34315 22.7845 7.95137C22.7845 7.84452 22.7845 7.74658 22.7845 7.63973C22.7845 7.45274 22.7931 7.26575 22.7845 7.07877ZM22.7845 4.87945C22.7845 4.82603 22.7759 4.75479 22.8621 4.75479C23.2414 4.7637 23.6207 4.71918 23.9914 4.78151C24.181 4.81712 24.2759 4.94178 24.2845 5.12877C24.2931 5.31575 24.3017 5.50274 24.2845 5.68973C24.2672 5.94795 24.1207 6.09041 23.8707 6.09932C23.5431 6.11712 23.2155 6.10822 22.8879 6.10822C22.8017 6.10822 22.7759 6.08151 22.7845 5.99247C22.7845 5.80548 22.7845 5.61849 22.7845 5.4226C22.7845 5.26233 22.7845 5.07534 22.7845 4.87945ZM2.69828 6.09041C2.43103 6.36644 2.43966 6.67808 2.71552 6.96301C3.78448 8.04932 4.86207 9.14452 5.93965 10.2308C6.09483 10.3911 6.25 10.5425 6.43103 10.7205C6.43103 10.0349 6.43103 9.39384 6.43103 8.75274C6.43103 8.63699 6.40517 8.54795 6.31897 8.4589C5.77586 7.92466 5.25 7.38151 4.71552 6.83836C4.5 6.61575 4.5 6.42877 4.71552 6.20616C5.2069 5.69863 5.69828 5.18219 6.2069 4.68356C6.37069 4.52329 6.43103 4.36301 6.43103 4.13151C6.41379 3.54384 6.42241 2.95616 6.42241 2.32397C5.15517 3.59726 3.92241 4.84384 2.69828 6.09041ZM7.16379 10.6671C8.38793 9.42945 9.61207 8.19178 10.8276 6.94521C11.1034 6.66918 11.0948 6.35753 10.819 6.0726C9.89655 5.13767 8.96552 4.19384 8.03448 3.25C7.73276 2.94726 7.43103 2.64452 7.12069 2.33288C7.11207 2.36849 7.10345 2.3863 7.10345 2.40411C7.10345 3.05411 7.10345 3.70411 7.10345 4.35411C7.10345 4.43425 7.13793 4.47877 7.18965 4.53219C7.73276 5.08425 8.27586 5.6363 8.81034 6.19726C9.02586 6.41986 9.03448 6.60685 8.81896 6.82945C8.28448 7.38151 7.74138 7.92466 7.2069 8.47671C7.15517 8.52123 7.10345 8.56575 7.10345 8.65479C7.10345 9.33151 7.10345 10.0082 7.10345 10.7027C7.14655 10.6849 7.15517 10.676 7.16379 10.6671ZM19.6379 4.03356C19.6121 3.94452 19.5603 3.93562 19.4828 3.93562C19.2155 3.93562 18.9569 3.93562 18.6897 3.93562C18.2759 3.93562 18.1207 4.05137 17.9828 4.46096C17.6552 5.44932 17.3362 6.43767 17.0086 7.42603C16.819 8.0048 16.6293 8.57466 16.4397 9.18014C16.7931 9.18014 17.1207 9.18014 17.4569 9.18014C17.5431 9.18014 17.5517 9.1089 17.569 9.05548C17.6552 8.78836 17.75 8.52123 17.8276 8.24521C17.8621 8.13836 17.9052 8.10274 18.0086 8.10274C18.5776 8.11164 19.1552 8.11164 19.7241 8.10274C19.8362 8.10274 19.8966 8.12945 19.9224 8.24521C20 8.52123 20.0862 8.78836 20.1724 9.05548C20.1983 9.12671 20.2155 9.18014 20.3103 9.18014C20.6293 9.17123 20.9483 9.18014 21.3017 9.18014C20.75 7.44384 20.1983 5.73425 19.6379 4.03356ZM18.8793 4.78151C19.0603 5.36027 19.2241 5.89452 19.3879 6.42877C19.4569 6.65137 19.5172 6.87397 19.5948 7.09658C19.6207 7.16781 19.6293 7.22123 19.5259 7.22123C19.0776 7.22123 18.6207 7.22123 18.1466 7.22123C18.3966 6.40205 18.6293 5.60959 18.8793 4.78151ZM30.1638 7.8089C29.7586 6.58014 29.3534 5.35137 28.9655 4.1226C28.9138 3.97123 28.8534 3.92671 28.6983 3.93562C28.4828 3.95342 28.2672 3.93562 28.0603 3.93562C27.6638 3.93562 27.3879 4.14041 27.2586 4.52329C26.8966 5.6363 26.5259 6.74041 26.1638 7.85342C26.0259 8.28973 25.8793 8.71712 25.7328 9.17123C26.069 9.17123 26.3707 9.16233 26.681 9.17123C26.8017 9.17123 26.8448 9.11781 26.8707 9.01986C26.9483 8.76164 27.0431 8.50342 27.1121 8.24521C27.1465 8.13836 27.1897 8.08493 27.3103 8.08493C27.8793 8.09384 28.4569 8.09384 29.0259 8.08493C29.1466 8.08493 29.1897 8.12945 29.2241 8.2363C29.3017 8.50342 29.3965 8.76164 29.4741 9.02877C29.5 9.1089 29.5259 9.16233 29.6207 9.16233C29.931 9.15343 30.25 9.16233 30.6034 9.16233C30.4483 8.69932 30.3017 8.25411 30.1638 7.8089ZM27.4397 7.21233C27.681 6.41096 27.9224 5.61849 28.1724 4.78151C28.431 5.61849 28.6724 6.40205 28.9224 7.21233C28.4224 7.21233 27.9397 7.21233 27.4397 7.21233ZM13.7241 5.4226C13.7328 4.9863 13.9052 4.7726 14.319 4.71027C14.7759 4.63904 15.2328 4.69247 15.6983 4.68356C16.0862 4.67466 16.0862 4.68356 16.0603 4.27397C16.0431 4.00685 15.8534 3.78425 15.6121 3.78425C15.0776 3.78425 14.5431 3.73973 14.0086 3.81986C13.1121 3.94452 12.6897 4.45205 12.6897 5.37808C12.6897 6.13493 12.6897 6.88288 12.6897 7.63973C12.6897 8.43219 13.069 8.92192 13.8276 9.08219C14.5172 9.23356 15.2241 9.14452 15.9138 9.16233C15.9483 9.16233 15.9828 9.16233 16 9.1089C16.1466 8.70822 15.8707 8.27192 15.4569 8.25411C15.0862 8.24521 14.7155 8.28082 14.3448 8.2274C13.9138 8.16507 13.7241 7.95137 13.7241 7.49726C13.7241 7.15 13.7241 6.81164 13.7241 6.46438C13.7241 6.12603 13.7241 5.76986 13.7241 5.4226ZM30.9569 9.01096C30.9569 9.0911 30.931 9.18014 31.069 9.18014C32.0862 9.17123 33.0948 9.18014 34.1121 9.18014C34.2241 9.18014 34.2328 9.12671 34.2328 9.03767C34.2328 8.85069 34.2241 8.6637 34.2328 8.47671C34.2414 8.32534 34.1897 8.28973 34.0517 8.28973C33.431 8.29863 32.8017 8.28973 32.181 8.29863C32.0259 8.29863 31.9914 8.25411 31.9914 8.10274C32 6.81164 31.9914 5.52945 31.9914 4.23836C31.9914 3.86438 31.9914 3.86438 31.6293 3.86438C31.1724 3.86438 30.9483 4.08699 30.9483 4.56781C30.9483 5.29795 30.9483 6.02808 30.9483 6.74932C30.9569 7.49726 30.9569 8.25411 30.9569 9.01096Z"
    fill="#006397"
  ></path>
</svg>
