<svg width="28" height="26" viewBox="0 0 28 26" fill="none" xmlns="http://www.w3.org/2000/svg">
  <path
    d="M9.41752 26C8.96194 26 8.50635 25.9052 8.07855 25.7156C6.84513 25.1691 6.12286 24.1931 5.98952 22.8937C5.83951 21.4493 6.47844 20.2335 7.78964 19.4695C8.3119 19.1628 8.86749 19.0959 9.33974 19.0624C9.36196 19.0624 9.38419 19.0624 9.40085 19.0624C9.43975 19.0624 9.47308 19.0624 9.51197 19.0624L9.95645 19.1126C11.5899 19.2966 12.8955 20.8637 12.8677 22.6037C12.8511 23.747 12.2455 24.8121 11.2565 25.4479C10.6954 25.8104 10.0509 25.9944 9.41197 25.9944L9.41752 26ZM9.38974 20.7355C9.1175 20.7522 8.83971 20.7912 8.62858 20.9139C7.87853 21.3489 7.57296 21.9233 7.65074 22.7208C7.72297 23.4179 8.07299 23.8808 8.75637 24.1875C9.27307 24.4162 9.86199 24.366 10.362 24.0425C10.8787 23.7079 11.1954 23.1614 11.2065 22.5814C11.2232 21.6166 10.462 20.8581 9.7731 20.7801L9.38974 20.7355Z"
    fill="black"
  />
  <path
    d="M21.8294 26C21.5461 26 21.2572 25.9665 20.9683 25.894C19.4626 25.5148 18.0681 23.8975 18.4292 21.9401C18.6515 20.7355 19.3737 19.832 20.5182 19.3189C20.9294 19.1349 21.3294 19.1014 21.6794 19.068C21.7017 19.068 21.7183 19.068 21.7405 19.068C21.785 19.068 21.835 19.068 21.8794 19.068C22.2184 19.0903 22.7239 19.1461 23.2406 19.3691C24.4741 19.9101 25.3574 21.3043 25.2852 22.6149C25.2519 23.2172 25.0963 23.7693 24.813 24.26C24.174 25.3642 23.0406 26 21.8239 26H21.8294ZM21.8239 20.7355C21.5683 20.7578 21.3516 20.7801 21.1961 20.847C20.5516 21.137 20.1904 21.5776 20.0682 22.2412C19.8849 23.2395 20.6016 24.0704 21.3739 24.2656C22.1628 24.4664 22.9684 24.1206 23.374 23.4123C23.524 23.1502 23.6073 22.8602 23.624 22.52C23.6573 21.9122 23.1684 21.1537 22.5739 20.8972C22.3684 20.808 22.135 20.7578 21.8183 20.7355H21.8239Z"
    fill="black"
  />
  <path
    d="M9.5342 18.1255C9.36752 18.1255 9.12861 18.1143 8.85082 18.053C7.74519 17.8132 6.93958 17.1328 6.52289 16.0844C6.36732 15.694 6.31177 15.3036 6.26176 14.9578C6.24509 14.824 6.22287 14.6902 6.20065 14.5619C6.07842 13.9429 5.97286 13.3238 5.86729 12.7048L5.73395 11.9296C5.65061 11.4556 5.56172 10.9815 5.47282 10.5075C5.4006 10.1283 5.33392 9.74906 5.2617 9.36983C5.18947 8.97945 5.1228 8.56119 5.02279 7.9812L4.68388 5.97911C4.48943 4.84143 4.41164 4.43432 4.3672 4.21682C4.33942 4.08856 4.3283 4.01606 4.31164 3.92125C4.15607 2.86165 3.66159 2.24262 2.75598 1.97493C2.03371 1.76301 1.42256 1.66263 0.855857 1.67378C0.394716 1.68493 0.0113579 1.31686 0.000246023 0.853984C-0.0108658 0.391106 0.355825 0.0118797 0.816966 0.000726046C1.55035 -0.0104277 2.33929 0.106686 3.22268 0.368798C4.76167 0.8261 5.70617 1.96935 5.95619 3.67587C5.9673 3.74279 5.97841 3.79298 5.99508 3.88779C6.03953 4.11086 6.12286 4.52355 6.31732 5.67238L25.9075 5.52181C26.3019 5.49392 26.8353 5.63334 27.202 6.09065C27.6298 6.62602 27.5298 7.22832 27.4909 7.39563C26.9964 9.07984 26.502 10.7306 26.0019 12.3869C25.6408 13.5748 25.2797 14.7571 24.9185 15.9338C24.913 15.9617 24.9019 15.984 24.8907 16.0119C24.7241 16.4134 24.3907 16.9934 23.7518 17.4563C23.0906 17.9415 22.4184 18.0809 21.9683 18.1088C21.9461 18.1088 21.9294 18.1088 21.9072 18.1088C17.0569 18.0865 10.5176 18.0641 9.73421 18.1088C9.68976 18.1088 9.62865 18.1088 9.53975 18.1088L9.5342 18.1255ZM6.60067 7.34544L6.66179 7.69678C6.75624 8.26562 6.82847 8.68388 6.90069 9.06868C6.96736 9.44233 7.03959 9.82156 7.11182 10.2008C7.20071 10.6804 7.28961 11.16 7.3785 11.6396L7.5174 12.4204C7.62296 13.0282 7.72852 13.6361 7.8452 14.244C7.87853 14.4002 7.90076 14.5619 7.92298 14.7236C7.96187 14.9969 8.00076 15.259 8.07855 15.4653C8.28967 15.9951 8.65081 16.2963 9.21195 16.419C9.41752 16.4636 9.5842 16.4524 9.63976 16.4524C10.2842 16.419 14.0623 16.419 21.885 16.4524C22.0795 16.4357 22.435 16.3688 22.7739 16.1178C23.0795 15.8892 23.2518 15.6159 23.3406 15.4096C23.6962 14.2496 24.0518 13.084 24.4074 11.9129C24.8852 10.3346 25.3519 8.76196 25.813 7.20044L6.60623 7.34544H6.60067Z"
    fill="black"
  />
</svg>
