<?xml version="1.0" encoding="UTF-8"?>
<svg xmlns="http://www.w3.org/2000/svg" width="38" height="38" viewBox="0 0 38 38" fill="none">
  <path
    d="M18.9884 22.5935C17.3026 22.5935 15.6226 22.1589 14.1158 21.2837L1.51839 13.9535C0.565788 13.4014 0 12.4028 0 11.2869C0 10.1709 0.571562 9.17237 1.51839 8.62025L14.0984 1.30762C17.0948 -0.430967 20.8186 -0.436841 23.8149 1.29587L36.4701 8.62025C37.4284 9.17237 37.9942 10.1709 38 11.2869C38 12.4028 37.4284 13.4014 36.4758 13.9594L23.8438 21.2896C22.3427 22.1589 20.6627 22.5935 18.9827 22.5935H18.9884ZM18.9654 1.75401C17.5798 1.75401 16.1942 2.1123 14.9587 2.82888L2.37861 10.1415C1.97447 10.3765 1.732 10.7994 1.732 11.281C1.732 11.7626 1.97447 12.1797 2.37861 12.4205L14.976 19.7507C17.447 21.1898 20.5184 21.1898 22.9894 19.7507L35.6214 12.4205C36.0313 12.1855 36.268 11.7568 36.268 11.281C36.268 10.8052 36.0255 10.3765 35.6156 10.1415L22.9605 2.81713C21.7308 2.10643 20.3452 1.74814 18.9654 1.74814V1.75401Z"
    fill="#FBB72D"
  ></path>
  <path
    d="M11.8179 38H9.86073C9.36423 38 8.90237 37.8061 8.55598 37.4478C8.20958 37.0895 8.01904 36.6197 8.01904 36.1145L8.0306 33.7181C8.0306 33.7181 8.0306 33.677 8.0306 33.6594C8.05947 33.213 8.20379 32.5493 8.68875 31.9208C9.07556 31.4215 9.54321 31.1337 9.94157 30.9634V17.783C9.94157 17.4717 10.1032 17.1839 10.3688 17.0253L18.5958 12.0621C19.0057 11.8154 19.5368 11.9505 19.7793 12.3734C20.0218 12.7905 19.889 13.3308 19.4733 13.5775L11.6736 18.2823V30.9399C12.1643 31.1278 12.7647 31.4861 13.192 32.1616C13.4691 32.6021 13.6365 33.119 13.6711 33.6594C13.6711 33.677 13.6711 33.7005 13.6711 33.7181V36.1204C13.6596 37.1483 12.834 37.9882 11.8179 37.9882V38ZM9.75682 33.7592L9.74528 36.1204C9.74528 36.1498 9.75682 36.1791 9.77992 36.2026C9.80301 36.2261 9.82609 36.2379 9.86073 36.2379H11.8179C11.8814 36.2379 11.9276 36.185 11.9276 36.1263V33.7533C11.916 33.5184 11.8468 33.3128 11.7313 33.1307C11.4715 32.7255 11.0385 32.5786 10.8133 32.5258C10.6113 32.5786 10.288 32.702 10.0455 33.0191C9.84342 33.2835 9.77414 33.5654 9.75682 33.7651V33.7592Z"
    fill="#FBB72D"
  ></path>
  <path
    d="M19.1215 31.9385C17.4357 31.9385 15.7556 31.5039 14.2488 30.6287L7.42471 26.6582C6.31046 26.0062 5.61768 24.7904 5.61768 23.4864V18.9638C5.61768 18.4762 6.00449 18.0827 6.48367 18.0827C6.96286 18.0827 7.34967 18.4762 7.34967 18.9638V23.4864C7.34967 24.1619 7.70762 24.7962 8.28495 25.131L15.109 29.1016C17.58 30.5406 20.6514 30.5406 23.1224 29.1016L29.779 25.2368C30.3563 24.902 30.7201 24.2676 30.7201 23.5922V18.8815C30.7201 18.394 31.1069 18.0005 31.5861 18.0005C32.0652 18.0005 32.4521 18.394 32.4521 18.8815V23.5922C32.4521 24.902 31.7593 26.1178 30.6392 26.7698L23.9826 30.6346C22.4815 31.5039 20.8015 31.9385 19.1215 31.9385Z"
    fill="#FBB72D"
  ></path>
</svg>
