<?xml version="1.0" encoding="UTF-8"?>
<svg xmlns="http://www.w3.org/2000/svg" width="35" height="39" viewBox="0 0 35 39" fill="none">
  <path d="M2.88544 24.2828L2.45026 23.6834L2.88544 24.2828ZM23.2553 9.49444L23.6905 10.0939L23.2553 9.49444ZM33.1283 23.0938L33.5635 23.6932L33.1283 23.0938ZM12.7585 37.8822L12.3233 37.2827L12.7585 37.8822ZM10.8944 37.5862L11.4938 37.1511L10.8944 37.5862ZM2.58952 26.1469L1.99009 26.5821L2.58952 26.1469ZM11.5693 33.4794C11.2382 33.7198 11.1647 34.183 11.405 34.514C11.6454 34.8451 12.1086 34.9186 12.4396 34.6783L11.5693 33.4794ZM15.3848 32.5401C15.7158 32.2998 15.7893 31.8366 15.549 31.5055C15.3087 31.1745 14.8455 31.1009 14.5144 31.3413L15.3848 32.5401ZM16.4811 29.9136C16.1501 30.154 16.0765 30.6172 16.3169 30.9482C16.5572 31.2793 17.0204 31.3528 17.3515 31.1125L16.4811 29.9136ZM20.2966 28.9743C20.6277 28.7339 20.7012 28.2707 20.4609 27.9397C20.2205 27.6086 19.7573 27.5351 19.4263 27.7754L20.2966 28.9743ZM21.394 26.3467C21.0629 26.5871 20.9894 27.0503 21.2297 27.3813C21.4701 27.7124 21.9333 27.7859 22.2643 27.5456L21.394 26.3467ZM25.2095 25.4074C25.5405 25.1671 25.6141 24.7039 25.3737 24.3728C25.1334 24.0418 24.6702 23.9682 24.3391 24.2086L25.2095 25.4074ZM26.3059 22.7809C25.9748 23.0212 25.9013 23.4845 26.1416 23.8155C26.382 24.1466 26.8452 24.2201 27.1762 23.9798L26.3059 22.7809ZM30.1214 21.8416C30.4524 21.6012 30.526 21.138 30.2856 20.807C30.0453 20.4759 29.5821 20.4024 29.251 20.6427L30.1214 21.8416ZM9.09858 28.2178L8.6634 27.6184L9.09858 28.2178ZM12.0243 26.0937L12.4595 26.6932L12.0243 26.0937ZM13.5491 26.3358L12.9497 26.771L13.5491 26.3358ZM14.4218 27.5378L15.0212 27.1027L14.4218 27.5378ZM14.1797 29.0627L14.6149 29.6621L14.1797 29.0627ZM11.254 31.1867L10.8188 30.5873L11.254 31.1867ZM9.72919 30.9446L9.12977 31.3798L9.72919 30.9446ZM8.85652 29.7426L9.45594 29.3074L8.85652 29.7426ZM4.6023 22.7746C4.77994 23.1431 5.22268 23.2978 5.5912 23.1202C5.95971 22.9425 6.11445 22.4998 5.9368 22.1313L4.6023 22.7746ZM1.01794 13.6321L1.68522 13.3105L1.68512 13.3103L1.01794 13.6321ZM1.64094 11.8506L1.31931 11.1833L1.31893 11.1835L1.64094 11.8506ZM24.0764 1.03636L24.398 1.70362L24.3981 1.70354L24.0764 1.03636ZM25.8579 1.65935L26.5252 1.33774L26.525 1.33734L25.8579 1.65935ZM31.9043 14.204L31.237 14.5256L31.2371 14.5258L31.9043 14.204ZM31.2813 15.9856L31.6029 16.6529L31.6033 16.6527L31.2813 15.9856ZM29.7099 15.9206C29.3413 16.0982 29.1865 16.5409 29.3641 16.9094C29.5417 17.278 29.9844 17.4328 30.353 17.2552L29.7099 15.9206ZM2.12065 15.922C1.75213 16.0997 1.59738 16.5424 1.77501 16.9109C1.95264 17.2795 2.39538 17.4342 2.7639 17.2566L2.12065 15.922ZM27.605 5.28301C27.9735 5.10538 28.1282 4.66264 27.9506 4.29412C27.773 3.9256 27.3302 3.77086 26.9617 3.94848L27.605 5.28301ZM3.32062 24.8823L23.6905 10.0939L22.8201 8.89502L2.45026 23.6834L3.32062 24.8823ZM23.6905 10.0939C23.9559 9.90117 24.3272 9.96013 24.5199 10.2255L25.7188 9.35519C25.0454 8.42767 23.7476 8.22164 22.8201 8.89502L23.6905 10.0939ZM24.5199 10.2255L32.8248 21.6649L34.0237 20.7945L25.7188 9.35519L24.5199 10.2255ZM32.8248 21.6649C33.0175 21.9303 32.9586 22.3017 32.6931 22.4943L33.5635 23.6932C34.491 23.0198 34.697 21.722 34.0237 20.7945L32.8248 21.6649ZM32.6931 22.4943L12.3233 37.2827L13.1937 38.4816L33.5635 23.6932L32.6931 22.4943ZM12.3233 37.2827C12.0579 37.4754 11.6865 37.4165 11.4938 37.1511L10.295 38.0214C10.9684 38.9489 12.2661 39.155 13.1937 38.4816L12.3233 37.2827ZM11.4938 37.1511L3.18894 25.7117L1.99009 26.5821L10.295 38.0214L11.4938 37.1511ZM3.18894 25.7117C2.99625 25.4463 3.0552 25.0749 3.32062 24.8823L2.45026 23.6834C1.52275 24.3568 1.31672 25.6546 1.99009 26.5821L3.18894 25.7117ZM12.4396 34.6783L15.3848 32.5401L14.5144 31.3413L11.5693 33.4794L12.4396 34.6783ZM17.3515 31.1125L20.2966 28.9743L19.4263 27.7754L16.4811 29.9136L17.3515 31.1125ZM22.2643 27.5456L25.2095 25.4074L24.3391 24.2086L21.394 26.3467L22.2643 27.5456ZM27.1762 23.9798L30.1214 21.8416L29.251 20.6427L26.3059 22.7809L27.1762 23.9798ZM9.53376 28.8172L12.4595 26.6932L11.5891 25.4943L8.6634 27.6184L9.53376 28.8172ZM12.4595 26.6932C12.6163 26.5793 12.8358 26.6141 12.9497 26.771L14.1485 25.9006C13.554 25.0817 12.4081 24.8998 11.5891 25.4943L12.4595 26.6932ZM12.9497 26.771L13.8224 27.973L15.0212 27.1027L14.1485 25.9006L12.9497 26.771ZM13.8224 27.973C13.9362 28.1299 13.9014 28.3494 13.7445 28.4632L14.6149 29.6621C15.4338 29.0675 15.6158 27.9216 15.0212 27.1027L13.8224 27.973ZM13.7445 28.4632L10.8188 30.5873L11.6892 31.7861L14.6149 29.6621L13.7445 28.4632ZM10.8188 30.5873C10.662 30.7012 10.4425 30.6663 10.3286 30.5095L9.12977 31.3798C9.72433 32.1988 10.8702 32.3807 11.6892 31.7861L10.8188 30.5873ZM10.3286 30.5095L9.45594 29.3074L8.25709 30.1778L9.12977 31.3798L10.3286 30.5095ZM9.45594 29.3074C9.34206 29.1506 9.3769 28.9311 9.53376 28.8172L8.6634 27.6184C7.84444 28.2129 7.66253 29.3588 8.25709 30.1778L9.45594 29.3074ZM5.9368 22.1313C5.0455 20.2823 3.9826 18.0771 3.14253 16.3341C2.72249 15.4627 2.35817 14.7068 2.09885 14.1687C1.96919 13.8997 1.86578 13.6852 1.79479 13.5379C1.75929 13.4642 1.7319 13.4074 1.71338 13.369C1.70412 13.3497 1.69708 13.3351 1.69235 13.3253C1.68999 13.3204 1.68821 13.3167 1.68701 13.3143C1.68642 13.313 1.68597 13.3121 1.68567 13.3115C1.68552 13.3112 1.68541 13.3109 1.68533 13.3108C1.68529 13.3107 1.68526 13.3106 1.68525 13.3106C1.68523 13.3105 1.68522 13.3105 1.01794 13.6321C0.350667 13.9537 0.350676 13.9538 0.350695 13.9538C0.350714 13.9538 0.350742 13.9539 0.35078 13.954C0.350855 13.9541 0.350968 13.9544 0.351117 13.9547C0.351417 13.9553 0.351866 13.9562 0.352463 13.9575C0.353657 13.9599 0.355441 13.9636 0.357804 13.9685C0.36253 13.9783 0.369571 13.993 0.37883 14.0122C0.397349 14.0506 0.424742 14.1074 0.460238 14.1811C0.531232 14.3284 0.63464 14.5429 0.764301 14.8119C1.02362 15.35 1.38795 16.1059 1.80799 16.9774C2.64807 18.7203 3.71097 20.9255 4.6023 22.7746L5.9368 22.1313ZM1.68512 13.3103C1.54316 13.016 1.66637 12.6608 1.96295 12.5176L1.31893 11.1835C0.286786 11.6817 -0.1471 12.9217 0.35076 13.9539L1.68512 13.3103ZM1.96257 12.5178L24.398 1.70362L23.7547 0.369096L1.31931 11.1833L1.96257 12.5178ZM24.3981 1.70354C24.6925 1.56158 25.0477 1.68479 25.1908 1.98136L26.525 1.33734C26.0268 0.305203 24.7868 -0.128684 23.7546 0.369176L24.3981 1.70354ZM25.1907 1.98097L31.237 14.5256L32.5716 13.8824L26.5252 1.33774L25.1907 1.98097ZM31.2371 14.5258C31.3791 14.8201 31.2559 15.1753 30.9593 15.3185L31.6033 16.6527C32.6355 16.1544 33.0693 14.9144 32.5715 13.8822L31.2371 14.5258ZM30.9597 15.3183L29.7099 15.9206L30.353 17.2552L31.6029 16.6529L30.9597 15.3183ZM2.7639 17.2566L27.605 5.28301L26.9617 3.94848L2.12065 15.922L2.7639 17.2566Z" fill="white"></path>
</svg>
