<?xml version="1.0" encoding="UTF-8"?>
<svg xmlns="http://www.w3.org/2000/svg" width="36" height="36" viewBox="0 0 36 36" fill="none">
  <path d="M3.56117 23.3743C2.6848 22.4873 2.19669 21.2885 2.20422 20.0417C2.21174 18.7948 2.71428 17.6019 3.60128 16.7256L16.979 3.50825C17.866 2.63189 19.0648 2.14378 20.3117 2.1513C21.5586 2.15882 22.7514 2.66136 23.6278 3.54836L32.4394 12.4669C33.3157 13.3539 33.8038 14.5527 33.7963 15.7996C33.7888 17.0464 33.2862 18.2393 32.3992 19.1156L19.0215 32.333C18.1345 33.2093 16.9357 33.6974 15.6888 33.6899C14.4419 33.6824 13.2491 33.1799 12.3727 32.2929L3.56117 23.3743Z" stroke="white" stroke-width="1.6" stroke-linecap="round" stroke-linejoin="round"></path>
  <path d="M5.76367 25.6046L25.8303 5.77863" stroke="white" stroke-width="1.6" stroke-linecap="round" stroke-linejoin="round"></path>
  <path d="M15.7305 26.7726L15.742 26.7612" stroke="white" stroke-width="1.6" stroke-linecap="round" stroke-linejoin="round"></path>
  <path d="M20.1895 22.3668L22.4191 20.1639" stroke="white" stroke-width="1.6" stroke-linecap="round" stroke-linejoin="round"></path>
</svg>
