<?xml version="1.0" encoding="UTF-8"?>
<svg xmlns="http://www.w3.org/2000/svg" width="39" height="11" viewBox="0 0 39 11" fill="none">
  <path
    d="M7.28874 10.0207C9.98295 10.0336 12.4418 7.78717 12.4418 5.05378C12.4418 2.0647 9.98295 -0.00058903 7.28874 1.26017e-07H4.97041C2.2438 -0.00058903 0 2.06558 0 5.05349C0 7.78746 2.2438 10.0333 4.97041 10.0204H7.28874V10.0207Z"
    fill="#0779BE"
  ></path>
  <path
    d="M14.1588 2.15925C14.1588 1.68498 13.9131 1.7165 13.6777 1.7112V1.57422C13.8816 1.58423 14.0907 1.58423 14.2952 1.58423C14.5149 1.58423 14.8136 1.57422 15.201 1.57422C16.5564 1.57422 17.294 2.48564 17.294 3.41887C17.294 3.94056 16.9909 5.25261 15.138 5.25261C14.8711 5.25261 14.6248 5.2423 14.3788 5.2423C14.1432 5.2423 13.9131 5.24761 13.6777 5.25261V5.11564C13.9912 5.08382 14.1432 5.07322 14.1588 4.71501V2.15925ZM14.6719 4.63076C14.6719 5.03698 14.96 5.08382 15.2163 5.08382C16.3475 5.08382 16.7187 4.22483 16.7187 3.43978C16.7187 2.45442 16.0906 1.74301 15.0805 1.74301C14.8658 1.74301 14.7668 1.75862 14.6719 1.76393V4.63076Z"
    fill="#747474"
  ></path>
  <path
    d="M17.4785 5.11176H17.5775C17.7239 5.11176 17.8291 5.11176 17.8291 4.93737V3.50984C17.8291 3.27801 17.7501 3.2459 17.5566 3.14132V3.05678C17.8026 2.98255 18.096 2.88298 18.1166 2.86707C18.1534 2.84557 18.1843 2.83997 18.2108 2.83997C18.2368 2.83997 18.2477 2.87179 18.2477 2.9145V4.93737C18.2477 5.11176 18.3628 5.11176 18.5092 5.11176H18.5982V5.24903C18.42 5.24903 18.2368 5.23872 18.0488 5.23872C17.8603 5.23872 17.6721 5.24373 17.4785 5.24903V5.11176ZM18.0382 2.029C17.9018 2.029 17.7819 1.90262 17.7819 1.76535C17.7819 1.63338 17.9074 1.51172 18.0382 1.51172C18.174 1.51172 18.2948 1.62307 18.2948 1.76535C18.2948 1.90822 18.1793 2.029 18.0382 2.029Z"
    fill="#747474"
  ></path>
  <path
    d="M19.0961 3.54064C19.0961 3.34593 19.0381 3.29349 18.7924 3.19334V3.09318C19.0175 3.01924 19.2316 2.95119 19.4829 2.83984C19.4985 2.83984 19.5144 2.85104 19.5144 2.89287V3.23546C19.8131 3.01954 20.0691 2.83984 20.4206 2.83984C20.8645 2.83984 21.0218 3.16683 21.0218 3.57806V4.93724C21.0218 5.11163 21.137 5.11163 21.2837 5.11163H21.3779V5.2489C21.1944 5.2489 21.0115 5.23859 20.8229 5.23859C20.6344 5.23859 20.4459 5.2436 20.2577 5.2489V5.11163H20.3513C20.4986 5.11163 20.6023 5.11163 20.6023 4.93724V3.57305C20.6023 3.27228 20.4206 3.125 20.1219 3.125C19.9545 3.125 19.6873 3.26227 19.5141 3.37804V4.93724C19.5141 5.11163 19.6296 5.11163 19.7766 5.11163H19.8703V5.2489C19.6873 5.2489 19.5038 5.2383 19.315 5.2383C19.1268 5.2383 18.9382 5.2436 18.75 5.2489V5.11163H18.8443C18.991 5.11163 19.0958 5.11163 19.0958 4.93724V3.54064H19.0961Z"
    fill="#747474"
  ></path>
  <path
    d="M21.7759 3.79398C21.7647 3.8417 21.7647 3.92036 21.7759 4.09975C21.8069 4.60024 22.1265 5.01088 22.5445 5.01088C22.832 5.01088 23.0576 4.85299 23.2509 4.65827L23.3239 4.73221C23.083 5.0536 22.7846 5.32726 22.3568 5.32726C21.5241 5.32726 21.3564 4.5157 21.3564 4.1787C21.3564 3.14562 22.0475 2.83984 22.4137 2.83984C22.8373 2.83984 23.2927 3.1085 23.2977 3.66761C23.2977 3.69942 23.2977 3.73065 23.2927 3.76246L23.2453 3.79398H21.7759ZM22.7021 3.62548C22.8317 3.62548 22.8476 3.55655 22.8476 3.49381C22.8476 3.22515 22.6859 3.00893 22.3931 3.00893C22.0737 3.00893 21.8537 3.24577 21.7912 3.62548H22.7021Z"
    fill="#747474"
  ></path>
  <path
    d="M23.418 5.11192H23.5594C23.7052 5.11192 23.8101 5.11192 23.8101 4.93753V3.45728C23.8101 3.29379 23.6168 3.26227 23.5379 3.21985V3.1412C23.9199 2.97741 24.1297 2.84014 24.1771 2.84014C24.208 2.84014 24.2236 2.85605 24.2236 2.90907V3.38305H24.2345C24.365 3.17772 24.5842 2.83984 24.9032 2.83984C25.0337 2.83984 25.2013 2.92969 25.2013 3.1194C25.2013 3.26168 25.1027 3.38864 24.9563 3.38864C24.7931 3.38864 24.7931 3.26168 24.6104 3.26168C24.5212 3.26168 24.2292 3.38275 24.2292 3.69913V4.93694C24.2292 5.11134 24.3335 5.11133 24.4793 5.11133H24.7721V5.24861C24.4843 5.24301 24.2664 5.2383 24.0407 5.2383C23.8263 5.2383 23.6065 5.24331 23.4183 5.24861V5.11192H23.418Z"
    fill="#747474"
  ></path>
  <path
    d="M25.4315 4.5157C25.5001 4.86389 25.709 5.15906 26.0916 5.15906C26.4 5.15906 26.5152 4.96905 26.5152 4.78465C26.5152 4.16279 25.374 4.36311 25.374 3.51472C25.374 3.21955 25.6097 2.83984 26.1862 2.83984C26.3535 2.83984 26.5783 2.88757 26.7821 2.99332L26.8189 3.53033H26.6987C26.6463 3.19893 26.4637 3.00893 26.1279 3.00893C25.9178 3.00893 25.7193 3.13 25.7193 3.35683C25.7193 3.97367 26.9338 3.78338 26.9338 4.61055C26.9338 4.95845 26.6566 5.32726 26.0327 5.32726C25.8233 5.32726 25.5776 5.25391 25.3947 5.14875L25.3369 4.5425L25.4315 4.5157Z"
    fill="#747474"
  ></path>
  <path
    d="M31.6606 2.52557H31.5301C31.4306 1.9096 30.9961 1.66128 30.4102 1.66128C29.8077 1.66128 28.9331 2.06691 28.9331 3.33183C28.9331 4.39702 29.6879 5.16057 30.4935 5.16057C31.0114 5.16057 31.4412 4.80207 31.5458 4.24914L31.6654 4.28037L31.5458 5.04922C31.326 5.18678 30.7345 5.32877 30.3887 5.32877C29.1641 5.32877 28.3896 4.53312 28.3896 3.34744C28.3896 2.26693 29.3473 1.49219 30.373 1.49219C30.7966 1.49219 31.2055 1.62976 31.6082 1.77174L31.6606 2.52557Z"
    fill="#747474"
  ></path>
  <path
    d="M31.8496 5.11558H31.9483C32.0953 5.11558 32.2002 5.11558 32.2002 4.94119V2.0066C32.2002 1.66372 32.1215 1.65311 31.9227 1.59537V1.51142C32.1321 1.44308 32.3513 1.34793 32.462 1.2843C32.5189 1.25307 32.561 1.22656 32.5763 1.22656C32.6084 1.22656 32.619 1.25808 32.619 1.3005V4.94149C32.619 5.11588 32.7342 5.11588 32.8809 5.11588H32.969V5.25315C32.7923 5.25315 32.6087 5.24284 32.4205 5.24284C32.2323 5.24284 32.0437 5.24785 31.8499 5.25315V5.11558H31.8496Z"
    fill="#747474"
  ></path>
  <path
    d="M35.21 4.96124C35.21 5.05639 35.2674 5.06169 35.3564 5.06169C35.4191 5.06169 35.4975 5.05639 35.5658 5.05639V5.16715C35.3402 5.18777 34.911 5.29883 34.8114 5.33005L34.7855 5.31414V4.88789C34.4721 5.14594 34.2305 5.33005 33.8588 5.33005C33.5766 5.33005 33.2829 5.14594 33.2829 4.70348V3.35432C33.2829 3.21704 33.2622 3.08537 32.9697 3.05915V2.95899C33.1583 2.95369 33.5766 2.92188 33.644 2.92188C33.7026 2.92188 33.7026 2.95899 33.7026 3.07476V4.43394C33.7026 4.59243 33.7026 5.04578 34.1572 5.04578C34.3354 5.04578 34.5708 4.90851 34.7902 4.72469V3.30659C34.7902 3.20172 34.5389 3.14369 34.3513 3.09067V2.99611C34.8217 2.96459 35.1151 2.92217 35.1676 2.92217C35.21 2.92217 35.21 2.9587 35.21 3.01732V4.96124Z"
    fill="#747474"
  ></path>
  <path
    d="M36.252 3.2238C36.4612 3.0447 36.744 2.84409 37.0318 2.84409C37.6392 2.84409 38.0051 3.37728 38.0051 3.95082C38.0051 4.64102 37.5025 5.33151 36.7534 5.33151C36.3666 5.33151 36.1628 5.20513 36.0264 5.1474L35.8697 5.26817L35.7601 5.21073C35.8066 4.89966 35.8332 4.59388 35.8332 4.27279V2.00661C35.8332 1.66372 35.7542 1.65311 35.5557 1.59537V1.51142C35.7654 1.44308 35.9849 1.34793 36.0944 1.2843C36.1522 1.25278 36.194 1.22656 36.2108 1.22656C36.2414 1.22656 36.252 1.25808 36.252 1.3005V3.2238ZM36.252 4.65722C36.252 4.85753 36.4403 5.19482 36.7905 5.19482C37.3508 5.19482 37.5862 4.64102 37.5862 4.17234C37.5862 3.60322 37.1576 3.12895 36.749 3.12895C36.5552 3.12895 36.3929 3.25591 36.2518 3.37728V4.65722H36.252Z"
    fill="#747474"
  ></path>
  <path
    d="M13.6719 8.31798H13.7122C13.8147 8.31798 13.9229 8.30385 13.9229 8.1542V6.65215C13.9229 6.5025 13.8147 6.48836 13.7122 6.48836H13.6719V6.40234C13.7835 6.40234 13.9541 6.41354 14.0943 6.41354C14.2363 6.41354 14.4071 6.40234 14.5409 6.40234V6.48836H14.5011C14.3986 6.48836 14.2905 6.5025 14.2905 6.65215V8.1542C14.2905 8.30385 14.3986 8.31798 14.5011 8.31798H14.5409V8.4043C14.4045 8.4043 14.233 8.39281 14.0911 8.39281C13.9517 8.39281 13.7838 8.4043 13.6722 8.4043V8.31798H13.6719Z"
    fill="#747474"
  ></path>
  <path
    d="M14.5409 8.41371C14.4031 8.41371 14.2328 8.40222 14.0908 8.40222C13.9515 8.40222 13.7842 8.41371 13.6722 8.41371H13.6602V8.40163V8.31532V8.30295H13.6722H13.7123C13.8157 8.3 13.9097 8.29176 13.9105 8.15154V6.64948C13.9097 6.50897 13.8157 6.49984 13.7123 6.49777H13.6602V6.4857V6.38672H13.6722C13.7842 6.38672 13.955 6.3985 14.0944 6.3985C14.2358 6.3985 14.4063 6.38672 14.5412 6.38672H14.5539V6.39968V6.49777H14.5412H14.5012C14.3981 6.49984 14.3032 6.50897 14.3026 6.64948V8.15154C14.3032 8.29176 14.3978 8.3 14.5012 8.30295H14.5539V8.31532V8.41371H14.5409ZM14.5286 8.38926V8.32799H14.5009C14.399 8.32799 14.2782 8.31031 14.2776 8.15154V6.64948C14.2782 6.491 14.399 6.47303 14.5009 6.47303H14.5286V6.41235C14.3975 6.41235 14.2322 6.42325 14.0941 6.42325C13.9586 6.42325 13.7948 6.41294 13.6846 6.41235V6.47303H13.7117C13.8136 6.47303 13.935 6.491 13.935 6.64948V8.15154C13.935 8.31031 13.8136 8.32799 13.7117 8.32799H13.6846V8.38926C13.7948 8.38779 13.9559 8.37777 14.0905 8.37777C14.2296 8.37777 14.3945 8.38838 14.5286 8.38926Z"
    fill="#747474"
  ></path>
  <path
    d="M16.4979 7.83841L16.5038 7.83281V6.7579C16.5038 6.52253 16.3415 6.48836 16.2557 6.48836H16.193V6.40234C16.327 6.40234 16.4581 6.41354 16.5919 6.41354C16.7085 6.41354 16.8261 6.40234 16.9424 6.40234V6.48836H16.8994C16.7798 6.48836 16.6458 6.51104 16.6458 6.85246V8.15744C16.6458 8.2576 16.649 8.35775 16.6631 8.44672H16.5544L15.088 6.80061V7.98217C15.088 8.23167 15.1361 8.31769 15.3558 8.31769H15.4038V8.404C15.2816 8.404 15.1593 8.39251 15.0365 8.39251C14.9086 8.39251 14.7776 8.404 14.6494 8.404V8.31769H14.6895C14.886 8.31769 14.9458 8.18307 14.9458 7.95389V6.74582C14.9458 6.58528 14.8141 6.48836 14.6868 6.48836H14.6494V6.40234C14.7578 6.40234 14.8686 6.41354 14.9767 6.41354C15.0624 6.41354 15.1449 6.40234 15.2303 6.40234L16.4979 7.83841Z"
    fill="#747474"
  ></path>
  <path
    d="M16.6625 8.45613L16.5453 8.452L15.1001 6.83006V7.97891C15.1033 8.22813 15.1413 8.29912 15.3555 8.30206H15.4165V8.31444V8.41283H15.4038C15.2807 8.41283 15.1578 8.40134 15.0365 8.40134C14.9089 8.40134 14.7781 8.41283 14.6494 8.41283H14.6367V8.40075V8.30206H14.6494H14.6894C14.8777 8.30089 14.9313 8.17923 14.9337 7.95063V6.74316C14.9331 6.59027 14.8088 6.49748 14.6868 6.49719H14.6367V6.48452V6.38672H14.6494C14.7581 6.38672 14.8697 6.39791 14.9764 6.39791C15.0612 6.39791 15.1434 6.38672 15.2397 6.39114L16.4914 7.80924V6.75465C16.4899 6.52694 16.3385 6.49925 16.2557 6.49719H16.1803V6.48452V6.38672H16.193C16.3276 6.38672 16.4587 6.39791 16.5918 6.39791C16.7079 6.39791 16.8243 6.38672 16.9421 6.38672H16.9545V6.39909V6.49719H16.9421H16.8994C16.7821 6.50072 16.6611 6.51103 16.6578 6.84921V8.15389C16.6578 8.25434 16.6611 8.3545 16.6749 8.44169L16.6776 8.45613H16.6625ZM16.5544 8.4308H16.6487C16.6357 8.34507 16.6334 8.24934 16.6334 8.15419V6.8495C16.6334 6.50514 16.7765 6.47274 16.8991 6.47274H16.9294V6.41205C16.8169 6.41264 16.7047 6.42295 16.5915 6.42295C16.4613 6.42295 16.3344 6.41264 16.2053 6.41205L16.2051 6.47274H16.2554C16.3429 6.47274 16.5161 6.51221 16.5161 6.75494L16.512 7.83869L16.5058 7.84488L16.4967 7.85342L15.2303 6.41176C15.1457 6.41176 15.0633 6.42266 14.9767 6.42266C14.8721 6.42266 14.7649 6.41235 14.6621 6.41176L14.6615 6.47244H14.6868C14.8202 6.47244 14.9575 6.57525 14.9575 6.74316V7.95063C14.9575 8.17981 14.8942 8.32651 14.6894 8.32769L14.6621 8.32651V8.38838C14.7855 8.3869 14.9124 8.37659 15.0365 8.37659C15.1555 8.37659 15.2742 8.3869 15.3914 8.38838V8.32799H15.3555C15.1313 8.32681 15.0756 8.22842 15.0756 7.97921V6.76525L16.5544 8.4308ZM16.4979 7.83545L16.507 7.8275L16.4979 7.83545ZM16.4911 7.82986V7.82897L16.4887 7.82662L16.4911 7.82986Z"
    fill="#747474"
  ></path>
  <path
    d="M17.3682 6.54433C17.1546 6.54433 17.1467 6.59618 17.1043 6.80533H17.0186C17.0297 6.7255 17.0439 6.64537 17.0524 6.56171C17.0639 6.48159 17.0695 6.40146 17.0695 6.3181H17.1382C17.1608 6.40441 17.2318 6.40146 17.3093 6.40146H18.7784C18.8552 6.40146 18.9262 6.39881 18.9321 6.3125L19.0002 6.32369C18.9893 6.40146 18.9775 6.47864 18.9692 6.55612C18.9639 6.63359 18.9639 6.71077 18.9639 6.78795L18.8782 6.82006C18.872 6.7143 18.8579 6.54404 18.6673 6.54404H18.2001V8.06995C18.2001 8.29089 18.3 8.31651 18.4361 8.31651H18.4906V8.40283C18.3795 8.40283 18.1798 8.39134 18.0266 8.39134C17.856 8.39134 17.656 8.40283 17.5447 8.40283V8.31651H17.5995C17.7562 8.31651 17.8354 8.30208 17.8354 8.07614V6.54433H17.3682Z"
    fill="#747474"
  ></path>
  <path
    d="M18.4906 8.41069C18.3784 8.41069 18.179 8.3992 18.0261 8.3992C17.8555 8.3992 17.6564 8.41069 17.5442 8.41069H17.533V8.39861V8.29993H17.5445H17.5992C17.7563 8.29551 17.819 8.29374 17.8231 8.07193V6.5522H17.368V6.53982V6.52716H17.8476V8.07163C17.8476 8.3017 17.7554 8.32467 17.5992 8.32526H17.5571V8.38506C17.6694 8.38447 17.8608 8.37446 18.0264 8.37446C18.1751 8.37446 18.3652 8.38447 18.478 8.38506V8.32556H18.4361C18.2986 8.32497 18.1875 8.29109 18.1875 8.06574V6.52716H18.6671C18.858 6.52804 18.883 6.69183 18.8895 6.79817L18.9511 6.77549C18.9511 6.70037 18.9511 6.62555 18.957 6.54984C18.9649 6.4759 18.9755 6.40285 18.9861 6.33009L18.9425 6.32243C18.9296 6.40609 18.8494 6.41021 18.7782 6.40962H17.3091H17.2944C17.2272 6.40962 17.1538 6.40609 17.1285 6.32596H17.0814C17.0808 6.4055 17.0755 6.48238 17.0646 6.55868C17.056 6.63762 17.0431 6.71333 17.0325 6.78874H17.0935C17.1312 6.58902 17.1556 6.52421 17.368 6.52716V6.53982V6.5522C17.1577 6.55662 17.1621 6.59197 17.1158 6.80377L17.1138 6.81349H17.1041H17.0039L17.0057 6.79846C17.0172 6.71863 17.0316 6.63821 17.0398 6.55485C17.0516 6.47531 17.0575 6.39578 17.0575 6.31329V6.30092H17.0693H17.148L17.1497 6.30976C17.1692 6.38223 17.2222 6.38252 17.2947 6.3837H17.3094H18.7784C18.8577 6.38252 18.9154 6.38164 18.9198 6.30622L18.921 6.29297L18.9337 6.29591L19.0141 6.30829L19.0123 6.32066C19.0009 6.39784 18.99 6.47531 18.9817 6.5519C18.9755 6.62879 18.9755 6.70597 18.9755 6.78315V6.79228L18.9682 6.79581L18.8668 6.83234L18.8662 6.81555C18.8586 6.70803 18.8474 6.55161 18.6674 6.55161H18.2126V8.06515C18.2155 8.28108 18.3006 8.29639 18.4361 8.29934H18.5033V8.31142V8.4101H18.4906V8.41069Z"
    fill="#747474"
  ></path>
  <path
    d="M19.0918 8.31798H19.1316C19.2344 8.31798 19.3428 8.30385 19.3428 8.1542V6.65215C19.3428 6.5025 19.2344 6.48836 19.1316 6.48836H19.0918V6.40234C19.2656 6.40234 19.5619 6.41354 19.8003 6.41354C20.0403 6.41354 20.3361 6.40234 20.5296 6.40234C20.5246 6.52548 20.5273 6.71548 20.5358 6.84068L20.4501 6.86365C20.4363 6.67748 20.4021 6.52872 20.1031 6.52872H19.7072V7.2796H20.0462C20.2165 7.2796 20.2539 7.18239 20.271 7.02714H20.3558C20.3502 7.13938 20.3479 7.25102 20.3479 7.36296C20.3479 7.47196 20.3505 7.58095 20.3558 7.68965L20.271 7.70674C20.2539 7.5347 20.2454 7.42335 20.0486 7.42335H19.7075V8.09145C19.7075 8.27792 19.8721 8.27792 20.0542 8.27792C20.3965 8.27792 20.547 8.25465 20.6327 7.92796L20.7126 7.9477C20.6749 8.10029 20.6416 8.2517 20.6162 8.404C20.4339 8.404 20.106 8.39251 19.85 8.39251C19.5929 8.39251 19.2544 8.404 19.0921 8.404V8.31798H19.0918Z"
    fill="#747474"
  ></path>
  <path
    d="M20.6147 8.41312C20.4324 8.41312 20.1045 8.40134 19.8485 8.40134C19.592 8.40134 19.2538 8.41312 19.0912 8.41312H19.0791V8.40104V8.31473V8.30236H19.0912H19.1309C19.2346 8.30059 19.328 8.29117 19.3295 8.15095V6.64889C19.328 6.50897 19.2346 6.49925 19.1309 6.49719H19.0791V6.48511V6.38672H19.0912C19.265 6.38672 19.5613 6.39791 19.7996 6.39791C20.0391 6.39791 20.3343 6.38672 20.529 6.38672H20.5417L20.5411 6.39909C20.5393 6.44269 20.5384 6.49336 20.5384 6.54756C20.5384 6.64683 20.5411 6.75524 20.5467 6.83683L20.5473 6.84714L20.5379 6.85009L20.4374 6.87631L20.4368 6.86128C20.42 6.67511 20.3956 6.54019 20.1022 6.53754H19.7186L19.718 7.26338H20.0453C20.2088 7.26162 20.2383 7.17707 20.2577 7.02301L20.2589 7.01152H20.2701H20.3682L20.3679 7.02477C20.3623 7.13613 20.3585 7.24777 20.3585 7.35971C20.3585 7.46841 20.3626 7.57711 20.3679 7.6861L20.3682 7.69641L20.3579 7.69847L20.2589 7.71851L20.2577 7.70496C20.2383 7.52998 20.2368 7.43394 20.0477 7.43188H19.7183V8.08791C19.7186 8.262 19.8677 8.26082 20.0533 8.262C20.3962 8.25965 20.5343 8.24344 20.62 7.92118L20.6227 7.90998L20.6348 7.91204L20.7264 7.93532L20.7234 7.94739C20.6866 8.0994 20.6524 8.25081 20.6268 8.40281L20.6245 8.41283H20.6147V8.41312ZM20.6044 8.38779C20.6292 8.24374 20.6616 8.09881 20.6966 7.95387L20.641 7.93973C20.5552 8.26082 20.39 8.2891 20.0539 8.28704C19.8751 8.28704 19.6951 8.28704 19.6945 8.0882V7.40714H20.0483C20.2468 7.40507 20.2671 7.52585 20.2816 7.68934L20.3428 7.67638C20.3375 7.57092 20.3349 7.46487 20.3349 7.35971C20.3349 7.25189 20.3378 7.14437 20.3428 7.03656H20.2816C20.2657 7.18561 20.2191 7.29048 20.0459 7.28842H19.6945V6.51221H20.1028C20.3991 6.51015 20.4483 6.66421 20.461 6.8442L20.5225 6.8277C20.5172 6.74699 20.514 6.643 20.514 6.54726C20.514 6.49836 20.5152 6.45182 20.5169 6.41146C20.3234 6.41205 20.0347 6.42236 19.8002 6.42236C19.5663 6.42236 19.2785 6.41205 19.1038 6.41146V6.47215H19.1315C19.2335 6.47215 19.3548 6.49012 19.3548 6.6486V8.15065C19.3548 8.30884 19.2335 8.32651 19.1315 8.32769H19.1036V8.38749C19.2697 8.38749 19.599 8.37689 19.8488 8.37689C20.1004 8.37718 20.4203 8.38779 20.6044 8.38779Z"
    fill="#747474"
  ></path>
  <path
    d="M21.096 6.70635C21.096 6.4972 20.9823 6.48865 20.8936 6.48865H20.8418V6.40234C20.9334 6.40234 21.1093 6.41383 21.2837 6.41383C21.4545 6.41383 21.5915 6.40234 21.742 6.40234C22.1008 6.40234 22.4204 6.50014 22.4204 6.90755C22.4204 7.16501 22.2496 7.32319 22.0245 7.41216L22.5112 8.14566C22.591 8.26673 22.6473 8.3009 22.7866 8.31769V8.4043C22.6935 8.4043 22.6019 8.39281 22.5085 8.39281C22.4204 8.39281 22.3285 8.4043 22.2407 8.4043C22.0216 8.11443 21.8333 7.80512 21.6481 7.4752H21.461V8.0888C21.461 8.30974 21.5632 8.31798 21.6937 8.31798H21.7453V8.4043C21.5824 8.4043 21.418 8.39281 21.2551 8.39281C21.1187 8.39281 20.9847 8.4043 20.8421 8.4043V8.31798H20.8939C20.9994 8.31798 21.0963 8.26967 21.0963 8.16333V6.70635H21.096ZM21.4613 7.37151H21.6C21.8849 7.37151 22.0387 7.26281 22.0387 6.92375C22.0387 6.66923 21.8761 6.50545 21.6224 6.50545C21.5373 6.50545 21.5011 6.51428 21.4613 6.51723V7.37151Z"
    fill="#747474"
  ></path>
  <path
    d="M22.7864 8.41312C22.6915 8.41312 22.6011 8.40163 22.5077 8.40163C22.4208 8.40163 22.3298 8.41312 22.2308 8.40811C22.0122 8.11972 21.8252 7.81218 21.6411 7.48402H21.4726V8.08496C21.4761 8.30059 21.5618 8.29882 21.6935 8.30206H21.7574V8.31444V8.41283H21.7447C21.5818 8.41283 21.4169 8.40134 21.2552 8.40134C21.1188 8.40134 20.9859 8.41283 20.8422 8.41283H20.8301V8.40075V8.30206H20.8422H20.894C20.9965 8.30118 21.0831 8.25641 21.0834 8.15978V6.7031C21.0814 6.49954 20.9827 6.50043 20.894 6.49748H20.8301V6.4854V6.38672H20.8422C20.9347 6.38672 21.1108 6.39821 21.284 6.39821C21.4543 6.39821 21.5907 6.38672 21.7427 6.38672C22.1018 6.38731 22.4326 6.48717 22.4332 6.90341C22.4332 7.16234 22.2629 7.32436 22.0437 7.41421L22.5218 8.13563C22.6017 8.25434 22.6512 8.2841 22.789 8.30206L22.799 8.30354V8.31444V8.41283H22.7864V8.41312ZM21.4602 7.45898H21.6546L21.6581 7.46517C21.844 7.79451 22.0311 8.10381 22.2405 8.38838C22.3277 8.38838 22.4187 8.37659 22.5077 8.37659C22.5987 8.37659 22.6862 8.38661 22.7743 8.38808V8.32504C22.6414 8.30796 22.5787 8.26819 22.5009 8.14918L22.0049 7.40242L22.0193 7.39653C22.242 7.30816 22.407 7.15498 22.407 6.90282C22.407 6.50514 22.0997 6.41264 21.7418 6.41146C21.5916 6.41146 21.4546 6.42236 21.2831 6.42236C21.1158 6.42236 20.947 6.41205 20.8539 6.41146V6.47215H20.8931C20.9818 6.47215 21.1073 6.48688 21.1073 6.70251V8.15919C21.1073 8.27467 21.0003 8.3271 20.8931 8.3271H20.8539V8.38749C20.9906 8.3869 21.1205 8.376 21.2543 8.376C21.4136 8.376 21.5742 8.3869 21.7318 8.38749V8.32799H21.6926C21.563 8.32799 21.4469 8.3112 21.4469 8.08496V7.45898H21.4602ZM21.4602 7.38063H21.4475V6.50249L21.4584 6.5019C21.4976 6.49866 21.5362 6.49041 21.6219 6.49041C21.882 6.49041 22.0505 6.66009 22.0505 6.92167C22.0499 7.26397 21.8864 7.38062 21.5995 7.38092H21.4602V7.38063ZM21.5992 7.35559C21.8817 7.35352 22.0228 7.25484 22.0261 6.92138C22.0243 6.67069 21.8699 6.51545 21.6216 6.51457C21.5444 6.51457 21.5082 6.52134 21.472 6.52488V7.35529H21.5992V7.35559Z"
    fill="#747474"
  ></path>
  <path
    d="M24.7198 7.83841L24.7248 7.83281V6.7579C24.7248 6.52253 24.5625 6.48836 24.4773 6.48836H24.4158V6.40234C24.5486 6.40234 24.6794 6.41354 24.8134 6.41354C24.9304 6.41354 25.047 6.40234 25.1643 6.40234V6.48836H25.1213C25.0017 6.48836 24.8682 6.51104 24.8682 6.85246V8.15744C24.8682 8.2576 24.8712 8.35775 24.8847 8.44672H24.7769L23.3111 6.80061V7.98217C23.3111 8.23167 23.3597 8.31769 23.5789 8.31769H23.6272V8.404C23.5052 8.404 23.3824 8.39251 23.2604 8.39251C23.1314 8.39251 23.0003 8.404 22.873 8.404V8.31769H22.9122C23.109 8.31769 23.1688 8.18307 23.1688 7.95389V6.74582C23.1688 6.58528 23.038 6.48836 22.9099 6.48836H22.873V6.40234C22.9806 6.40234 23.0925 6.41354 23.2003 6.41354C23.2849 6.41354 23.3682 6.40234 23.454 6.40234L24.7198 7.83841Z"
    fill="#747474"
  ></path>
  <path
    d="M24.8843 8.45672L24.7671 8.45259L23.3233 6.83065V7.9795C23.3269 8.22871 23.3643 8.29971 23.5793 8.30265H23.6391V8.31503V8.41342H23.6262C23.5039 8.41342 23.3817 8.40163 23.2594 8.40163C23.1319 8.40163 23.0005 8.41342 22.8726 8.41342H22.8594V8.40134V8.30265H22.8726H22.9118C23.0995 8.30177 23.154 8.17982 23.1557 7.95063V6.74316C23.1551 6.59057 23.0308 6.49777 22.9095 6.49777H22.8594V6.4857V6.38672H22.8726C22.9807 6.38672 23.0924 6.3985 23.1999 6.3985C23.2833 6.3985 23.366 6.38672 23.4615 6.39084L24.712 7.80983V6.75494C24.7114 6.52723 24.56 6.49925 24.4766 6.49777H24.4033V6.4857V6.38672H24.4156C24.5488 6.38672 24.6799 6.3985 24.8133 6.3985C24.9297 6.3985 25.0463 6.38672 25.1636 6.38672H25.1756V6.39968V6.49777H25.1636H25.1209C25.0036 6.50102 24.8822 6.51162 24.8793 6.8498V8.15448C24.8793 8.25493 24.8822 8.3545 24.8967 8.44258L24.8982 8.45672H24.8843ZM24.7762 8.43138H24.8693C24.8572 8.34566 24.8546 8.24992 24.8546 8.15478V6.85009C24.8546 6.50573 24.9986 6.47391 25.1206 6.47332H25.1506V6.41264C25.039 6.41323 24.9258 6.42354 24.813 6.42354C24.6825 6.42354 24.5556 6.41323 24.4262 6.41264V6.47332H24.4763C24.5644 6.47391 24.737 6.5128 24.737 6.75524L24.7329 7.83928L24.7276 7.84547L24.719 7.8546L23.4521 6.41264C23.3681 6.41264 23.2859 6.42354 23.1996 6.42354C23.0939 6.42354 22.9872 6.41323 22.8838 6.41264V6.47332H22.9092C23.0429 6.47391 23.1802 6.57554 23.1802 6.74345V7.95093C23.1802 8.1807 23.1157 8.3274 22.9115 8.32858L22.8838 8.32799V8.38838C23.0067 8.38779 23.1339 8.37777 23.2588 8.37777C23.3781 8.37777 23.4965 8.38779 23.6141 8.38838V8.32858H23.5787C23.3543 8.32799 23.298 8.22901 23.2974 7.9798V6.76672L24.7762 8.43138ZM24.7196 7.83604L24.7279 7.82809L24.7196 7.83604ZM24.712 7.83045V7.82986L24.7099 7.82721L24.712 7.83045Z"
    fill="#747474"
  ></path>
  <path
    d="M25.6228 7.99161C25.5936 8.08911 25.5592 8.16394 25.5592 8.21519C25.5592 8.3015 25.679 8.31564 25.773 8.31564H25.8042V8.40195C25.6905 8.39577 25.5739 8.39047 25.4593 8.39047C25.3568 8.39047 25.2552 8.39577 25.1523 8.40195V8.31564H25.1694C25.2805 8.31564 25.3747 8.24936 25.4169 8.12888L25.8732 6.81329C25.91 6.70695 25.9618 6.56349 25.9786 6.45686C26.0694 6.42592 26.1842 6.36848 26.2379 6.33402C26.2467 6.33107 26.2517 6.32813 26.2602 6.32813C26.2694 6.32813 26.2747 6.32812 26.2809 6.33696C26.2891 6.35935 26.2971 6.38557 26.3068 6.40825L26.8303 7.90824C26.8641 8.0084 26.898 8.11445 26.9348 8.20076C26.9696 8.28088 27.0297 8.31535 27.1237 8.31535H27.1407V8.40166C27.0126 8.39547 26.8845 8.39017 26.7478 8.39017C26.6081 8.39017 26.4653 8.39547 26.3203 8.40166V8.31535H26.3522C26.4173 8.31535 26.5283 8.30386 26.5283 8.23228C26.5283 8.19516 26.503 8.11798 26.4709 8.02578L26.3604 7.6929H25.7132L25.6228 7.99161ZM26.0384 6.72139H26.0322L25.7677 7.53265H26.3003L26.0384 6.72139Z"
    fill="#747474"
  ></path>
  <path
    d="M27.1395 8.41471C27.0114 8.40882 26.8833 8.40293 26.7475 8.40293C26.6078 8.40293 26.4664 8.40911 26.3203 8.41471L26.3071 8.41589V8.40263V8.30307H26.32H26.3512C26.4175 8.30307 26.5153 8.28834 26.5153 8.23355C26.5159 8.20085 26.4903 8.12161 26.4591 8.03058L26.351 7.70655H25.7217L25.6334 7.99582C25.6045 8.09391 25.57 8.16962 25.5706 8.21617C25.5718 8.28627 25.6778 8.30307 25.7727 8.30307H25.8163V8.31632V8.41589L25.8033 8.41471C25.6893 8.40882 25.573 8.40293 25.4596 8.40293C25.3576 8.40293 25.2548 8.40911 25.1526 8.41471L25.1396 8.41589V8.40263V8.30307H25.152H25.1691C25.2749 8.30307 25.3635 8.24238 25.4045 8.12573L25.8605 6.80956C25.8982 6.70351 25.9497 6.56034 25.9742 6.44575C26.0634 6.41541 26.1783 6.35767 26.2331 6.32291C26.2411 6.32026 26.2493 6.31643 26.2608 6.31643C26.2676 6.31614 26.2829 6.3182 26.292 6.33322C26.2997 6.35708 26.3091 6.38271 26.3177 6.40569L26.8423 7.90539C26.8759 8.00584 26.9098 8.11218 26.9466 8.19672C26.9802 8.27302 27.0323 8.30307 27.1239 8.30307H27.1537V8.31632V8.41589L27.1395 8.41471ZM26.3327 8.38879C26.4735 8.38378 26.6114 8.37848 26.7475 8.37848C26.8797 8.37848 27.0037 8.38407 27.1275 8.38879V8.32958H27.1233C27.0261 8.32987 26.9587 8.29158 26.9236 8.20644C26.8865 8.11954 26.8517 8.0132 26.8179 7.91304L26.2944 6.41364C26.2856 6.39067 26.277 6.36445 26.2697 6.34471C26.2673 6.34177 26.2679 6.34176 26.2655 6.34176H26.2602C26.2543 6.34176 26.2511 6.34324 26.2431 6.3453C26.1881 6.38124 26.0741 6.4378 25.9892 6.45989C25.9718 6.56859 25.9209 6.71176 25.8835 6.8181L25.428 8.13427C25.3841 8.25858 25.2846 8.32987 25.1688 8.32987H25.1641V8.38908C25.2616 8.38407 25.3603 8.37877 25.4593 8.37877C25.5691 8.37877 25.6817 8.38437 25.7907 8.38908V8.32958H25.7721C25.6796 8.3281 25.5497 8.31779 25.5462 8.21617C25.5462 8.15902 25.5815 8.08567 25.6092 7.98905L25.6219 7.99258L25.6092 7.98846L25.7023 7.6818H26.3675L26.4815 8.02292C26.5136 8.11483 26.5395 8.19083 26.5395 8.23325C26.5357 8.32133 26.4155 8.32722 26.3507 8.32958H26.3327V8.38879ZM25.75 7.54571L26.0225 6.7091H26.0316H26.0378V6.72177L26.0343 6.72236L26.0378 6.72177V6.7094H26.0455L26.3168 7.546H25.75V7.54571ZM25.7833 7.52067H26.2823L26.0343 6.75241L25.7833 7.52067ZM26.0254 6.72531L26.0316 6.72324L26.0254 6.72531Z"
    fill="#747474"
  ></path>
  <path
    d="M27.265 6.54433C27.0517 6.54433 27.0432 6.59618 27.0008 6.80533H26.915C26.9259 6.7255 26.9404 6.64537 26.9495 6.56171C26.961 6.48159 26.9663 6.40146 26.9663 6.3181H27.0346C27.0573 6.40441 27.1289 6.40146 27.2055 6.40146H28.6754C28.752 6.40146 28.823 6.39881 28.8289 6.3125L28.8967 6.32369C28.8858 6.40146 28.8749 6.47864 28.866 6.55612C28.8598 6.63359 28.8598 6.71077 28.8598 6.78795L28.775 6.82006C28.7691 6.7143 28.7556 6.54404 28.5644 6.54404H28.0972V8.06995C28.0972 8.29089 28.1973 8.31651 28.3331 8.31651H28.3876V8.40283C28.2769 8.40283 28.0777 8.39134 27.9237 8.39134C27.7534 8.39134 27.5531 8.40283 27.442 8.40283V8.31651H27.4959C27.6527 8.31651 27.7334 8.30208 27.7334 8.07614V6.54433H27.265Z"
    fill="#747474"
  ></path>
  <path
    d="M28.3874 8.41069C28.2755 8.41069 28.0763 8.3992 27.9235 8.3992C27.7532 8.3992 27.5535 8.41069 27.4418 8.41069H27.4292V8.39861V8.29993H27.4418H27.4957C27.6524 8.29551 27.7158 8.29374 27.7199 8.07193L27.7193 6.55249H27.2651V6.54012V6.52745H27.7449V8.07193C27.7449 8.30199 27.6524 8.32438 27.4957 8.32497H27.4536V8.38624C27.5667 8.38477 27.7582 8.37475 27.9235 8.37475C28.0719 8.37475 28.2625 8.38477 28.375 8.38624V8.32497H28.3329C28.1959 8.32438 28.0846 8.29139 28.0846 8.06574V6.52716H28.5642C28.7551 6.52804 28.7801 6.69183 28.7857 6.79817L28.8478 6.77549C28.8478 6.70037 28.8478 6.62555 28.8537 6.55014C28.8617 6.4762 28.8723 6.40285 28.8832 6.33009L28.8402 6.32243C28.8272 6.40609 28.7465 6.41051 28.6755 6.40962H27.2056H27.1911C27.1237 6.41021 27.0509 6.40609 27.0253 6.32567H26.9787C26.9782 6.4055 26.9726 6.48238 26.9614 6.55868C26.9543 6.63792 26.9399 6.71363 26.9293 6.78874H26.9905C27.0279 6.58902 27.0527 6.52421 27.2654 6.52716V6.53982V6.5522C27.0545 6.55632 27.0592 6.59197 27.0126 6.80377L27.0103 6.81349H27.0011H26.9004L26.9027 6.79935C26.9142 6.71834 26.929 6.63821 26.9372 6.55544C26.9481 6.47561 26.954 6.39607 26.954 6.31329V6.30092H26.9661H27.0438L27.0462 6.30976C27.0662 6.38223 27.1181 6.38252 27.1911 6.3837L27.2056 6.38429H28.6755C28.7545 6.38252 28.8116 6.38164 28.8166 6.30652L28.8172 6.29297L28.8302 6.29591L28.9112 6.30829L28.9091 6.32066C28.8973 6.39784 28.8864 6.47531 28.8779 6.5519C28.872 6.62879 28.872 6.70626 28.872 6.78315V6.79228L28.8643 6.79581L28.7633 6.83234L28.7621 6.81555C28.7553 6.70803 28.7436 6.55161 28.5642 6.55161H28.1096V8.06515C28.112 8.28108 28.1971 8.29639 28.3329 8.29934H28.3998V8.31171V8.4101H28.3874V8.41069Z"
    fill="#747474"
  ></path>
  <path
    d="M29.002 8.31798H29.0423C29.1454 8.31798 29.2526 8.30385 29.2526 8.1542V6.65215C29.2526 6.5025 29.1454 6.48836 29.0423 6.48836H29.002V6.40234C29.1133 6.40234 29.2839 6.41354 29.4232 6.41354C29.5658 6.41354 29.7366 6.40234 29.871 6.40234V6.48836H29.8312C29.7287 6.48836 29.6194 6.5025 29.6194 6.65215V8.1542C29.6194 8.30385 29.7287 8.31798 29.8312 8.31798H29.871V8.4043C29.734 8.4043 29.5625 8.39281 29.4208 8.39281C29.2812 8.39281 29.1136 8.4043 29.0022 8.4043V8.31798H29.002Z"
    fill="#747474"
  ></path>
  <path
    d="M29.8713 8.41312C29.7337 8.41312 29.5629 8.40134 29.4212 8.40134C29.2819 8.40134 29.114 8.41312 29.0026 8.41312H28.9902V8.40104V8.31473V8.30236H29.0026H29.043C29.1461 8.30059 29.24 8.29175 29.2403 8.15095V6.64889C29.24 6.50897 29.1461 6.49925 29.043 6.49719H28.9902V6.48511V6.38672H29.0026C29.114 6.38672 29.2848 6.39791 29.4239 6.39791C29.5658 6.39791 29.737 6.38672 29.8716 6.38672H29.8837V6.39909V6.49719H29.8716H29.8318C29.7276 6.49925 29.6339 6.50897 29.6327 6.64889V8.15095C29.6339 8.29175 29.7276 8.30059 29.8318 8.30236H29.8837V8.31473V8.41312H29.8713ZM29.8589 8.38779V8.3274H29.8315C29.729 8.3274 29.6083 8.30913 29.6083 8.15095V6.64889C29.6083 6.49041 29.729 6.47244 29.8315 6.47244H29.8589V6.41176C29.7273 6.41235 29.5623 6.42266 29.4236 6.42266C29.2886 6.42266 29.1254 6.41235 29.015 6.41176V6.47244H29.0427C29.144 6.47244 29.2648 6.49041 29.2654 6.64889V8.15095C29.2648 8.30913 29.144 8.3274 29.0427 8.3274H29.015V8.38779C29.1249 8.3869 29.286 8.37718 29.4209 8.37718C29.5597 8.37718 29.7243 8.3872 29.8589 8.38779Z"
    fill="#747474"
  ></path>
  <path
    d="M31.0066 6.35938C31.614 6.35938 32.0977 6.7385 32.0977 7.34916C32.0977 8.00842 31.6282 8.44705 31.0219 8.44705C30.4178 8.44705 29.957 8.03435 29.957 7.4175C29.9567 6.82157 30.4148 6.35938 31.0066 6.35938ZM31.0496 8.32068C31.6025 8.32068 31.6986 7.82991 31.6986 7.4119C31.6986 6.99272 31.4741 6.48516 31.001 6.48516C30.5029 6.48516 30.355 6.93292 30.355 7.31646C30.355 7.82991 30.5883 8.32068 31.0496 8.32068Z"
    fill="#747474"
  ></path>
  <path
    d="M29.9434 7.41454C29.9448 6.81124 30.4082 6.34493 31.0062 6.34375V6.35642V6.36849C30.4215 6.36849 29.9681 6.82421 29.9672 7.41454C29.9687 8.02432 30.4232 8.43083 31.0215 8.43113C31.6216 8.43083 32.0846 7.99869 32.0858 7.34532C32.0852 6.74261 31.6083 6.36938 31.0062 6.36849V6.35642V6.34375C31.618 6.34434 32.1082 6.727 32.11 7.34532C32.1094 8.01165 31.6331 8.45499 31.0215 8.45617C30.4126 8.45499 29.9448 8.03816 29.9434 7.41454ZM30.3428 7.3138C30.3434 6.92819 30.493 6.46953 31.0012 6.46953C31.4846 6.47101 31.7102 6.98799 31.7114 7.40894C31.7102 7.82695 31.6127 8.32979 31.0495 8.32979V8.31772V8.30564C31.5912 8.30446 31.6852 7.82695 31.6867 7.40894C31.6867 6.99329 31.464 6.49546 31.0012 6.49487C30.5125 6.49546 30.3681 6.93173 30.3673 7.3135C30.3678 7.8243 30.5988 8.30417 31.0495 8.30534V8.31742V8.3295C30.5773 8.32921 30.3434 7.83019 30.3428 7.3138Z"
    fill="#747474"
  ></path>
  <path
    d="M34.0168 7.83841L34.023 7.83281V6.7579C34.023 6.52253 33.8598 6.48836 33.7747 6.48836H33.7128V6.40234C33.8466 6.40234 33.9774 6.41354 34.1108 6.41354C34.2277 6.41354 34.3444 6.40234 34.4616 6.40234V6.48836H34.4186C34.2996 6.48836 34.1656 6.51104 34.1656 6.85246V8.15744C34.1656 8.2576 34.168 8.35775 34.1827 8.44672H34.0749L32.6079 6.80061V7.98217C32.6079 8.23167 32.6556 8.31769 32.8753 8.31769H32.9237V8.404C32.8011 8.404 32.6792 8.39251 32.5566 8.39251C32.4282 8.39251 32.2971 8.404 32.1689 8.404V8.31769H32.209C32.4061 8.31769 32.4653 8.18307 32.4653 7.95389V6.74582C32.4653 6.58528 32.3351 6.48836 32.2061 6.48836H32.1689V6.40234C32.2771 6.40234 32.3884 6.41354 32.4968 6.41354C32.5819 6.41354 32.6641 6.40234 32.7499 6.40234L34.0168 7.83841Z"
    fill="#747474"
  ></path>
  <path
    d="M34.1824 8.45583L34.0645 8.45171L32.6193 6.82976V7.97862C32.6229 8.22783 32.6603 8.29853 32.8741 8.30089H32.9357V8.31414V8.41253H32.923C32.7999 8.41253 32.6777 8.40104 32.556 8.40104C32.4281 8.40104 32.2974 8.41253 32.1683 8.41253H32.1562V8.40045V8.30118H32.1683H32.2084C32.3963 8.30089 32.4502 8.17923 32.4526 7.95063V6.74257C32.4526 6.58998 32.3283 6.49719 32.2054 6.49719H32.1562V6.48511V6.38672H32.1683C32.2776 6.38672 32.3884 6.39791 32.4956 6.39791C32.5801 6.39791 32.6623 6.38672 32.7587 6.39114L34.0103 7.80924V6.75465C34.0094 6.52694 33.8574 6.49925 33.7747 6.49719H33.6995V6.48511V6.38672H33.7122C33.8462 6.38672 33.9773 6.39791 34.1105 6.39791C34.2271 6.39791 34.3435 6.38672 34.4613 6.38672H34.4734V6.39909V6.49719H34.4613H34.4183C34.3011 6.50072 34.1794 6.51133 34.1776 6.84921V8.15389C34.1776 8.25434 34.1797 8.35421 34.1936 8.44199L34.1962 8.45613H34.1824V8.45583ZM34.0742 8.4305H34.1673C34.1547 8.34478 34.1529 8.24904 34.1529 8.15389V6.84921C34.1529 6.50396 34.2961 6.47303 34.418 6.47244H34.4487V6.41176C34.3361 6.41235 34.2236 6.42266 34.1102 6.42266C33.9806 6.42266 33.853 6.41235 33.724 6.41176V6.47244H33.7741C33.8622 6.47303 34.0336 6.5125 34.0336 6.75465L34.0312 7.8384L34.0253 7.84459L34.0162 7.85372L32.7486 6.41176C32.6647 6.41176 32.5819 6.42266 32.4956 6.42266C32.3907 6.42266 32.2838 6.41235 32.1798 6.41176V6.47244H32.2049C32.3386 6.47303 32.4765 6.57466 32.4765 6.74257V7.95063C32.4765 8.17981 32.4128 8.32651 32.2084 8.32769L32.1798 8.3271V8.38749C32.3035 8.3869 32.4305 8.37689 32.5554 8.37689C32.6738 8.37689 32.7919 8.3869 32.9104 8.38749V8.32769H32.8735C32.65 8.3271 32.5943 8.22813 32.5943 7.97891V6.76496L34.0742 8.4305ZM34.0168 7.83516L34.0259 7.8272L34.0168 7.83516ZM34.01 7.82956V7.82897L34.0074 7.82632L34.01 7.82956Z"
    fill="#747474"
  ></path>
  <path
    d="M34.9192 7.99161C34.8915 8.08911 34.857 8.16394 34.857 8.21519C34.857 8.3015 34.9766 8.31564 35.07 8.31564H35.1015V8.40195C34.9875 8.39577 34.8711 8.39047 34.7574 8.39047C34.654 8.39047 34.5521 8.39577 34.4502 8.40195V8.31564H34.4664C34.5777 8.31564 34.6723 8.24936 34.7144 8.12888L35.1704 6.81329C35.2073 6.70695 35.2588 6.56349 35.2753 6.45686C35.3663 6.42592 35.4803 6.36848 35.5354 6.33402C35.5434 6.33107 35.5493 6.32813 35.5578 6.32813C35.5661 6.32813 35.5717 6.32812 35.5767 6.33696C35.5858 6.35935 35.5946 6.38557 35.6029 6.40825L36.1269 7.90824C36.1611 8.0084 36.1944 8.11445 36.2324 8.20076C36.2663 8.28088 36.3261 8.31535 36.4203 8.31535H36.4374V8.40166C36.309 8.39547 36.1808 8.39017 36.0445 8.39017C35.9048 8.39017 35.7625 8.39547 35.6176 8.40166V8.31535H35.6488C35.7136 8.31535 35.8256 8.30386 35.8256 8.23228C35.8256 8.19516 35.8 8.11798 35.7678 8.02578L35.6574 7.6929H35.0108L34.9192 7.99161ZM35.3357 6.72139H35.3298L35.0647 7.53265H35.5976L35.3357 6.72139Z"
    fill="#747474"
  ></path>
  <path
    d="M36.4359 8.41427C36.3081 8.40897 36.1799 8.40278 36.0441 8.40278C35.9051 8.40278 35.7622 8.40897 35.6173 8.41427L35.6046 8.41545V8.40219V8.30351H35.6173H35.6479C35.7145 8.30351 35.8126 8.2879 35.8126 8.23281C35.8132 8.20011 35.7876 8.12205 35.7554 8.03014L35.6473 7.7061H35.019L34.9303 7.99538C34.9026 8.09347 34.8682 8.16918 34.8688 8.21543C34.8688 8.28583 34.9757 8.30351 35.0697 8.30351H35.1133V8.31588V8.41545L35.1006 8.41427C34.9866 8.40897 34.8702 8.40278 34.7571 8.40278C34.6546 8.40278 34.5524 8.40897 34.4499 8.41427L34.4375 8.41545V8.40219V8.30351H34.4499H34.4661C34.5718 8.30262 34.6611 8.24135 34.7026 8.12558L35.1583 6.80941C35.1946 6.70336 35.2464 6.56019 35.2717 6.44649C35.361 6.41526 35.4753 6.35753 35.5307 6.32277C35.538 6.32011 35.5463 6.31658 35.5578 6.31658C35.5651 6.3157 35.5796 6.31776 35.5887 6.33337C35.597 6.35576 35.6058 6.38168 35.6149 6.40495L36.1387 7.90494C36.1729 8.00539 36.2064 8.11174 36.2433 8.19658C36.2766 8.27258 36.329 8.30262 36.4197 8.30351H36.4495V8.31588V8.41545L36.4359 8.41427ZM35.6294 8.38894C35.7702 8.38334 35.9086 8.37804 36.0441 8.37804C36.1764 8.37804 36.3007 8.38363 36.425 8.38835L36.4241 8.32914H36.4194C36.3234 8.32914 36.2556 8.29114 36.2206 8.206C36.1826 8.1191 36.1493 8.01276 36.1148 7.9126L35.5908 6.4132C35.5822 6.39022 35.5734 6.36401 35.5669 6.34486C35.5643 6.34103 35.5649 6.34103 35.5625 6.34103H35.5572C35.551 6.34103 35.5481 6.34309 35.5404 6.34486C35.4853 6.37991 35.3713 6.43736 35.2868 6.45945C35.2691 6.56815 35.2178 6.71102 35.181 6.81766L34.7247 8.13383C34.6817 8.25814 34.5821 8.32943 34.4658 8.32943H34.4611V8.38864C34.5595 8.38363 34.6573 8.37833 34.7562 8.37833C34.8667 8.37833 34.9789 8.38393 35.0888 8.38864V8.32914H35.0694C34.9769 8.32766 34.8473 8.31735 34.8437 8.21543C34.8443 8.15858 34.8797 8.08581 34.9071 7.98831L34.9185 7.99184L34.9071 7.98772L35.0007 7.68106H35.6647L35.7793 8.02189C35.8105 8.11409 35.8362 8.19009 35.8362 8.23251C35.832 8.32059 35.713 8.32648 35.6476 8.32884H35.6291V8.38894H35.6294ZM35.0473 7.54526L35.3206 6.70866H35.3292H35.3354V6.72133L35.3324 6.72192L35.3354 6.72133V6.70896H35.3439L35.6132 7.54556H35.0473V7.54526ZM35.0814 7.52022H35.5793L35.3318 6.75255L35.0814 7.52022ZM35.3233 6.72486L35.3292 6.7228L35.3233 6.72486Z"
    fill="#747474"
  ></path>
  <path
    d="M37.1557 8.12297C37.1557 8.23786 37.235 8.27174 37.326 8.28352C37.4426 8.29206 37.5708 8.29206 37.7025 8.27763C37.8212 8.2629 37.924 8.19456 37.9752 8.12297C38.0206 8.05935 38.0459 7.97951 38.0633 7.91618H38.1461C38.1149 8.07967 38.0751 8.24081 38.0406 8.404C37.7902 8.404 37.5393 8.39251 37.2889 8.39251C37.0376 8.39251 36.7881 8.404 36.5371 8.404V8.3174H36.5763C36.6794 8.3174 36.791 8.30355 36.791 8.12592V6.65215C36.791 6.5025 36.6794 6.48836 36.5763 6.48836H36.5371V6.40234C36.6876 6.40234 36.8364 6.41354 36.9863 6.41354C37.1325 6.41354 37.2744 6.40234 37.4197 6.40234V6.48836H37.3484C37.2406 6.48836 37.1557 6.4916 37.1557 6.64301V8.12297Z"
    fill="#747474"
  ></path>
  <path
    d="M38.0406 8.41283C37.7893 8.41283 37.5389 8.40134 37.2888 8.40134C37.0382 8.40134 36.7875 8.41283 36.5365 8.41283H36.5244V8.40075V8.30207H36.5365H36.5763C36.6797 8.29912 36.7772 8.29234 36.7783 8.12267V6.6483C36.7772 6.50897 36.6802 6.49925 36.5763 6.49719H36.5244V6.48511V6.38672H36.5365C36.6882 6.38672 36.8364 6.39791 36.9869 6.39791C37.1312 6.39791 37.2738 6.38672 37.4196 6.38672H37.4317V6.39909V6.49719H37.4196H37.3484C37.2382 6.50043 37.1695 6.49512 37.1672 6.63976V8.11943C37.1684 8.22606 37.2373 8.25493 37.3265 8.26731C37.3766 8.27113 37.4297 8.27349 37.4842 8.27349C37.5543 8.27349 37.6261 8.26996 37.6998 8.262C37.8161 8.24845 37.9157 8.18129 37.9649 8.11265C38.0085 8.05138 38.0338 7.97243 38.0509 7.90998L38.0533 7.90056H38.063H38.1611L38.1581 7.91587C38.126 8.07995 38.0869 8.2402 38.0524 8.40311L38.0497 8.41283H38.0406ZM38.0303 8.38749C38.0633 8.23225 38.1007 8.08025 38.1313 7.92501H38.073C38.055 7.98775 38.03 8.06464 37.9849 8.12767C37.9316 8.20191 37.8267 8.27172 37.703 8.28704C37.6285 8.29441 37.5546 8.29883 37.4844 8.29883C37.4297 8.29883 37.3763 8.29588 37.3245 8.29264C37.232 8.28233 37.1421 8.24256 37.1424 8.12002V6.63976C37.1424 6.48069 37.2426 6.47244 37.3486 6.47244H37.4079V6.41176C37.2673 6.41235 37.1289 6.42266 36.9872 6.42266C36.8393 6.42266 36.695 6.41235 36.5492 6.41176V6.47244H36.5766C36.6782 6.47244 36.8031 6.49041 36.8031 6.6483V8.12267C36.8031 8.30796 36.6788 8.3271 36.5766 8.3271H36.5492V8.38749C36.7951 8.38749 37.042 8.37689 37.2891 8.37689C37.5366 8.37689 37.784 8.38749 38.0303 8.38749Z"
    fill="#747474"
  ></path>
  <path
    d="M38.1114 6.32031C38.2828 6.32031 38.4113 6.45287 38.4113 6.62314C38.4113 6.79252 38.2828 6.9239 38.1114 6.9239C37.94 6.9239 37.8115 6.79252 37.8115 6.62314C37.8115 6.45287 37.94 6.32031 38.1114 6.32031ZM38.1114 6.86793C38.2454 6.86793 38.3485 6.75275 38.3485 6.62343C38.3485 6.49323 38.2472 6.37687 38.1114 6.37687C37.9771 6.37687 37.8731 6.49323 37.8731 6.62343C37.8731 6.75275 37.9771 6.86793 38.1114 6.86793ZM37.9621 6.78251V6.76719C37.9992 6.76218 38.0054 6.76336 38.0054 6.74009V6.5168C38.0054 6.48557 38.0018 6.47467 37.9632 6.47644V6.46083H38.1164C38.17 6.46083 38.218 6.48587 38.218 6.54066C38.218 6.58573 38.1886 6.61901 38.1476 6.63198L38.1965 6.7012C38.2195 6.73213 38.2454 6.76189 38.2628 6.7722V6.78192H38.2048C38.1765 6.78192 38.1518 6.72241 38.0964 6.64229H38.0637V6.74303C38.0637 6.76277 38.0702 6.76159 38.1076 6.7666V6.78192H37.9621V6.78251ZM38.0634 6.62343H38.0987C38.1373 6.62343 38.1556 6.59339 38.1556 6.54625C38.1556 6.49794 38.1273 6.48086 38.097 6.48086H38.0634V6.62343Z"
    fill="#747474"
  ></path>
  <path
    d="M5.02967 0.414062C2.51368 0.415241 0.475199 2.46786 0.474609 5.00094C0.475199 7.53401 2.51368 9.58663 5.02967 9.58722C7.54566 9.58663 9.58473 7.53372 9.58502 5.00094C9.58473 2.46786 7.54566 0.415241 5.02967 0.414062ZM3.9957 7.7137C2.91254 7.29481 2.14457 6.23934 2.14222 5.00123C2.14487 3.76341 2.91254 2.70765 3.9957 2.28817V7.7137ZM6.06275 7.71488V2.28787C7.14621 2.70617 7.91536 3.76253 7.91742 5.00094C7.91536 6.24052 7.14621 7.2957 6.06275 7.71488Z"
    fill="white"
  ></path>
  <path
    d="M14.1588 2.15925C14.1588 1.68498 13.9131 1.7165 13.6777 1.7112V1.57422C13.8816 1.58423 14.0907 1.58423 14.2952 1.58423C14.5149 1.58423 14.8136 1.57422 15.201 1.57422C16.5564 1.57422 17.294 2.48564 17.294 3.41887C17.294 3.94056 16.9909 5.25261 15.138 5.25261C14.8711 5.25261 14.6248 5.2423 14.3788 5.2423C14.1432 5.2423 13.9131 5.24761 13.6777 5.25261V5.11564C13.9912 5.08382 14.1432 5.07322 14.1588 4.71501V2.15925ZM14.6719 4.63076C14.6719 5.03698 14.96 5.08382 15.2163 5.08382C16.3475 5.08382 16.7187 4.22483 16.7187 3.43978C16.7187 2.45442 16.0906 1.74301 15.0805 1.74301C14.8658 1.74301 14.7668 1.75862 14.6719 1.76393V4.63076Z"
    fill="#747474"
  ></path>
  <path
    d="M17.4785 5.11176H17.5775C17.7239 5.11176 17.8291 5.11176 17.8291 4.93737V3.50984C17.8291 3.27801 17.7501 3.2459 17.5566 3.14132V3.05678C17.8026 2.98255 18.096 2.88298 18.1166 2.86707C18.1534 2.84557 18.1843 2.83997 18.2108 2.83997C18.2368 2.83997 18.2477 2.87179 18.2477 2.9145V4.93737C18.2477 5.11176 18.3628 5.11176 18.5092 5.11176H18.5982V5.24903C18.42 5.24903 18.2368 5.23872 18.0488 5.23872C17.8603 5.23872 17.6721 5.24373 17.4785 5.24903V5.11176ZM18.0382 2.029C17.9018 2.029 17.7819 1.90262 17.7819 1.76535C17.7819 1.63338 17.9074 1.51172 18.0382 1.51172C18.174 1.51172 18.2948 1.62307 18.2948 1.76535C18.2948 1.90822 18.1793 2.029 18.0382 2.029Z"
    fill="#747474"
  ></path>
  <path
    d="M19.0961 3.54064C19.0961 3.34593 19.0381 3.29349 18.7924 3.19334V3.09318C19.0175 3.01924 19.2316 2.95119 19.4829 2.83984C19.4985 2.83984 19.5144 2.85104 19.5144 2.89287V3.23546C19.8131 3.01954 20.0691 2.83984 20.4206 2.83984C20.8645 2.83984 21.0218 3.16683 21.0218 3.57806V4.93724C21.0218 5.11163 21.137 5.11163 21.2837 5.11163H21.3779V5.2489C21.1944 5.2489 21.0115 5.23859 20.8229 5.23859C20.6344 5.23859 20.4459 5.2436 20.2577 5.2489V5.11163H20.3513C20.4986 5.11163 20.6023 5.11163 20.6023 4.93724V3.57305C20.6023 3.27228 20.4206 3.125 20.1219 3.125C19.9545 3.125 19.6873 3.26227 19.5141 3.37804V4.93724C19.5141 5.11163 19.6296 5.11163 19.7766 5.11163H19.8703V5.2489C19.6873 5.2489 19.5038 5.2383 19.315 5.2383C19.1268 5.2383 18.9382 5.2436 18.75 5.2489V5.11163H18.8443C18.991 5.11163 19.0958 5.11163 19.0958 4.93724V3.54064H19.0961Z"
    fill="#747474"
  ></path>
  <path
    d="M21.7759 3.79398C21.7647 3.8417 21.7647 3.92036 21.7759 4.09975C21.8069 4.60024 22.1265 5.01088 22.5445 5.01088C22.832 5.01088 23.0576 4.85299 23.2509 4.65827L23.3239 4.73221C23.083 5.0536 22.7846 5.32726 22.3568 5.32726C21.5241 5.32726 21.3564 4.5157 21.3564 4.1787C21.3564 3.14562 22.0475 2.83984 22.4137 2.83984C22.8373 2.83984 23.2927 3.1085 23.2977 3.66761C23.2977 3.69942 23.2977 3.73065 23.2927 3.76246L23.2453 3.79398H21.7759ZM22.7021 3.62548C22.8317 3.62548 22.8476 3.55655 22.8476 3.49381C22.8476 3.22515 22.6859 3.00893 22.3931 3.00893C22.0737 3.00893 21.8537 3.24577 21.7912 3.62548H22.7021Z"
    fill="#747474"
  ></path>
  <path
    d="M23.418 5.11192H23.5594C23.7052 5.11192 23.8101 5.11192 23.8101 4.93753V3.45728C23.8101 3.29379 23.6168 3.26227 23.5379 3.21985V3.1412C23.9199 2.97741 24.1297 2.84014 24.1771 2.84014C24.208 2.84014 24.2236 2.85605 24.2236 2.90907V3.38305H24.2345C24.365 3.17772 24.5842 2.83984 24.9032 2.83984C25.0337 2.83984 25.2013 2.92969 25.2013 3.1194C25.2013 3.26168 25.1027 3.38864 24.9563 3.38864C24.7931 3.38864 24.7931 3.26168 24.6104 3.26168C24.5212 3.26168 24.2292 3.38275 24.2292 3.69913V4.93694C24.2292 5.11134 24.3335 5.11133 24.4793 5.11133H24.7721V5.24861C24.4843 5.24301 24.2664 5.2383 24.0407 5.2383C23.8263 5.2383 23.6065 5.24331 23.4183 5.24861V5.11192H23.418Z"
    fill="#747474"
  ></path>
  <path
    d="M25.4315 4.5157C25.5001 4.86389 25.709 5.15906 26.0916 5.15906C26.4 5.15906 26.5152 4.96905 26.5152 4.78465C26.5152 4.16279 25.374 4.36311 25.374 3.51472C25.374 3.21955 25.6097 2.83984 26.1862 2.83984C26.3535 2.83984 26.5783 2.88757 26.7821 2.99332L26.8189 3.53033H26.6987C26.6463 3.19893 26.4637 3.00893 26.1279 3.00893C25.9178 3.00893 25.7193 3.13 25.7193 3.35683C25.7193 3.97367 26.9338 3.78338 26.9338 4.61055C26.9338 4.95845 26.6566 5.32726 26.0327 5.32726C25.8233 5.32726 25.5776 5.25391 25.3947 5.14875L25.3369 4.5425L25.4315 4.5157Z"
    fill="#747474"
  ></path>
  <path
    d="M31.6606 2.52557H31.5301C31.4306 1.9096 30.9961 1.66128 30.4102 1.66128C29.8077 1.66128 28.9331 2.06691 28.9331 3.33183C28.9331 4.39702 29.6879 5.16057 30.4935 5.16057C31.0114 5.16057 31.4412 4.80207 31.5458 4.24914L31.6654 4.28037L31.5458 5.04922C31.326 5.18678 30.7345 5.32877 30.3887 5.32877C29.1641 5.32877 28.3896 4.53312 28.3896 3.34744C28.3896 2.26693 29.3473 1.49219 30.373 1.49219C30.7966 1.49219 31.2055 1.62976 31.6082 1.77174L31.6606 2.52557Z"
    fill="#747474"
  ></path>
  <path
    d="M31.8496 5.11558H31.9483C32.0953 5.11558 32.2002 5.11558 32.2002 4.94119V2.0066C32.2002 1.66372 32.1215 1.65311 31.9227 1.59537V1.51142C32.1321 1.44308 32.3513 1.34793 32.462 1.2843C32.5189 1.25307 32.561 1.22656 32.5763 1.22656C32.6084 1.22656 32.619 1.25808 32.619 1.3005V4.94149C32.619 5.11588 32.7342 5.11588 32.8809 5.11588H32.969V5.25315C32.7923 5.25315 32.6087 5.24284 32.4205 5.24284C32.2323 5.24284 32.0437 5.24785 31.8499 5.25315V5.11558H31.8496Z"
    fill="#747474"
  ></path>
  <path
    d="M35.21 4.96124C35.21 5.05639 35.2674 5.06169 35.3564 5.06169C35.4191 5.06169 35.4975 5.05639 35.5658 5.05639V5.16715C35.3402 5.18777 34.911 5.29883 34.8114 5.33005L34.7855 5.31414V4.88789C34.4721 5.14594 34.2305 5.33005 33.8588 5.33005C33.5766 5.33005 33.2829 5.14594 33.2829 4.70348V3.35432C33.2829 3.21704 33.2622 3.08537 32.9697 3.05915V2.95899C33.1583 2.95369 33.5766 2.92188 33.644 2.92188C33.7026 2.92188 33.7026 2.95899 33.7026 3.07476V4.43394C33.7026 4.59243 33.7026 5.04578 34.1572 5.04578C34.3354 5.04578 34.5708 4.90851 34.7902 4.72469V3.30659C34.7902 3.20172 34.5389 3.14369 34.3513 3.09067V2.99611C34.8217 2.96459 35.1151 2.92217 35.1676 2.92217C35.21 2.92217 35.21 2.9587 35.21 3.01732V4.96124Z"
    fill="#747474"
  ></path>
  <path
    d="M36.252 3.2238C36.4612 3.0447 36.744 2.84409 37.0318 2.84409C37.6392 2.84409 38.0051 3.37728 38.0051 3.95082C38.0051 4.64102 37.5025 5.33151 36.7534 5.33151C36.3666 5.33151 36.1628 5.20513 36.0264 5.1474L35.8697 5.26817L35.7601 5.21073C35.8066 4.89966 35.8332 4.59388 35.8332 4.27279V2.00661C35.8332 1.66372 35.7542 1.65311 35.5557 1.59537V1.51142C35.7654 1.44308 35.9849 1.34793 36.0944 1.2843C36.1522 1.25278 36.194 1.22656 36.2108 1.22656C36.2414 1.22656 36.252 1.25808 36.252 1.3005V3.2238ZM36.252 4.65722C36.252 4.85753 36.4403 5.19482 36.7905 5.19482C37.3508 5.19482 37.5862 4.64102 37.5862 4.17234C37.5862 3.60322 37.1576 3.12895 36.749 3.12895C36.5552 3.12895 36.3929 3.25591 36.2518 3.37728V4.65722H36.252Z"
    fill="#747474"
  ></path>
  <path
    d="M13.6719 8.31798H13.7122C13.8147 8.31798 13.9229 8.30385 13.9229 8.1542V6.65215C13.9229 6.5025 13.8147 6.48836 13.7122 6.48836H13.6719V6.40234C13.7835 6.40234 13.9541 6.41354 14.0943 6.41354C14.2363 6.41354 14.4071 6.40234 14.5409 6.40234V6.48836H14.5011C14.3986 6.48836 14.2905 6.5025 14.2905 6.65215V8.1542C14.2905 8.30385 14.3986 8.31798 14.5011 8.31798H14.5409V8.4043C14.4045 8.4043 14.233 8.39281 14.0911 8.39281C13.9517 8.39281 13.7838 8.4043 13.6722 8.4043V8.31798H13.6719Z"
    fill="#747474"
  ></path>
  <path
    d="M14.5409 8.41371C14.4031 8.41371 14.2328 8.40222 14.0908 8.40222C13.9515 8.40222 13.7842 8.41371 13.6722 8.41371H13.6602V8.40163V8.31532V8.30295H13.6722H13.7123C13.8157 8.3 13.9097 8.29176 13.9105 8.15154V6.64948C13.9097 6.50897 13.8157 6.49984 13.7123 6.49777H13.6602V6.4857V6.38672H13.6722C13.7842 6.38672 13.955 6.3985 14.0944 6.3985C14.2358 6.3985 14.4063 6.38672 14.5412 6.38672H14.5539V6.39968V6.49777H14.5412H14.5012C14.3981 6.49984 14.3032 6.50897 14.3026 6.64948V8.15154C14.3032 8.29176 14.3978 8.3 14.5012 8.30295H14.5539V8.31532V8.41371H14.5409ZM14.5286 8.38926V8.32799H14.5009C14.399 8.32799 14.2782 8.31031 14.2776 8.15154V6.64948C14.2782 6.491 14.399 6.47303 14.5009 6.47303H14.5286V6.41235C14.3975 6.41235 14.2322 6.42325 14.0941 6.42325C13.9586 6.42325 13.7948 6.41294 13.6846 6.41235V6.47303H13.7117C13.8136 6.47303 13.935 6.491 13.935 6.64948V8.15154C13.935 8.31031 13.8136 8.32799 13.7117 8.32799H13.6846V8.38926C13.7948 8.38779 13.9559 8.37777 14.0905 8.37777C14.2296 8.37777 14.3945 8.38838 14.5286 8.38926Z"
    fill="#747474"
  ></path>
  <path
    d="M16.4979 7.83841L16.5038 7.83281V6.7579C16.5038 6.52253 16.3415 6.48836 16.2557 6.48836H16.193V6.40234C16.327 6.40234 16.4581 6.41354 16.5919 6.41354C16.7085 6.41354 16.8261 6.40234 16.9424 6.40234V6.48836H16.8994C16.7798 6.48836 16.6458 6.51104 16.6458 6.85246V8.15744C16.6458 8.2576 16.649 8.35775 16.6631 8.44672H16.5544L15.088 6.80061V7.98217C15.088 8.23167 15.1361 8.31769 15.3558 8.31769H15.4038V8.404C15.2816 8.404 15.1593 8.39251 15.0365 8.39251C14.9086 8.39251 14.7776 8.404 14.6494 8.404V8.31769H14.6895C14.886 8.31769 14.9458 8.18307 14.9458 7.95389V6.74582C14.9458 6.58528 14.8141 6.48836 14.6868 6.48836H14.6494V6.40234C14.7578 6.40234 14.8686 6.41354 14.9767 6.41354C15.0624 6.41354 15.1449 6.40234 15.2303 6.40234L16.4979 7.83841Z"
    fill="#747474"
  ></path>
  <path
    d="M16.6625 8.45613L16.5453 8.452L15.1001 6.83006V7.97891C15.1033 8.22813 15.1413 8.29912 15.3555 8.30206H15.4165V8.31444V8.41283H15.4038C15.2807 8.41283 15.1578 8.40134 15.0365 8.40134C14.9089 8.40134 14.7781 8.41283 14.6494 8.41283H14.6367V8.40075V8.30206H14.6494H14.6894C14.8777 8.30089 14.9313 8.17923 14.9337 7.95063V6.74316C14.9331 6.59027 14.8088 6.49748 14.6868 6.49719H14.6367V6.48452V6.38672H14.6494C14.7581 6.38672 14.8697 6.39791 14.9764 6.39791C15.0612 6.39791 15.1434 6.38672 15.2397 6.39114L16.4914 7.80924V6.75465C16.4899 6.52694 16.3385 6.49925 16.2557 6.49719H16.1803V6.48452V6.38672H16.193C16.3276 6.38672 16.4587 6.39791 16.5918 6.39791C16.7079 6.39791 16.8243 6.38672 16.9421 6.38672H16.9545V6.39909V6.49719H16.9421H16.8994C16.7821 6.50072 16.6611 6.51103 16.6578 6.84921V8.15389C16.6578 8.25434 16.6611 8.3545 16.6749 8.44169L16.6776 8.45613H16.6625ZM16.5544 8.4308H16.6487C16.6357 8.34507 16.6334 8.24934 16.6334 8.15419V6.8495C16.6334 6.50514 16.7765 6.47274 16.8991 6.47274H16.9294V6.41205C16.8169 6.41264 16.7047 6.42295 16.5915 6.42295C16.4613 6.42295 16.3344 6.41264 16.2053 6.41205L16.2051 6.47274H16.2554C16.3429 6.47274 16.5161 6.51221 16.5161 6.75494L16.512 7.83869L16.5058 7.84488L16.4967 7.85342L15.2303 6.41176C15.1457 6.41176 15.0633 6.42266 14.9767 6.42266C14.8721 6.42266 14.7649 6.41235 14.6621 6.41176L14.6615 6.47244H14.6868C14.8202 6.47244 14.9575 6.57525 14.9575 6.74316V7.95063C14.9575 8.17981 14.8942 8.32651 14.6894 8.32769L14.6621 8.32651V8.38838C14.7855 8.3869 14.9124 8.37659 15.0365 8.37659C15.1555 8.37659 15.2742 8.3869 15.3914 8.38838V8.32799H15.3555C15.1313 8.32681 15.0756 8.22842 15.0756 7.97921V6.76525L16.5544 8.4308ZM16.4979 7.83545L16.507 7.8275L16.4979 7.83545ZM16.4911 7.82986V7.82897L16.4887 7.82662L16.4911 7.82986Z"
    fill="#747474"
  ></path>
  <path
    d="M17.3682 6.54433C17.1546 6.54433 17.1467 6.59618 17.1043 6.80533H17.0186C17.0297 6.7255 17.0439 6.64537 17.0524 6.56171C17.0639 6.48159 17.0695 6.40146 17.0695 6.3181H17.1382C17.1608 6.40441 17.2318 6.40146 17.3093 6.40146H18.7784C18.8552 6.40146 18.9262 6.39881 18.9321 6.3125L19.0002 6.32369C18.9893 6.40146 18.9775 6.47864 18.9692 6.55612C18.9639 6.63359 18.9639 6.71077 18.9639 6.78795L18.8782 6.82006C18.872 6.7143 18.8579 6.54404 18.6673 6.54404H18.2001V8.06995C18.2001 8.29089 18.3 8.31651 18.4361 8.31651H18.4906V8.40283C18.3795 8.40283 18.1798 8.39134 18.0266 8.39134C17.856 8.39134 17.656 8.40283 17.5447 8.40283V8.31651H17.5995C17.7562 8.31651 17.8354 8.30208 17.8354 8.07614V6.54433H17.3682Z"
    fill="#747474"
  ></path>
  <path
    d="M18.4906 8.41069C18.3784 8.41069 18.179 8.3992 18.0261 8.3992C17.8555 8.3992 17.6564 8.41069 17.5442 8.41069H17.533V8.39861V8.29993H17.5445H17.5992C17.7563 8.29551 17.819 8.29374 17.8231 8.07193V6.5522H17.368V6.53982V6.52716H17.8476V8.07163C17.8476 8.3017 17.7554 8.32467 17.5992 8.32526H17.5571V8.38506C17.6694 8.38447 17.8608 8.37446 18.0264 8.37446C18.1751 8.37446 18.3652 8.38447 18.478 8.38506V8.32556H18.4361C18.2986 8.32497 18.1875 8.29109 18.1875 8.06574V6.52716H18.6671C18.858 6.52804 18.883 6.69183 18.8895 6.79817L18.9511 6.77549C18.9511 6.70037 18.9511 6.62555 18.957 6.54984C18.9649 6.4759 18.9755 6.40285 18.9861 6.33009L18.9425 6.32243C18.9296 6.40609 18.8494 6.41021 18.7782 6.40962H17.3091H17.2944C17.2272 6.40962 17.1538 6.40609 17.1285 6.32596H17.0814C17.0808 6.4055 17.0755 6.48238 17.0646 6.55868C17.056 6.63762 17.0431 6.71333 17.0325 6.78874H17.0935C17.1312 6.58902 17.1556 6.52421 17.368 6.52716V6.53982V6.5522C17.1577 6.55662 17.1621 6.59197 17.1158 6.80377L17.1138 6.81349H17.1041H17.0039L17.0057 6.79846C17.0172 6.71863 17.0316 6.63821 17.0398 6.55485C17.0516 6.47531 17.0575 6.39578 17.0575 6.31329V6.30092H17.0693H17.148L17.1497 6.30976C17.1692 6.38223 17.2222 6.38252 17.2947 6.3837H17.3094H18.7784C18.8577 6.38252 18.9154 6.38164 18.9198 6.30622L18.921 6.29297L18.9337 6.29591L19.0141 6.30829L19.0123 6.32066C19.0009 6.39784 18.99 6.47531 18.9817 6.5519C18.9755 6.62879 18.9755 6.70597 18.9755 6.78315V6.79228L18.9682 6.79581L18.8668 6.83234L18.8662 6.81555C18.8586 6.70803 18.8474 6.55161 18.6674 6.55161H18.2126V8.06515C18.2155 8.28108 18.3006 8.29639 18.4361 8.29934H18.5033V8.31142V8.4101H18.4906V8.41069Z"
    fill="#747474"
  ></path>
  <path
    d="M19.0918 8.31798H19.1316C19.2344 8.31798 19.3428 8.30385 19.3428 8.1542V6.65215C19.3428 6.5025 19.2344 6.48836 19.1316 6.48836H19.0918V6.40234C19.2656 6.40234 19.5619 6.41354 19.8003 6.41354C20.0403 6.41354 20.3361 6.40234 20.5296 6.40234C20.5246 6.52548 20.5273 6.71548 20.5358 6.84068L20.4501 6.86365C20.4363 6.67748 20.4021 6.52872 20.1031 6.52872H19.7072V7.2796H20.0462C20.2165 7.2796 20.2539 7.18239 20.271 7.02714H20.3558C20.3502 7.13938 20.3479 7.25102 20.3479 7.36296C20.3479 7.47196 20.3505 7.58095 20.3558 7.68965L20.271 7.70674C20.2539 7.5347 20.2454 7.42335 20.0486 7.42335H19.7075V8.09145C19.7075 8.27792 19.8721 8.27792 20.0542 8.27792C20.3965 8.27792 20.547 8.25465 20.6327 7.92796L20.7126 7.9477C20.6749 8.10029 20.6416 8.2517 20.6162 8.404C20.4339 8.404 20.106 8.39251 19.85 8.39251C19.5929 8.39251 19.2544 8.404 19.0921 8.404V8.31798H19.0918Z"
    fill="#747474"
  ></path>
  <path
    d="M20.6147 8.41312C20.4324 8.41312 20.1045 8.40134 19.8485 8.40134C19.592 8.40134 19.2538 8.41312 19.0912 8.41312H19.0791V8.40104V8.31473V8.30236H19.0912H19.1309C19.2346 8.30059 19.328 8.29117 19.3295 8.15095V6.64889C19.328 6.50897 19.2346 6.49925 19.1309 6.49719H19.0791V6.48511V6.38672H19.0912C19.265 6.38672 19.5613 6.39791 19.7996 6.39791C20.0391 6.39791 20.3343 6.38672 20.529 6.38672H20.5417L20.5411 6.39909C20.5393 6.44269 20.5384 6.49336 20.5384 6.54756C20.5384 6.64683 20.5411 6.75524 20.5467 6.83683L20.5473 6.84714L20.5379 6.85009L20.4374 6.87631L20.4368 6.86128C20.42 6.67511 20.3956 6.54019 20.1022 6.53754H19.7186L19.718 7.26338H20.0453C20.2088 7.26162 20.2383 7.17707 20.2577 7.02301L20.2589 7.01152H20.2701H20.3682L20.3679 7.02477C20.3623 7.13613 20.3585 7.24777 20.3585 7.35971C20.3585 7.46841 20.3626 7.57711 20.3679 7.6861L20.3682 7.69641L20.3579 7.69847L20.2589 7.71851L20.2577 7.70496C20.2383 7.52998 20.2368 7.43394 20.0477 7.43188H19.7183V8.08791C19.7186 8.262 19.8677 8.26082 20.0533 8.262C20.3962 8.25965 20.5343 8.24344 20.62 7.92118L20.6227 7.90998L20.6348 7.91204L20.7264 7.93532L20.7234 7.94739C20.6866 8.0994 20.6524 8.25081 20.6268 8.40281L20.6245 8.41283H20.6147V8.41312ZM20.6044 8.38779C20.6292 8.24374 20.6616 8.09881 20.6966 7.95387L20.641 7.93973C20.5552 8.26082 20.39 8.2891 20.0539 8.28704C19.8751 8.28704 19.6951 8.28704 19.6945 8.0882V7.40714H20.0483C20.2468 7.40507 20.2671 7.52585 20.2816 7.68934L20.3428 7.67638C20.3375 7.57092 20.3349 7.46487 20.3349 7.35971C20.3349 7.25189 20.3378 7.14437 20.3428 7.03656H20.2816C20.2657 7.18561 20.2191 7.29048 20.0459 7.28842H19.6945V6.51221H20.1028C20.3991 6.51015 20.4483 6.66421 20.461 6.8442L20.5225 6.8277C20.5172 6.74699 20.514 6.643 20.514 6.54726C20.514 6.49836 20.5152 6.45182 20.5169 6.41146C20.3234 6.41205 20.0347 6.42236 19.8002 6.42236C19.5663 6.42236 19.2785 6.41205 19.1038 6.41146V6.47215H19.1315C19.2335 6.47215 19.3548 6.49012 19.3548 6.6486V8.15065C19.3548 8.30884 19.2335 8.32651 19.1315 8.32769H19.1036V8.38749C19.2697 8.38749 19.599 8.37689 19.8488 8.37689C20.1004 8.37718 20.4203 8.38779 20.6044 8.38779Z"
    fill="#747474"
  ></path>
  <path
    d="M21.096 6.70635C21.096 6.4972 20.9823 6.48865 20.8936 6.48865H20.8418V6.40234C20.9334 6.40234 21.1093 6.41383 21.2837 6.41383C21.4545 6.41383 21.5915 6.40234 21.742 6.40234C22.1008 6.40234 22.4204 6.50014 22.4204 6.90755C22.4204 7.16501 22.2496 7.32319 22.0245 7.41216L22.5112 8.14566C22.591 8.26673 22.6473 8.3009 22.7866 8.31769V8.4043C22.6935 8.4043 22.6019 8.39281 22.5085 8.39281C22.4204 8.39281 22.3285 8.4043 22.2407 8.4043C22.0216 8.11443 21.8333 7.80512 21.6481 7.4752H21.461V8.0888C21.461 8.30974 21.5632 8.31798 21.6937 8.31798H21.7453V8.4043C21.5824 8.4043 21.418 8.39281 21.2551 8.39281C21.1187 8.39281 20.9847 8.4043 20.8421 8.4043V8.31798H20.8939C20.9994 8.31798 21.0963 8.26967 21.0963 8.16333V6.70635H21.096ZM21.4613 7.37151H21.6C21.8849 7.37151 22.0387 7.26281 22.0387 6.92375C22.0387 6.66923 21.8761 6.50545 21.6224 6.50545C21.5373 6.50545 21.5011 6.51428 21.4613 6.51723V7.37151Z"
    fill="#747474"
  ></path>
  <path
    d="M22.7864 8.41312C22.6915 8.41312 22.6011 8.40163 22.5077 8.40163C22.4208 8.40163 22.3298 8.41312 22.2308 8.40811C22.0122 8.11972 21.8252 7.81218 21.6411 7.48402H21.4726V8.08496C21.4761 8.30059 21.5618 8.29882 21.6935 8.30206H21.7574V8.31444V8.41283H21.7447C21.5818 8.41283 21.4169 8.40134 21.2552 8.40134C21.1188 8.40134 20.9859 8.41283 20.8422 8.41283H20.8301V8.40075V8.30206H20.8422H20.894C20.9965 8.30118 21.0831 8.25641 21.0834 8.15978V6.7031C21.0814 6.49954 20.9827 6.50043 20.894 6.49748H20.8301V6.4854V6.38672H20.8422C20.9347 6.38672 21.1108 6.39821 21.284 6.39821C21.4543 6.39821 21.5907 6.38672 21.7427 6.38672C22.1018 6.38731 22.4326 6.48717 22.4332 6.90341C22.4332 7.16234 22.2629 7.32436 22.0437 7.41421L22.5218 8.13563C22.6017 8.25434 22.6512 8.2841 22.789 8.30206L22.799 8.30354V8.31444V8.41283H22.7864V8.41312ZM21.4602 7.45898H21.6546L21.6581 7.46517C21.844 7.79451 22.0311 8.10381 22.2405 8.38838C22.3277 8.38838 22.4187 8.37659 22.5077 8.37659C22.5987 8.37659 22.6862 8.38661 22.7743 8.38808V8.32504C22.6414 8.30796 22.5787 8.26819 22.5009 8.14918L22.0049 7.40242L22.0193 7.39653C22.242 7.30816 22.407 7.15498 22.407 6.90282C22.407 6.50514 22.0997 6.41264 21.7418 6.41146C21.5916 6.41146 21.4546 6.42236 21.2831 6.42236C21.1158 6.42236 20.947 6.41205 20.8539 6.41146V6.47215H20.8931C20.9818 6.47215 21.1073 6.48688 21.1073 6.70251V8.15919C21.1073 8.27467 21.0003 8.3271 20.8931 8.3271H20.8539V8.38749C20.9906 8.3869 21.1205 8.376 21.2543 8.376C21.4136 8.376 21.5742 8.3869 21.7318 8.38749V8.32799H21.6926C21.563 8.32799 21.4469 8.3112 21.4469 8.08496V7.45898H21.4602ZM21.4602 7.38063H21.4475V6.50249L21.4584 6.5019C21.4976 6.49866 21.5362 6.49041 21.6219 6.49041C21.882 6.49041 22.0505 6.66009 22.0505 6.92167C22.0499 7.26397 21.8864 7.38062 21.5995 7.38092H21.4602V7.38063ZM21.5992 7.35559C21.8817 7.35352 22.0228 7.25484 22.0261 6.92138C22.0243 6.67069 21.8699 6.51545 21.6216 6.51457C21.5444 6.51457 21.5082 6.52134 21.472 6.52488V7.35529H21.5992V7.35559Z"
    fill="#747474"
  ></path>
  <path
    d="M24.7198 7.83841L24.7248 7.83281V6.7579C24.7248 6.52253 24.5625 6.48836 24.4773 6.48836H24.4158V6.40234C24.5486 6.40234 24.6794 6.41354 24.8134 6.41354C24.9304 6.41354 25.047 6.40234 25.1643 6.40234V6.48836H25.1213C25.0017 6.48836 24.8682 6.51104 24.8682 6.85246V8.15744C24.8682 8.2576 24.8712 8.35775 24.8847 8.44672H24.7769L23.3111 6.80061V7.98217C23.3111 8.23167 23.3597 8.31769 23.5789 8.31769H23.6272V8.404C23.5052 8.404 23.3824 8.39251 23.2604 8.39251C23.1314 8.39251 23.0003 8.404 22.873 8.404V8.31769H22.9122C23.109 8.31769 23.1688 8.18307 23.1688 7.95389V6.74582C23.1688 6.58528 23.038 6.48836 22.9099 6.48836H22.873V6.40234C22.9806 6.40234 23.0925 6.41354 23.2003 6.41354C23.2849 6.41354 23.3682 6.40234 23.454 6.40234L24.7198 7.83841Z"
    fill="#747474"
  ></path>
  <path
    d="M24.8843 8.45672L24.7671 8.45259L23.3233 6.83065V7.9795C23.3269 8.22871 23.3643 8.29971 23.5793 8.30265H23.6391V8.31503V8.41342H23.6262C23.5039 8.41342 23.3817 8.40163 23.2594 8.40163C23.1319 8.40163 23.0005 8.41342 22.8726 8.41342H22.8594V8.40134V8.30265H22.8726H22.9118C23.0995 8.30177 23.154 8.17982 23.1557 7.95063V6.74316C23.1551 6.59057 23.0308 6.49777 22.9095 6.49777H22.8594V6.4857V6.38672H22.8726C22.9807 6.38672 23.0924 6.3985 23.1999 6.3985C23.2833 6.3985 23.366 6.38672 23.4615 6.39084L24.712 7.80983V6.75494C24.7114 6.52723 24.56 6.49925 24.4766 6.49777H24.4033V6.4857V6.38672H24.4156C24.5488 6.38672 24.6799 6.3985 24.8133 6.3985C24.9297 6.3985 25.0463 6.38672 25.1636 6.38672H25.1756V6.39968V6.49777H25.1636H25.1209C25.0036 6.50102 24.8822 6.51162 24.8793 6.8498V8.15448C24.8793 8.25493 24.8822 8.3545 24.8967 8.44258L24.8982 8.45672H24.8843ZM24.7762 8.43138H24.8693C24.8572 8.34566 24.8546 8.24992 24.8546 8.15478V6.85009C24.8546 6.50573 24.9986 6.47391 25.1206 6.47332H25.1506V6.41264C25.039 6.41323 24.9258 6.42354 24.813 6.42354C24.6825 6.42354 24.5556 6.41323 24.4262 6.41264V6.47332H24.4763C24.5644 6.47391 24.737 6.5128 24.737 6.75524L24.7329 7.83928L24.7276 7.84547L24.719 7.8546L23.4521 6.41264C23.3681 6.41264 23.2859 6.42354 23.1996 6.42354C23.0939 6.42354 22.9872 6.41323 22.8838 6.41264V6.47332H22.9092C23.0429 6.47391 23.1802 6.57554 23.1802 6.74345V7.95093C23.1802 8.1807 23.1157 8.3274 22.9115 8.32858L22.8838 8.32799V8.38838C23.0067 8.38779 23.1339 8.37777 23.2588 8.37777C23.3781 8.37777 23.4965 8.38779 23.6141 8.38838V8.32858H23.5787C23.3543 8.32799 23.298 8.22901 23.2974 7.9798V6.76672L24.7762 8.43138ZM24.7196 7.83604L24.7279 7.82809L24.7196 7.83604ZM24.712 7.83045V7.82986L24.7099 7.82721L24.712 7.83045Z"
    fill="#747474"
  ></path>
  <path
    d="M25.6228 7.99161C25.5936 8.08911 25.5592 8.16394 25.5592 8.21519C25.5592 8.3015 25.679 8.31564 25.773 8.31564H25.8042V8.40195C25.6905 8.39577 25.5739 8.39047 25.4593 8.39047C25.3568 8.39047 25.2552 8.39577 25.1523 8.40195V8.31564H25.1694C25.2805 8.31564 25.3747 8.24936 25.4169 8.12888L25.8732 6.81329C25.91 6.70695 25.9618 6.56349 25.9786 6.45686C26.0694 6.42592 26.1842 6.36848 26.2379 6.33402C26.2467 6.33107 26.2517 6.32813 26.2602 6.32813C26.2694 6.32813 26.2747 6.32812 26.2809 6.33696C26.2891 6.35935 26.2971 6.38557 26.3068 6.40825L26.8303 7.90824C26.8641 8.0084 26.898 8.11445 26.9348 8.20076C26.9696 8.28088 27.0297 8.31535 27.1237 8.31535H27.1407V8.40166C27.0126 8.39547 26.8845 8.39017 26.7478 8.39017C26.6081 8.39017 26.4653 8.39547 26.3203 8.40166V8.31535H26.3522C26.4173 8.31535 26.5283 8.30386 26.5283 8.23228C26.5283 8.19516 26.503 8.11798 26.4709 8.02578L26.3604 7.6929H25.7132L25.6228 7.99161ZM26.0384 6.72139H26.0322L25.7677 7.53265H26.3003L26.0384 6.72139Z"
    fill="#747474"
  ></path>
  <path
    d="M27.1395 8.41471C27.0114 8.40882 26.8833 8.40293 26.7475 8.40293C26.6078 8.40293 26.4664 8.40911 26.3203 8.41471L26.3071 8.41589V8.40263V8.30307H26.32H26.3512C26.4175 8.30307 26.5153 8.28834 26.5153 8.23355C26.5159 8.20085 26.4903 8.12161 26.4591 8.03058L26.351 7.70655H25.7217L25.6334 7.99582C25.6045 8.09391 25.57 8.16962 25.5706 8.21617C25.5718 8.28627 25.6778 8.30307 25.7727 8.30307H25.8163V8.31632V8.41589L25.8033 8.41471C25.6893 8.40882 25.573 8.40293 25.4596 8.40293C25.3576 8.40293 25.2548 8.40911 25.1526 8.41471L25.1396 8.41589V8.40263V8.30307H25.152H25.1691C25.2749 8.30307 25.3635 8.24238 25.4045 8.12573L25.8605 6.80956C25.8982 6.70351 25.9497 6.56034 25.9742 6.44575C26.0634 6.41541 26.1783 6.35767 26.2331 6.32291C26.2411 6.32026 26.2493 6.31643 26.2608 6.31643C26.2676 6.31614 26.2829 6.3182 26.292 6.33322C26.2997 6.35708 26.3091 6.38271 26.3177 6.40569L26.8423 7.90539C26.8759 8.00584 26.9098 8.11218 26.9466 8.19672C26.9802 8.27302 27.0323 8.30307 27.1239 8.30307H27.1537V8.31632V8.41589L27.1395 8.41471ZM26.3327 8.38879C26.4735 8.38378 26.6114 8.37848 26.7475 8.37848C26.8797 8.37848 27.0037 8.38407 27.1275 8.38879V8.32958H27.1233C27.0261 8.32987 26.9587 8.29158 26.9236 8.20644C26.8865 8.11954 26.8517 8.0132 26.8179 7.91304L26.2944 6.41364C26.2856 6.39067 26.277 6.36445 26.2697 6.34471C26.2673 6.34177 26.2679 6.34176 26.2655 6.34176H26.2602C26.2543 6.34176 26.2511 6.34324 26.2431 6.3453C26.1881 6.38124 26.0741 6.4378 25.9892 6.45989C25.9718 6.56859 25.9209 6.71176 25.8835 6.8181L25.428 8.13427C25.3841 8.25858 25.2846 8.32987 25.1688 8.32987H25.1641V8.38908C25.2616 8.38407 25.3603 8.37877 25.4593 8.37877C25.5691 8.37877 25.6817 8.38437 25.7907 8.38908V8.32958H25.7721C25.6796 8.3281 25.5497 8.31779 25.5462 8.21617C25.5462 8.15902 25.5815 8.08567 25.6092 7.98905L25.6219 7.99258L25.6092 7.98846L25.7023 7.6818H26.3675L26.4815 8.02292C26.5136 8.11483 26.5395 8.19083 26.5395 8.23325C26.5357 8.32133 26.4155 8.32722 26.3507 8.32958H26.3327V8.38879ZM25.75 7.54571L26.0225 6.7091H26.0316H26.0378V6.72177L26.0343 6.72236L26.0378 6.72177V6.7094H26.0455L26.3168 7.546H25.75V7.54571ZM25.7833 7.52067H26.2823L26.0343 6.75241L25.7833 7.52067ZM26.0254 6.72531L26.0316 6.72324L26.0254 6.72531Z"
    fill="#747474"
  ></path>
  <path
    d="M27.265 6.54433C27.0517 6.54433 27.0432 6.59618 27.0008 6.80533H26.915C26.9259 6.7255 26.9404 6.64537 26.9495 6.56171C26.961 6.48159 26.9663 6.40146 26.9663 6.3181H27.0346C27.0573 6.40441 27.1289 6.40146 27.2055 6.40146H28.6754C28.752 6.40146 28.823 6.39881 28.8289 6.3125L28.8967 6.32369C28.8858 6.40146 28.8749 6.47864 28.866 6.55612C28.8598 6.63359 28.8598 6.71077 28.8598 6.78795L28.775 6.82006C28.7691 6.7143 28.7556 6.54404 28.5644 6.54404H28.0972V8.06995C28.0972 8.29089 28.1973 8.31651 28.3331 8.31651H28.3876V8.40283C28.2769 8.40283 28.0777 8.39134 27.9237 8.39134C27.7534 8.39134 27.5531 8.40283 27.442 8.40283V8.31651H27.4959C27.6527 8.31651 27.7334 8.30208 27.7334 8.07614V6.54433H27.265Z"
    fill="#747474"
  ></path>
  <path
    d="M28.3874 8.41069C28.2755 8.41069 28.0763 8.3992 27.9235 8.3992C27.7532 8.3992 27.5535 8.41069 27.4418 8.41069H27.4292V8.39861V8.29993H27.4418H27.4957C27.6524 8.29551 27.7158 8.29374 27.7199 8.07193L27.7193 6.55249H27.2651V6.54012V6.52745H27.7449V8.07193C27.7449 8.30199 27.6524 8.32438 27.4957 8.32497H27.4536V8.38624C27.5667 8.38477 27.7582 8.37475 27.9235 8.37475C28.0719 8.37475 28.2625 8.38477 28.375 8.38624V8.32497H28.3329C28.1959 8.32438 28.0846 8.29139 28.0846 8.06574V6.52716H28.5642C28.7551 6.52804 28.7801 6.69183 28.7857 6.79817L28.8478 6.77549C28.8478 6.70037 28.8478 6.62555 28.8537 6.55014C28.8617 6.4762 28.8723 6.40285 28.8832 6.33009L28.8402 6.32243C28.8272 6.40609 28.7465 6.41051 28.6755 6.40962H27.2056H27.1911C27.1237 6.41021 27.0509 6.40609 27.0253 6.32567H26.9787C26.9782 6.4055 26.9726 6.48238 26.9614 6.55868C26.9543 6.63792 26.9399 6.71363 26.9293 6.78874H26.9905C27.0279 6.58902 27.0527 6.52421 27.2654 6.52716V6.53982V6.5522C27.0545 6.55632 27.0592 6.59197 27.0126 6.80377L27.0103 6.81349H27.0011H26.9004L26.9027 6.79935C26.9142 6.71834 26.929 6.63821 26.9372 6.55544C26.9481 6.47561 26.954 6.39607 26.954 6.31329V6.30092H26.9661H27.0438L27.0462 6.30976C27.0662 6.38223 27.1181 6.38252 27.1911 6.3837L27.2056 6.38429H28.6755C28.7545 6.38252 28.8116 6.38164 28.8166 6.30652L28.8172 6.29297L28.8302 6.29591L28.9112 6.30829L28.9091 6.32066C28.8973 6.39784 28.8864 6.47531 28.8779 6.5519C28.872 6.62879 28.872 6.70626 28.872 6.78315V6.79228L28.8643 6.79581L28.7633 6.83234L28.7621 6.81555C28.7553 6.70803 28.7436 6.55161 28.5642 6.55161H28.1096V8.06515C28.112 8.28108 28.1971 8.29639 28.3329 8.29934H28.3998V8.31171V8.4101H28.3874V8.41069Z"
    fill="#747474"
  ></path>
  <path
    d="M29.002 8.31798H29.0423C29.1454 8.31798 29.2526 8.30385 29.2526 8.1542V6.65215C29.2526 6.5025 29.1454 6.48836 29.0423 6.48836H29.002V6.40234C29.1133 6.40234 29.2839 6.41354 29.4232 6.41354C29.5658 6.41354 29.7366 6.40234 29.871 6.40234V6.48836H29.8312C29.7287 6.48836 29.6194 6.5025 29.6194 6.65215V8.1542C29.6194 8.30385 29.7287 8.31798 29.8312 8.31798H29.871V8.4043C29.734 8.4043 29.5625 8.39281 29.4208 8.39281C29.2812 8.39281 29.1136 8.4043 29.0022 8.4043V8.31798H29.002Z"
    fill="#747474"
  ></path>
  <path
    d="M29.8713 8.41312C29.7337 8.41312 29.5629 8.40134 29.4212 8.40134C29.2819 8.40134 29.114 8.41312 29.0026 8.41312H28.9902V8.40104V8.31473V8.30236H29.0026H29.043C29.1461 8.30059 29.24 8.29175 29.2403 8.15095V6.64889C29.24 6.50897 29.1461 6.49925 29.043 6.49719H28.9902V6.48511V6.38672H29.0026C29.114 6.38672 29.2848 6.39791 29.4239 6.39791C29.5658 6.39791 29.737 6.38672 29.8716 6.38672H29.8837V6.39909V6.49719H29.8716H29.8318C29.7276 6.49925 29.6339 6.50897 29.6327 6.64889V8.15095C29.6339 8.29175 29.7276 8.30059 29.8318 8.30236H29.8837V8.31473V8.41312H29.8713ZM29.8589 8.38779V8.3274H29.8315C29.729 8.3274 29.6083 8.30913 29.6083 8.15095V6.64889C29.6083 6.49041 29.729 6.47244 29.8315 6.47244H29.8589V6.41176C29.7273 6.41235 29.5623 6.42266 29.4236 6.42266C29.2886 6.42266 29.1254 6.41235 29.015 6.41176V6.47244H29.0427C29.144 6.47244 29.2648 6.49041 29.2654 6.64889V8.15095C29.2648 8.30913 29.144 8.3274 29.0427 8.3274H29.015V8.38779C29.1249 8.3869 29.286 8.37718 29.4209 8.37718C29.5597 8.37718 29.7243 8.3872 29.8589 8.38779Z"
    fill="#747474"
  ></path>
  <path
    d="M31.0066 6.35938C31.614 6.35938 32.0977 6.7385 32.0977 7.34916C32.0977 8.00842 31.6282 8.44705 31.0219 8.44705C30.4178 8.44705 29.957 8.03435 29.957 7.4175C29.9567 6.82157 30.4148 6.35938 31.0066 6.35938ZM31.0496 8.32068C31.6025 8.32068 31.6986 7.82991 31.6986 7.4119C31.6986 6.99272 31.4741 6.48516 31.001 6.48516C30.5029 6.48516 30.355 6.93292 30.355 7.31646C30.355 7.82991 30.5883 8.32068 31.0496 8.32068Z"
    fill="#747474"
  ></path>
  <path
    d="M29.9434 7.41454C29.9448 6.81124 30.4082 6.34493 31.0062 6.34375V6.35642V6.36849C30.4215 6.36849 29.9681 6.82421 29.9672 7.41454C29.9687 8.02432 30.4232 8.43083 31.0215 8.43113C31.6216 8.43083 32.0846 7.99869 32.0858 7.34532C32.0852 6.74261 31.6083 6.36938 31.0062 6.36849V6.35642V6.34375C31.618 6.34434 32.1082 6.727 32.11 7.34532C32.1094 8.01165 31.6331 8.45499 31.0215 8.45617C30.4126 8.45499 29.9448 8.03816 29.9434 7.41454ZM30.3428 7.3138C30.3434 6.92819 30.493 6.46953 31.0012 6.46953C31.4846 6.47101 31.7102 6.98799 31.7114 7.40894C31.7102 7.82695 31.6127 8.32979 31.0495 8.32979V8.31772V8.30564C31.5912 8.30446 31.6852 7.82695 31.6867 7.40894C31.6867 6.99329 31.464 6.49546 31.0012 6.49487C30.5125 6.49546 30.3681 6.93173 30.3673 7.3135C30.3678 7.8243 30.5988 8.30417 31.0495 8.30534V8.31742V8.3295C30.5773 8.32921 30.3434 7.83019 30.3428 7.3138Z"
    fill="#747474"
  ></path>
  <path
    d="M34.0168 7.83841L34.023 7.83281V6.7579C34.023 6.52253 33.8598 6.48836 33.7747 6.48836H33.7128V6.40234C33.8466 6.40234 33.9774 6.41354 34.1108 6.41354C34.2277 6.41354 34.3444 6.40234 34.4616 6.40234V6.48836H34.4186C34.2996 6.48836 34.1656 6.51104 34.1656 6.85246V8.15744C34.1656 8.2576 34.168 8.35775 34.1827 8.44672H34.0749L32.6079 6.80061V7.98217C32.6079 8.23167 32.6556 8.31769 32.8753 8.31769H32.9237V8.404C32.8011 8.404 32.6792 8.39251 32.5566 8.39251C32.4282 8.39251 32.2971 8.404 32.1689 8.404V8.31769H32.209C32.4061 8.31769 32.4653 8.18307 32.4653 7.95389V6.74582C32.4653 6.58528 32.3351 6.48836 32.2061 6.48836H32.1689V6.40234C32.2771 6.40234 32.3884 6.41354 32.4968 6.41354C32.5819 6.41354 32.6641 6.40234 32.7499 6.40234L34.0168 7.83841Z"
    fill="#747474"
  ></path>
  <path
    d="M34.1824 8.45583L34.0645 8.45171L32.6193 6.82976V7.97862C32.6229 8.22783 32.6603 8.29853 32.8741 8.30089H32.9357V8.31414V8.41253H32.923C32.7999 8.41253 32.6777 8.40104 32.556 8.40104C32.4281 8.40104 32.2974 8.41253 32.1683 8.41253H32.1562V8.40045V8.30118H32.1683H32.2084C32.3963 8.30089 32.4502 8.17923 32.4526 7.95063V6.74257C32.4526 6.58998 32.3283 6.49719 32.2054 6.49719H32.1562V6.48511V6.38672H32.1683C32.2776 6.38672 32.3884 6.39791 32.4956 6.39791C32.5801 6.39791 32.6623 6.38672 32.7587 6.39114L34.0103 7.80924V6.75465C34.0094 6.52694 33.8574 6.49925 33.7747 6.49719H33.6995V6.48511V6.38672H33.7122C33.8462 6.38672 33.9773 6.39791 34.1105 6.39791C34.2271 6.39791 34.3435 6.38672 34.4613 6.38672H34.4734V6.39909V6.49719H34.4613H34.4183C34.3011 6.50072 34.1794 6.51133 34.1776 6.84921V8.15389C34.1776 8.25434 34.1797 8.35421 34.1936 8.44199L34.1962 8.45613H34.1824V8.45583ZM34.0742 8.4305H34.1673C34.1547 8.34478 34.1529 8.24904 34.1529 8.15389V6.84921C34.1529 6.50396 34.2961 6.47303 34.418 6.47244H34.4487V6.41176C34.3361 6.41235 34.2236 6.42266 34.1102 6.42266C33.9806 6.42266 33.853 6.41235 33.724 6.41176V6.47244H33.7741C33.8622 6.47303 34.0336 6.5125 34.0336 6.75465L34.0312 7.8384L34.0253 7.84459L34.0162 7.85372L32.7486 6.41176C32.6647 6.41176 32.5819 6.42266 32.4956 6.42266C32.3907 6.42266 32.2838 6.41235 32.1798 6.41176V6.47244H32.2049C32.3386 6.47303 32.4765 6.57466 32.4765 6.74257V7.95063C32.4765 8.17981 32.4128 8.32651 32.2084 8.32769L32.1798 8.3271V8.38749C32.3035 8.3869 32.4305 8.37689 32.5554 8.37689C32.6738 8.37689 32.7919 8.3869 32.9104 8.38749V8.32769H32.8735C32.65 8.3271 32.5943 8.22813 32.5943 7.97891V6.76496L34.0742 8.4305ZM34.0168 7.83516L34.0259 7.8272L34.0168 7.83516ZM34.01 7.82956V7.82897L34.0074 7.82632L34.01 7.82956Z"
    fill="#747474"
  ></path>
  <path
    d="M34.9192 7.99161C34.8915 8.08911 34.857 8.16394 34.857 8.21519C34.857 8.3015 34.9766 8.31564 35.07 8.31564H35.1015V8.40195C34.9875 8.39577 34.8711 8.39047 34.7574 8.39047C34.654 8.39047 34.5521 8.39577 34.4502 8.40195V8.31564H34.4664C34.5777 8.31564 34.6723 8.24936 34.7144 8.12888L35.1704 6.81329C35.2073 6.70695 35.2588 6.56349 35.2753 6.45686C35.3663 6.42592 35.4803 6.36848 35.5354 6.33402C35.5434 6.33107 35.5493 6.32813 35.5578 6.32813C35.5661 6.32813 35.5717 6.32812 35.5767 6.33696C35.5858 6.35935 35.5946 6.38557 35.6029 6.40825L36.1269 7.90824C36.1611 8.0084 36.1944 8.11445 36.2324 8.20076C36.2663 8.28088 36.3261 8.31535 36.4203 8.31535H36.4374V8.40166C36.309 8.39547 36.1808 8.39017 36.0445 8.39017C35.9048 8.39017 35.7625 8.39547 35.6176 8.40166V8.31535H35.6488C35.7136 8.31535 35.8256 8.30386 35.8256 8.23228C35.8256 8.19516 35.8 8.11798 35.7678 8.02578L35.6574 7.6929H35.0108L34.9192 7.99161ZM35.3357 6.72139H35.3298L35.0647 7.53265H35.5976L35.3357 6.72139Z"
    fill="#747474"
  ></path>
  <path
    d="M36.4359 8.41427C36.3081 8.40897 36.1799 8.40278 36.0441 8.40278C35.9051 8.40278 35.7622 8.40897 35.6173 8.41427L35.6046 8.41545V8.40219V8.30351H35.6173H35.6479C35.7145 8.30351 35.8126 8.2879 35.8126 8.23281C35.8132 8.20011 35.7876 8.12205 35.7554 8.03014L35.6473 7.7061H35.019L34.9303 7.99538C34.9026 8.09347 34.8682 8.16918 34.8688 8.21543C34.8688 8.28583 34.9757 8.30351 35.0697 8.30351H35.1133V8.31588V8.41545L35.1006 8.41427C34.9866 8.40897 34.8702 8.40278 34.7571 8.40278C34.6546 8.40278 34.5524 8.40897 34.4499 8.41427L34.4375 8.41545V8.40219V8.30351H34.4499H34.4661C34.5718 8.30262 34.6611 8.24135 34.7026 8.12558L35.1583 6.80941C35.1946 6.70336 35.2464 6.56019 35.2717 6.44649C35.361 6.41526 35.4753 6.35753 35.5307 6.32277C35.538 6.32011 35.5463 6.31658 35.5578 6.31658C35.5651 6.3157 35.5796 6.31776 35.5887 6.33337C35.597 6.35576 35.6058 6.38168 35.6149 6.40495L36.1387 7.90494C36.1729 8.00539 36.2064 8.11174 36.2433 8.19658C36.2766 8.27258 36.329 8.30262 36.4197 8.30351H36.4495V8.31588V8.41545L36.4359 8.41427ZM35.6294 8.38894C35.7702 8.38334 35.9086 8.37804 36.0441 8.37804C36.1764 8.37804 36.3007 8.38363 36.425 8.38835L36.4241 8.32914H36.4194C36.3234 8.32914 36.2556 8.29114 36.2206 8.206C36.1826 8.1191 36.1493 8.01276 36.1148 7.9126L35.5908 6.4132C35.5822 6.39022 35.5734 6.36401 35.5669 6.34486C35.5643 6.34103 35.5649 6.34103 35.5625 6.34103H35.5572C35.551 6.34103 35.5481 6.34309 35.5404 6.34486C35.4853 6.37991 35.3713 6.43736 35.2868 6.45945C35.2691 6.56815 35.2178 6.71102 35.181 6.81766L34.7247 8.13383C34.6817 8.25814 34.5821 8.32943 34.4658 8.32943H34.4611V8.38864C34.5595 8.38363 34.6573 8.37833 34.7562 8.37833C34.8667 8.37833 34.9789 8.38393 35.0888 8.38864V8.32914H35.0694C34.9769 8.32766 34.8473 8.31735 34.8437 8.21543C34.8443 8.15858 34.8797 8.08581 34.9071 7.98831L34.9185 7.99184L34.9071 7.98772L35.0007 7.68106H35.6647L35.7793 8.02189C35.8105 8.11409 35.8362 8.19009 35.8362 8.23251C35.832 8.32059 35.713 8.32648 35.6476 8.32884H35.6291V8.38894H35.6294ZM35.0473 7.54526L35.3206 6.70866H35.3292H35.3354V6.72133L35.3324 6.72192L35.3354 6.72133V6.70896H35.3439L35.6132 7.54556H35.0473V7.54526ZM35.0814 7.52022H35.5793L35.3318 6.75255L35.0814 7.52022ZM35.3233 6.72486L35.3292 6.7228L35.3233 6.72486Z"
    fill="#747474"
  ></path>
  <path
    d="M37.1557 8.12297C37.1557 8.23786 37.235 8.27174 37.326 8.28352C37.4426 8.29206 37.5708 8.29206 37.7025 8.27763C37.8212 8.2629 37.924 8.19456 37.9752 8.12297C38.0206 8.05935 38.0459 7.97951 38.0633 7.91618H38.1461C38.1149 8.07967 38.0751 8.24081 38.0406 8.404C37.7902 8.404 37.5393 8.39251 37.2889 8.39251C37.0376 8.39251 36.7881 8.404 36.5371 8.404V8.3174H36.5763C36.6794 8.3174 36.791 8.30355 36.791 8.12592V6.65215C36.791 6.5025 36.6794 6.48836 36.5763 6.48836H36.5371V6.40234C36.6876 6.40234 36.8364 6.41354 36.9863 6.41354C37.1325 6.41354 37.2744 6.40234 37.4197 6.40234V6.48836H37.3484C37.2406 6.48836 37.1557 6.4916 37.1557 6.64301V8.12297Z"
    fill="#747474"
  ></path>
  <path
    d="M38.0406 8.41283C37.7893 8.41283 37.5389 8.40134 37.2888 8.40134C37.0382 8.40134 36.7875 8.41283 36.5365 8.41283H36.5244V8.40075V8.30207H36.5365H36.5763C36.6797 8.29912 36.7772 8.29234 36.7783 8.12267V6.6483C36.7772 6.50897 36.6802 6.49925 36.5763 6.49719H36.5244V6.48511V6.38672H36.5365C36.6882 6.38672 36.8364 6.39791 36.9869 6.39791C37.1312 6.39791 37.2738 6.38672 37.4196 6.38672H37.4317V6.39909V6.49719H37.4196H37.3484C37.2382 6.50043 37.1695 6.49512 37.1672 6.63976V8.11943C37.1684 8.22606 37.2373 8.25493 37.3265 8.26731C37.3766 8.27113 37.4297 8.27349 37.4842 8.27349C37.5543 8.27349 37.6261 8.26996 37.6998 8.262C37.8161 8.24845 37.9157 8.18129 37.9649 8.11265C38.0085 8.05138 38.0338 7.97243 38.0509 7.90998L38.0533 7.90056H38.063H38.1611L38.1581 7.91587C38.126 8.07995 38.0869 8.2402 38.0524 8.40311L38.0497 8.41283H38.0406ZM38.0303 8.38749C38.0633 8.23225 38.1007 8.08025 38.1313 7.92501H38.073C38.055 7.98775 38.03 8.06464 37.9849 8.12767C37.9316 8.20191 37.8267 8.27172 37.703 8.28704C37.6285 8.29441 37.5546 8.29883 37.4844 8.29883C37.4297 8.29883 37.3763 8.29588 37.3245 8.29264C37.232 8.28233 37.1421 8.24256 37.1424 8.12002V6.63976C37.1424 6.48069 37.2426 6.47244 37.3486 6.47244H37.4079V6.41176C37.2673 6.41235 37.1289 6.42266 36.9872 6.42266C36.8393 6.42266 36.695 6.41235 36.5492 6.41176V6.47244H36.5766C36.6782 6.47244 36.8031 6.49041 36.8031 6.6483V8.12267C36.8031 8.30796 36.6788 8.3271 36.5766 8.3271H36.5492V8.38749C36.7951 8.38749 37.042 8.37689 37.2891 8.37689C37.5366 8.37689 37.784 8.38749 38.0303 8.38749Z"
    fill="#747474"
  ></path>
  <path
    d="M38.1114 6.32031C38.2828 6.32031 38.4113 6.45287 38.4113 6.62314C38.4113 6.79252 38.2828 6.9239 38.1114 6.9239C37.94 6.9239 37.8115 6.79252 37.8115 6.62314C37.8115 6.45287 37.94 6.32031 38.1114 6.32031ZM38.1114 6.86793C38.2454 6.86793 38.3485 6.75275 38.3485 6.62343C38.3485 6.49323 38.2472 6.37687 38.1114 6.37687C37.9771 6.37687 37.8731 6.49323 37.8731 6.62343C37.8731 6.75275 37.9771 6.86793 38.1114 6.86793ZM37.9621 6.78251V6.76719C37.9992 6.76218 38.0054 6.76336 38.0054 6.74009V6.5168C38.0054 6.48557 38.0018 6.47467 37.9632 6.47644V6.46083H38.1164C38.17 6.46083 38.218 6.48587 38.218 6.54066C38.218 6.58573 38.1886 6.61901 38.1476 6.63198L38.1965 6.7012C38.2195 6.73213 38.2454 6.76189 38.2628 6.7722V6.78192H38.2048C38.1765 6.78192 38.1518 6.72241 38.0964 6.64229H38.0637V6.74303C38.0637 6.76277 38.0702 6.76159 38.1076 6.7666V6.78192H37.9621V6.78251ZM38.0634 6.62343H38.0987C38.1373 6.62343 38.1556 6.59339 38.1556 6.54625C38.1556 6.49794 38.1273 6.48086 38.097 6.48086H38.0634V6.62343Z"
    fill="#747474"
  ></path>
</svg>
