<svg width="27" height="29" viewBox="0 0 27 29" fill="none" xmlns="http://www.w3.org/2000/svg">
<path d="M20.3573 25.5572H6.45001C5.09854 25.5572 4 24.4586 4 23.1072V9.57736C4 8.22589 5.09854 7.12734 6.45001 7.12734H20.3611C21.7126 7.12734 22.8111 8.22589 22.8111 9.57736V23.111C22.8111 24.4624 21.7126 25.561 20.3611 25.561L20.3573 25.5572ZM6.45001 8.22211C5.70255 8.22211 5.09477 8.8299 5.09477 9.57736V23.111C5.09477 23.8584 5.70255 24.4662 6.45001 24.4662H20.3611C21.1086 24.4662 21.7164 23.8584 21.7164 23.111V9.57736C21.7164 8.8299 21.1086 8.22211 20.3611 8.22211H6.45001Z" fill="#9BE0FC"/>
<path d="M7.95252 29C6.91438 29 6.07254 28.1544 6.07254 27.12V26.6028C6.07254 26.3008 6.31792 26.0555 6.61993 26.0555C6.92193 26.0555 7.16731 26.3008 7.16731 26.6028V27.12C7.16731 27.5542 7.51839 27.9052 7.95252 27.9052C8.38666 27.9052 8.73774 27.5542 8.73774 27.12V26.5198C8.73774 26.2178 8.98311 25.9724 9.28512 25.9724C9.58712 25.9724 9.8325 26.2178 9.8325 26.5198V27.12C9.8325 28.1582 8.98689 29 7.95252 29Z" fill="#9BE0FC"/>
<path d="M9.2435 21.7406C8.94149 21.7406 8.69611 21.4952 8.69611 21.1932V10.5702C8.69611 10.2682 8.94149 10.0228 9.2435 10.0228C9.5455 10.0228 9.79088 10.2682 9.79088 10.5702V21.1932C9.79088 21.4952 9.5455 21.7406 9.2435 21.7406Z" fill="#9BE0FC"/>
<path d="M13.3697 21.7066C13.0677 21.7066 12.8223 21.4612 12.8223 21.1592V10.5362C12.8223 10.2342 13.0677 9.98881 13.3697 9.98881C13.6717 9.98881 13.9171 10.2342 13.9171 10.5362V21.1592C13.9171 21.4612 13.6717 21.7066 13.3697 21.7066Z" fill="#9BE0FC"/>
<path d="M17.4959 21.7066C17.1939 21.7066 16.9485 21.4612 16.9485 21.1592V10.5362C16.9485 10.2342 17.1939 9.98881 17.4959 9.98881C17.7979 9.98881 18.0433 10.2342 18.0433 10.5362V21.1592C18.0433 21.4612 17.7979 21.7066 17.4959 21.7066Z" fill="#9BE0FC"/>
<path d="M18.0583 29C17.0201 29 16.1783 28.1544 16.1783 27.12V26.6028C16.1783 26.3008 16.4237 26.0555 16.7257 26.0555C17.0277 26.0555 17.2731 26.3008 17.2731 26.6028V27.12C17.2731 27.5542 17.6241 27.9052 18.0583 27.9052C18.4924 27.9052 18.8435 27.5542 18.8435 27.12V26.5198C18.8435 26.2178 19.0889 25.9724 19.3909 25.9724C19.6929 25.9724 19.9383 26.2178 19.9383 26.5198V27.12C19.9383 28.1582 19.0926 29 18.0583 29Z" fill="#9BE0FC"/>
<path d="M18.1754 0.00377497H8.63202C7.85435 0.00377497 7.22392 0.63421 7.22392 1.41187V4.39417C7.22392 4.88493 7.47685 5.31529 7.85435 5.56444V7.4331C7.85435 7.7351 8.09973 7.98048 8.40174 7.98048C8.70374 7.98048 8.94912 7.7351 8.94912 7.4331V5.79849H9.60221V7.4331C9.60221 7.7351 9.84759 7.98048 10.1496 7.98048C10.4516 7.98048 10.697 7.7351 10.697 7.4331V5.56444C11.0745 5.31151 11.3274 4.88115 11.3274 4.39417V4.05819C11.3274 3.88831 11.4671 3.74864 11.637 3.74864H15.1591C15.329 3.74864 15.4687 3.88831 15.4687 4.05819V4.39417C15.4687 4.86605 15.7027 5.28509 16.0613 5.53801V7.4331C16.0613 7.7351 16.3067 7.98048 16.6087 7.98048C16.9107 7.98048 17.1561 7.7351 17.1561 7.4331V5.79849H17.8092V7.4331C17.8092 7.7351 18.0546 7.98048 18.3566 7.98048C18.6586 7.98048 18.904 7.7351 18.904 7.4331V5.58331C19.3041 5.33416 19.5721 4.89625 19.5721 4.3904V1.4081C19.5721 0.630435 18.9417 0 18.164 0L18.1754 0.00377497ZM16.8843 4.70373C16.7144 4.70373 16.5747 4.56405 16.5747 4.39417V4.05819C16.5747 3.28053 15.9443 2.65009 15.1666 2.65009H11.6445C10.8669 2.65009 10.2364 3.28053 10.2364 4.05819V4.39417C10.2364 4.56405 10.0967 4.70373 9.92686 4.70373H8.63579C8.46591 4.70373 8.32624 4.56405 8.32624 4.39417V1.41187C8.32624 1.24199 8.46591 1.10232 8.63579 1.10232H18.1791C18.349 1.10232 18.4887 1.24199 18.4887 1.41187V4.39417C18.4887 4.56405 18.349 4.70373 18.1791 4.70373H16.8843Z" fill="#9BE0FC"/>
</svg>
