<?xml version="1.0" encoding="UTF-8"?>
<svg xmlns="http://www.w3.org/2000/svg" width="36" height="36" viewBox="0 0 36 36" fill="none">
  <path
    d="M4.80663 35.7122C4.37112 35.6791 4.04035 35.2932 4.07894 34.8577C4.26086 32.5147 4.37663 27.6579 4.41522 25.6788C4.43728 24.5762 4.04586 23.6776 3.21893 22.9224C1.12955 21.0094 0.0490303 18.5121 0.0159531 15.502C-0.00609838 13.4623 -0.000579458 11.395 0.00493341 9.39379V9.32212C0.00493341 8.42353 0.00493341 7.51942 0.00493341 6.62082V5.33633C0.00493341 4.32747 -0.000579458 3.32413 0.00493341 2.32079C0.0104463 1.68681 0.247495 1.11347 0.671985 0.711033C1.0634 0.341671 1.56507 0.143208 2.11635 0.143208H2.21559C3.47252 0.192824 4.2774 1.05283 4.26637 2.33733C4.23881 5.29222 4.24983 8.27468 4.25535 11.1579V13.1701C4.25535 13.3245 4.25535 13.4678 4.28291 13.5946C4.33804 13.8757 4.50343 14.1734 4.6633 14.1734C4.92241 14.1404 5.11535 14.0742 5.11535 13.5836C5.0933 10.772 5.09881 7.92186 5.09881 5.15991V2.73425C5.09881 2.4972 5.12087 2.25463 5.15395 1.99002C5.26972 1.1245 5.7769 0.523596 6.62588 0.236927C6.82434 0.170773 7.0228 0.137695 7.21575 0.137695C7.99858 0.137695 8.51127 0.677956 8.73179 0.909496C9.23897 1.44424 9.23898 2.06168 9.23898 2.51925V13.6993C9.23898 13.771 9.23898 13.8482 9.23898 13.8702C9.32719 14.0852 9.42641 14.1349 9.55321 14.1349C9.58629 14.1349 9.61937 14.1349 9.65244 14.1238C9.85642 14.0908 9.96667 14.0742 9.96667 13.6883V2.72874C9.96667 2.45861 9.99424 2.18297 10.0383 1.90732C10.2148 0.832316 11.0472 0.137695 12.1498 0.137695C13.2523 0.137695 14.0738 0.826803 14.2667 1.89079C14.3659 2.44207 14.3549 2.97131 14.3439 3.47298C14.3439 3.6108 14.3384 3.75413 14.3329 3.89196C14.3218 5.30325 14.3329 6.71454 14.3439 8.12583C14.3604 10.7169 14.377 13.3906 14.2722 16.0368C14.1675 18.694 13.2358 20.8605 11.5158 22.4758C10.766 23.1759 10.2864 23.8926 10.0604 24.6644C9.9336 25.0834 9.92257 25.4362 9.92809 26.4341C9.93911 27.702 9.98873 29.0141 10.0714 30.3316C10.099 30.7727 10.121 31.7429 10.1486 32.6801C10.1707 33.6118 10.1982 34.4883 10.2203 34.8301C10.2368 35.0396 10.1651 35.2436 10.0273 35.4035C9.88949 35.5634 9.69103 35.6571 9.48154 35.6736C9.00743 35.6736 8.67115 35.3539 8.64359 34.9349C8.62154 34.5876 8.59948 33.6945 8.57192 32.7518C8.54987 31.8201 8.5223 30.8664 8.49474 30.4309C8.40653 29.0857 8.35692 27.7461 8.34589 26.4506C8.33486 25.3701 8.34589 24.8629 8.53884 24.2124C8.84756 23.1649 9.465 22.2167 10.4298 21.3126C11.8355 19.995 12.5963 18.1978 12.6845 15.9706C12.7893 13.352 12.7727 10.7003 12.7562 8.13135V7.91083C12.7452 6.56569 12.7396 5.22055 12.7507 3.87542C12.7507 3.72657 12.7507 3.57772 12.7617 3.42887C12.7727 2.97682 12.7837 2.55784 12.7121 2.16643C12.6514 1.8522 12.486 1.71989 12.1608 1.71989C11.7418 1.71989 11.6481 1.95143 11.615 2.1554C11.5819 2.34835 11.5654 2.53579 11.5654 2.72323V13.6828C11.5654 14.7854 10.959 15.5131 9.91154 15.684C9.79577 15.7005 9.68552 15.7115 9.56975 15.7115C8.75936 15.7115 8.08678 15.2374 7.76704 14.4436C7.64024 14.1349 7.65127 13.8592 7.65127 13.6552V2.54682C7.65127 2.21053 7.64576 2.06168 7.5796 1.99002C7.34806 1.74745 7.25986 1.71437 7.20473 1.71437C7.17717 1.71437 7.15512 1.7254 7.12755 1.73091C6.82434 1.83014 6.75818 1.95143 6.72511 2.18297C6.69754 2.3704 6.68652 2.54682 6.68652 2.71772V5.14338C6.68101 7.59109 6.6755 10.6342 6.69755 13.556C6.70858 14.7468 6.01395 15.5847 4.89484 15.7336C4.81215 15.7446 4.73496 15.7501 4.65778 15.7501C3.73162 15.7501 2.95431 15.0059 2.72828 13.8978C2.67315 13.6166 2.67316 13.3631 2.67316 13.1536V11.1414C2.66213 8.25263 2.65661 5.27017 2.68418 2.30425C2.68418 1.77502 2.42507 1.7254 2.16046 1.71437C2.16046 1.71437 2.16046 1.71437 2.15495 1.71437C1.97854 1.71437 1.86276 1.75848 1.77456 1.84668C1.6643 1.95143 1.60366 2.12233 1.59815 2.32079C1.58712 3.25246 1.58712 4.18414 1.59263 5.11581V6.60428C1.59263 7.50839 1.59263 8.40699 1.59263 9.3111V9.48751C1.59263 11.4501 1.58161 13.4733 1.60366 15.4635C1.63122 18.0545 2.51329 20.1053 4.29394 21.7316C5.46267 22.8011 6.036 24.1352 6.00292 25.6953C5.95331 28.1871 5.83754 32.7022 5.66113 34.9624C5.62805 35.3759 5.28074 35.6957 4.87278 35.6957H4.81214L4.80663 35.7122Z"
    fill="#F85F55"
  ></path>
  <path
    d="M4.8674 35.6791C4.8674 35.6791 4.82881 35.6791 4.80676 35.6791C4.3933 35.646 4.07906 35.2822 4.11214 34.8687C4.28304 32.6415 4.39881 28.1265 4.44843 25.6898C4.47048 24.5762 4.07906 23.6666 3.24111 22.9003C1.15725 20.9984 0.0822334 18.5121 0.0491562 15.5075C0.0271047 13.4457 0.0326237 11.3508 0.0381365 9.32762C0.0381365 8.42903 0.0381365 7.52492 0.0381365 6.62632V5.34182C0.0381365 4.33848 0.0326237 3.33514 0.0381365 2.32629C0.0436494 1.70333 0.280704 1.14102 0.694169 0.744094C1.09109 0.363707 1.62033 0.165244 2.21021 0.187295C3.44509 0.231398 4.23342 1.07487 4.22791 2.33731C4.20586 5.27567 4.21138 8.26915 4.21689 11.1579V13.1701C4.21689 13.3244 4.21688 13.4733 4.24445 13.6056C4.3106 13.9198 4.49253 14.2506 4.69099 14.2175C4.93907 14.1845 5.15407 14.1128 5.15407 13.5891C5.13202 10.7775 5.13754 7.97146 5.13754 5.1599V2.73975C5.13754 2.5027 5.15958 2.26013 5.19266 2.00103C5.30292 1.15205 5.80459 0.56217 6.64254 0.281014C7.73409 -0.0773224 8.43974 0.661401 8.70436 0.942557C9.20052 1.46628 9.20051 2.07821 9.20051 2.52475V13.7048C9.20051 13.771 9.20051 13.8537 9.20051 13.8812C9.31077 14.1569 9.45411 14.1955 9.65808 14.1624C9.88962 14.1238 10.0054 14.0852 10.0054 13.6883V2.72872C10.0054 2.46411 10.033 2.18846 10.0771 1.91282C10.2535 0.859864 11.0639 0.17627 12.1499 0.17627C13.2359 0.17627 14.0353 0.848839 14.2282 1.89628C14.3275 2.44757 14.3165 2.97129 14.2999 3.47296C14.2999 3.61078 14.2944 3.75412 14.2944 3.89194C14.2834 5.30323 14.2944 6.71452 14.2999 8.12582C14.3165 10.7169 14.333 13.3906 14.2282 16.0368C14.1235 18.683 13.1973 20.8385 11.4828 22.4482C10.7276 23.1539 10.248 23.8761 10.0164 24.6534C9.88962 25.0779 9.87309 25.4362 9.88411 26.434C9.89514 27.702 9.94475 29.0141 10.0274 30.3371C10.0771 31.2082 10.1267 34.1465 10.1708 34.8356C10.1983 35.2546 9.88411 35.613 9.46513 35.6405C9.04064 35.6681 8.68782 35.3538 8.66025 34.9349C8.61615 34.2402 8.56653 31.3019 8.5114 30.4254C8.4232 29.0802 8.37358 27.7406 8.36256 26.4451C8.35153 25.3645 8.36256 24.8629 8.55551 24.2179C8.86423 23.1759 9.47616 22.2332 10.4354 21.3401C11.8522 20.0171 12.613 18.2088 12.7012 15.9706C12.8059 13.363 12.7894 10.7058 12.7728 8.13133C12.7618 6.71453 12.7563 5.29772 12.7673 3.88091C12.7673 3.73207 12.7673 3.58322 12.7784 3.43437C12.7894 2.98783 12.8004 2.56334 12.7287 2.16641C12.6681 1.83564 12.4862 1.68679 12.1389 1.68679C11.6868 1.68679 11.5876 1.95692 11.5545 2.15539C11.5214 2.34834 11.5049 2.54129 11.5049 2.72872V13.6883C11.5049 14.7688 10.9095 15.4855 9.88411 15.6509C8.95795 15.7942 8.14755 15.3366 7.7837 14.4325C7.66242 14.1348 7.66793 13.8592 7.67345 13.6607V13.567V2.55231C7.67345 2.19398 7.66794 2.05064 7.59076 1.96795C7.28204 1.64269 7.20486 1.66474 7.10011 1.69782C6.78037 1.80256 6.7087 1.94039 6.67562 2.18295C6.64806 2.3759 6.63703 2.55231 6.63703 2.72321V5.14887C6.63152 7.95492 6.626 10.7555 6.64805 13.5615C6.65908 14.7302 5.981 15.5516 4.87843 15.7005C3.87509 15.8328 2.99854 15.0941 2.75046 13.8978C2.69534 13.6221 2.69533 13.3686 2.69533 13.1646V11.1524C2.68431 8.25813 2.6788 5.25913 2.70636 2.31526C2.70636 1.75295 2.41969 1.69782 2.14405 1.68679C1.97866 1.67577 1.82982 1.7309 1.72507 1.82462C1.6093 1.93487 1.54315 2.1168 1.53764 2.32629C1.52661 3.32411 1.5266 4.32194 1.53212 5.31977V6.60978C1.53212 7.51389 1.53212 8.41249 1.53212 9.3166C1.53212 11.3343 1.52109 13.4237 1.54315 15.4745C1.57071 18.0765 2.45828 20.1383 4.24445 21.7702C5.40215 22.8286 5.97549 24.1517 5.94241 25.7008C5.89279 28.1651 5.77703 32.7077 5.60061 34.9679C5.56754 35.3649 5.23676 35.6626 4.85086 35.6626L4.8674 35.6791Z"
    fill="#F85F55"
  ></path>
  <path
    d="M29.587 35.7619C29.168 35.7619 28.8207 35.4367 28.7931 35.0177L28.3852 26.1365C28.3025 25.3096 28.4127 24.4771 28.7049 23.7274C28.953 23.0824 29.3334 22.5641 29.4602 22.3932C29.7358 22.0184 30.0445 21.6711 30.3919 21.3568C32.6246 19.4935 34.0083 15.9432 34.0083 12.0897C34.0083 6.30672 30.9652 1.59873 27.233 1.59873C23.5008 1.59873 20.4577 6.30672 20.4577 12.0897C20.4577 16.0479 21.891 19.6368 24.1954 21.4505C24.2119 21.4616 24.2285 21.4781 24.245 21.4947C24.5372 21.7648 24.7742 22.0404 25.0223 22.3822C25.2153 22.6524 25.5405 23.0934 25.7886 23.7274C26.0808 24.4771 26.1911 25.3206 26.1084 26.164L25.7059 34.9901C25.6784 35.4146 25.331 35.7344 24.901 35.7344C24.4325 35.7068 24.0962 35.3319 24.1237 34.8909L24.5317 26.0317C24.5923 25.4033 24.5207 24.8189 24.3167 24.2897C24.1458 23.8486 23.9198 23.5344 23.7489 23.3084C23.5669 23.0603 23.396 22.8618 23.1865 22.6634C20.5293 20.552 18.8755 16.4945 18.8755 12.0787C18.8755 5.41914 22.6297 0 27.2385 0C31.8473 0 35.607 5.41914 35.607 12.0787C35.607 16.3897 34.0138 20.3976 31.4448 22.5421C31.2023 22.7681 30.9652 23.0272 30.7612 23.3084C30.662 23.4407 30.3698 23.8431 30.1934 24.2897C29.9894 24.8189 29.9122 25.3922 29.9729 25.9987L30.3863 34.9074C30.4139 35.343 30.0776 35.7234 29.6421 35.7454H29.5925L29.587 35.7619Z"
    fill="#F85F55"
  ></path>
  <path
    d="M29.5871 35.7234C29.1902 35.7234 28.8594 35.4147 28.8318 35.0123L28.4239 26.1311C28.3412 25.3207 28.4515 24.4827 28.7436 23.7385C28.9862 23.1045 29.3721 22.5863 29.4934 22.4154C29.769 22.035 30.0778 21.6932 30.4196 21.3845C32.6688 19.5046 34.0525 15.9543 34.0525 12.0898C34.0525 6.28475 30.9929 1.56023 27.2331 1.56023C23.4733 1.56023 20.4192 6.28475 20.4192 12.0898C20.4192 16.0591 21.8581 19.659 24.168 21.4782C24.1845 21.4892 24.201 21.5058 24.2176 21.5223C24.5098 21.7924 24.7468 22.0681 24.9894 22.4044C25.1823 22.669 25.5076 23.11 25.7502 23.7385C26.0368 24.4827 26.1471 25.3207 26.0644 26.1586L25.6619 34.9902C25.6344 35.4037 25.2871 35.7124 24.8626 35.6959C24.4491 35.6683 24.1294 35.31 24.1569 34.8965L24.5649 26.0373C24.6255 25.4034 24.5484 24.808 24.3444 24.2842C24.1735 23.8432 23.9419 23.5235 23.771 23.2919C23.5891 23.0439 23.4127 22.8399 23.2087 22.6414C20.557 20.5355 18.9087 16.4946 18.9087 12.0843C18.9087 5.44679 22.6464 0.0441895 27.2331 0.0441895C31.8198 0.0441895 35.5575 5.44679 35.5575 12.0843C35.5575 16.3843 33.9698 20.3811 31.4064 22.5146C31.1638 22.7351 30.9267 22.9998 30.7172 23.2864C30.6125 23.4298 30.3203 23.8267 30.1494 24.2787C29.9399 24.8135 29.8683 25.3923 29.9289 26.0098L30.3424 34.9186C30.3644 35.3375 30.0502 35.6904 29.6367 35.7179C29.6202 35.7179 29.6036 35.7179 29.5926 35.7179L29.5871 35.7234Z"
    fill="#F85F55"
  ></path>
</svg>
