<?xml version="1.0" encoding="UTF-8"?>
<svg xmlns="http://www.w3.org/2000/svg" width="28" height="43" viewBox="0 0 28 43" fill="none">
  <path
    d="M23.8872 37.3221H3.57785C1.60424 37.3221 0 35.7179 0 33.7443V13.9862C0 12.0126 1.60424 10.4083 3.57785 10.4083H23.8927C25.8664 10.4083 27.4706 12.0126 27.4706 13.9862V33.7498C27.4706 35.7234 25.8664 37.3276 23.8927 37.3276L23.8872 37.3221ZM3.57785 12.0071C2.4863 12.0071 1.59873 12.8946 1.59873 13.9862V33.7498C1.59873 34.8413 2.4863 35.7289 3.57785 35.7289H23.8927C24.9843 35.7289 25.8719 34.8413 25.8719 33.7498V13.9862C25.8719 12.8946 24.9843 12.0071 23.8927 12.0071H3.57785Z"
    fill="#04B0F7"
  ></path>
  <path
    d="M5.77202 42.3498C4.25598 42.3498 3.02661 41.1149 3.02661 39.6044V38.8491C3.02661 38.4081 3.38495 38.0498 3.82598 38.0498C4.26701 38.0498 4.62534 38.4081 4.62534 38.8491V39.6044C4.62534 40.2384 5.13804 40.7511 5.77202 40.7511C6.406 40.7511 6.91869 40.2384 6.91869 39.6044V38.7278C6.91869 38.2868 7.27703 37.9285 7.71806 37.9285C8.15909 37.9285 8.51742 38.2868 8.51742 38.7278V39.6044C8.51742 41.1204 7.28254 42.3498 5.77202 42.3498Z"
    fill="#04B0F7"
  ></path>
  <path
    d="M7.65728 31.7486C7.21625 31.7486 6.85791 31.3903 6.85791 30.9493V15.4361C6.85791 14.9951 7.21625 14.6367 7.65728 14.6367C8.0983 14.6367 8.45664 14.9951 8.45664 15.4361V30.9493C8.45664 31.3903 8.0983 31.7486 7.65728 31.7486Z"
    fill="#04B0F7"
  ></path>
  <path
    d="M13.6829 31.699C13.2419 31.699 12.8835 31.3406 12.8835 30.8996V15.3864C12.8835 14.9454 13.2419 14.587 13.6829 14.587C14.1239 14.587 14.4823 14.9454 14.4823 15.3864V30.8996C14.4823 31.3406 14.1239 31.699 13.6829 31.699Z"
    fill="#04B0F7"
  ></path>
  <path
    d="M19.7085 31.699C19.2675 31.699 18.9092 31.3406 18.9092 30.8996V15.3864C18.9092 14.9454 19.2675 14.587 19.7085 14.587C20.1496 14.587 20.5079 14.9454 20.5079 15.3864V30.8996C20.5079 31.3406 20.1496 31.699 19.7085 31.699Z"
    fill="#04B0F7"
  ></path>
  <path
    d="M20.5298 42.3498C19.0138 42.3498 17.7844 41.1149 17.7844 39.6044V38.8491C17.7844 38.4081 18.1428 38.0498 18.5838 38.0498C19.0248 38.0498 19.3832 38.4081 19.3832 38.8491V39.6044C19.3832 40.2384 19.8959 40.7511 20.5298 40.7511C21.1638 40.7511 21.6765 40.2384 21.6765 39.6044V38.7278C21.6765 38.2868 22.0348 37.9285 22.4759 37.9285C22.9169 37.9285 23.2752 38.2868 23.2752 38.7278V39.6044C23.2752 41.1204 22.0404 42.3498 20.5298 42.3498Z"
    fill="#04B0F7"
  ></path>
  <path
    d="M20.7008 0.00551273H6.76431C5.62866 0.00551273 4.70801 0.926161 4.70801 2.06181V6.41697C4.70801 7.13364 5.07737 7.76211 5.62866 8.12596V10.8548C5.62866 11.2959 5.98699 11.6542 6.42802 11.6542C6.86905 11.6542 7.22739 11.2959 7.22739 10.8548V8.46776H8.18111V10.8548C8.18111 11.2959 8.53945 11.6542 8.98048 11.6542C9.42151 11.6542 9.77984 11.2959 9.77984 10.8548V8.12596C10.3311 7.7566 10.7005 7.12813 10.7005 6.41697V5.92633C10.7005 5.67825 10.9045 5.47427 11.1525 5.47427H16.296C16.5441 5.47427 16.7481 5.67825 16.7481 5.92633V6.41697C16.7481 7.10608 17.0899 7.71801 17.6136 8.08737V10.8548C17.6136 11.2959 17.972 11.6542 18.413 11.6542C18.854 11.6542 19.2124 11.2959 19.2124 10.8548V8.46776H20.1661V10.8548C20.1661 11.2959 20.5244 11.6542 20.9654 11.6542C21.4065 11.6542 21.7648 11.2959 21.7648 10.8548V8.15352C22.3492 7.78967 22.7406 7.15018 22.7406 6.41146V2.0563C22.7406 0.920648 21.8199 0 20.6843 0L20.7008 0.00551273ZM18.8154 6.86903C18.5673 6.86903 18.3634 6.66505 18.3634 6.41697V5.92633C18.3634 4.79068 17.4427 3.87003 16.3071 3.87003H11.1636C10.0279 3.87003 9.10727 4.79068 9.10727 5.92633V6.41697C9.10727 6.66505 8.9033 6.86903 8.65522 6.86903H6.76982C6.52174 6.86903 6.31776 6.66505 6.31776 6.41697V2.06181C6.31776 1.81373 6.52174 1.60976 6.76982 1.60976H20.7063C20.9544 1.60976 21.1584 1.81373 21.1584 2.06181V6.41697C21.1584 6.66505 20.9544 6.86903 20.7063 6.86903H18.8154Z"
    fill="#04B0F7"
  ></path>
</svg>
