<?xml version="1.0" encoding="UTF-8"?>
<svg xmlns="http://www.w3.org/2000/svg" width="16" height="16" viewBox="0 0 16 16" fill="none">
  <path
    fill-rule="evenodd"
    clip-rule="evenodd"
    d="M5.09454 5.09916C5.86519 4.32955 6.91039 3.89541 8.00025 3.89541C9.09035 3.89541 10.1356 4.32955 10.9062 5.09916C11.3954 5.58855 11.7484 6.18846 11.941 6.83966C12.0521 7.2146 12.1098 7.60533 12.1098 8.00395C12.1098 9.09324 11.6768 10.1391 10.9062 10.9087C10.4891 11.3271 9.99149 11.6468 9.45002 11.8481C8.99093 12.0217 8.50028 12.1125 8.00025 12.1125C6.91039 12.1125 5.86519 11.6823 5.09454 10.9087C4.3239 10.1391 3.89097 9.09324 3.89097 8.00395C3.89097 6.91465 4.3239 5.86877 5.09454 5.09916ZM6.97922 10.4706C7.30311 10.6048 7.64995 10.6719 8.00025 10.6719C8.70774 10.6719 9.38588 10.3917 9.88591 9.89048C10.2229 9.55106 10.4602 9.13271 10.5793 8.67884C10.6371 8.46177 10.6669 8.23286 10.6669 8.00395C10.6669 7.29748 10.3859 6.61865 9.88566 6.11741C9.38538 5.62013 8.70675 5.33596 7.99926 5.33596C7.29177 5.33596 6.61338 5.62013 6.11311 6.11741C5.61283 6.61865 5.33185 7.29748 5.33185 8.00395C5.33185 8.3552 5.40093 8.70252 5.53488 9.02615C5.66907 9.34978 5.86568 9.64184 6.1136 9.89048C6.36127 10.1391 6.65557 10.3365 6.97922 10.4706Z"
    fill="#444444"
  ></path>
  <path
    fill-rule="evenodd"
    clip-rule="evenodd"
    d="M4.70059 0.0473606C5.55436 0.00789344 5.8272 0 8.00049 0C10.174 0 10.4469 0.00789344 11.3006 0.0473606C11.9642 0.0631475 12.6207 0.185496 13.2426 0.418352C13.7754 0.619635 14.2582 0.935372 14.6573 1.34188C15.0638 1.7405 15.3791 2.22595 15.5806 2.75876C15.7782 3.28762 15.8986 3.84016 15.9386 4.40454L15.9526 4.70054C15.9909 5.55303 16 5.82536 16 8C16 10.1707 15.9909 10.447 15.9526 11.2995C15.9386 11.9625 15.813 12.6177 15.5806 13.2412C15.3791 13.774 15.0638 14.2555 14.6573 14.6542C14.2582 15.0607 13.7754 15.3764 13.2426 15.5777C12.6207 15.8106 11.9642 15.9369 11.3006 15.9487C10.4469 15.9882 10.174 16 8.00049 16C5.8272 16 5.55436 15.9882 4.70059 15.9487C4.03676 15.9369 3.38033 15.8106 2.75843 15.5777C2.22559 15.3764 1.74283 15.0607 1.34394 14.6542C0.937157 14.2555 0.62214 13.774 0.420352 13.2412C0.188221 12.6177 0.0624113 11.9625 0.048597 11.2995C0.0101141 10.447 0 10.1707 0 8C0 5.82536 0.0101141 5.55303 0.048597 4.70054C0.0624113 4.03749 0.188221 3.37839 0.420352 2.75876C0.554548 2.40355 0.738822 2.07203 0.966759 1.77208C1.08147 1.61815 1.20752 1.47607 1.34394 1.34188C1.74283 0.935372 2.22559 0.619635 2.75843 0.418352C3.38033 0.185496 4.03676 0.0631475 4.70059 0.0473606ZM10.5098 1.45634C10.0238 1.4445 9.43941 1.44055 8.00049 1.44055C6.5157 1.44055 5.94092 1.4445 5.44484 1.46029L4.76719 1.48791C4.25976 1.49581 3.75726 1.58658 3.2819 1.76418L2.97996 1.89837C2.75128 2.02072 2.54234 2.17464 2.36127 2.36408C2.26704 2.45486 2.1807 2.55353 2.10274 2.65614C1.96041 2.84558 1.8457 3.05871 1.76306 3.28367C1.58643 3.75728 1.49294 4.26246 1.48726 4.76764C1.44903 5.61223 1.44089 5.86482 1.44089 8C1.44089 10.1352 1.44903 10.3878 1.48726 11.2324C1.49294 11.7415 1.58643 12.2427 1.76306 12.7203C1.89109 13.0676 2.09534 13.3833 2.36127 13.6399C2.47055 13.7504 2.5897 13.853 2.71724 13.9438C2.8914 14.0661 3.0811 14.1648 3.2819 14.2398C3.75726 14.4134 4.25976 14.5081 4.76719 14.5121C5.61085 14.5516 5.86445 14.5594 8.00049 14.5594C10.1365 14.5594 10.3891 14.5516 11.2338 14.5121C11.495 14.5081 11.755 14.4845 12.0109 14.4371C12.2516 14.3897 12.4884 14.3226 12.7191 14.2398C13.0669 14.1095 13.3817 13.9043 13.6397 13.6399C13.9056 13.3833 14.1101 13.0676 14.2379 12.7203C14.4148 12.2427 14.508 11.7415 14.5137 11.2324C14.5522 10.3917 14.5601 10.1352 14.5601 8C14.5601 5.86482 14.5522 5.61223 14.5137 4.76764C14.5098 4.40849 14.4614 4.04933 14.3699 3.70202L14.2379 3.28367C14.1101 2.93636 13.9056 2.62062 13.6397 2.36408C13.3817 2.09571 13.0669 1.89048 12.7191 1.76418C12.48 1.67341 12.2344 1.60631 11.9845 1.55895C11.7373 1.51554 11.4862 1.49186 11.2338 1.48791L10.5098 1.45634Z"
    fill="#444444"
  ></path>
</svg>
