<?xml version="1.0" encoding="UTF-8"?>
<svg xmlns="http://www.w3.org/2000/svg" width="35" height="14" viewBox="0 0 35 14" fill="none">
  <path
    d="M16.1303 0.00195312V4.5027C15.4583 4.13772 14.6888 3.93051 13.8703 3.93051C11.2594 3.93051 9.14258 6.03983 9.14258 8.64082C9.14258 11.2427 11.2594 13.3521 13.8703 13.3521C16.4812 13.3521 18.598 11.2427 18.598 8.64082V0.00195312H16.1303ZM13.8708 10.8924C12.6233 10.8924 11.6112 9.88409 11.6112 8.64082C11.6112 7.39802 12.6228 6.39021 13.8708 6.39021C15.1188 6.39021 16.1308 7.39849 16.1308 8.64082C16.1303 9.88409 15.1188 10.8924 13.8708 10.8924Z"
    fill="#501511"
  ></path>
  <path d="M8.34271 4.10791H5.875V13.0844H8.34271V4.10791Z" fill="#501511"></path>
  <path
    d="M24.1945 10.893C23.6299 10.893 23.1137 10.6853 22.7172 10.343L26.4461 8.79405L28.846 7.79707C28.4466 5.59874 26.5163 3.93115 24.1945 3.93115C21.5841 3.93115 19.4668 6.04048 19.4668 8.64146C19.4668 11.2434 21.5841 13.3527 24.1945 13.3527C26.2878 13.3527 28.0623 11.9959 28.684 10.1169L25.8923 10.1244C25.4783 10.594 24.8722 10.893 24.1945 10.893ZM24.1945 6.39038C24.7177 6.39038 25.1981 6.56887 25.5805 6.86603L21.95 8.39187C22.0753 7.26633 23.0318 6.39038 24.1945 6.39038Z"
    fill="#501511"
  ></path>
  <path
    d="M29.6553 13.0834H32.0571V8.10935V8.02175C32.0542 7.49572 32.0801 6.99511 32.4112 6.66404C32.7738 6.30001 33.5075 6.1074 34.5342 6.1074H34.7089V3.70703H34.5342C32.8308 3.70703 31.5437 4.13182 30.7097 4.97008C29.6482 6.03628 29.6539 7.38458 29.6557 8.03211V13.0834H29.6553Z"
    fill="#501511"
  ></path>
  <path d="M8.34271 0.0297678C8.34224 0.0297678 8.34177 0.0292969 8.3413 0.0292969C6.97841 0.0292969 5.875 1.25797 5.875 2.77392H8.34271V0.0297678Z" fill="#931A1D"></path>
  <path
    d="M4.87868 10.6842C3.85204 10.6842 3.11832 10.4911 2.7557 10.1276C2.4251 9.79557 2.39967 9.29497 2.40202 8.76893V8.68228V8.3578V3.70824V0.00244141H0.000244123V8.3578V8.75998C-0.00211056 9.40752 -0.00776181 10.7558 1.05373 11.822C1.8887 12.6598 3.1753 13.0851 4.87821 13.0851H5.05293V10.6842H4.87868Z"
    fill="#501511"
  ></path>
</svg>
