<?xml version="1.0" encoding="UTF-8"?>
<svg xmlns="http://www.w3.org/2000/svg" width="30" height="23" viewBox="0 0 30 23" fill="none">
  <path
    d="M5.28398 22.4813V20.9859C5.28398 20.4127 4.93506 20.0388 4.33689 20.0388C4.03781 20.0388 3.71381 20.1385 3.4895 20.4625C3.31504 20.1884 3.0658 20.0388 2.69195 20.0388C2.44271 20.0388 2.19348 20.1136 1.9941 20.3878V20.0887H1.4707V22.4813H1.9941V21.1604C1.9941 20.7367 2.2184 20.5373 2.56733 20.5373C2.91626 20.5373 3.09072 20.7616 3.09072 21.1604V22.4813H3.61412V21.1604C3.61412 20.7367 3.86335 20.5373 4.18735 20.5373C4.53628 20.5373 4.71075 20.7616 4.71075 21.1604V22.4813H5.28398ZM13.0352 20.0887H12.1878V19.3659H11.6644V20.0887H11.1908V20.5622H11.6644V21.6589C11.6644 22.2072 11.8887 22.5312 12.4868 22.5312C12.7112 22.5312 12.9604 22.4564 13.1349 22.3567L12.9853 21.9081C12.8358 22.0078 12.6613 22.0327 12.5367 22.0327C12.2875 22.0327 12.1878 21.8832 12.1878 21.6339V20.5622H13.0352V20.0887ZM17.4715 20.0388C17.1724 20.0388 16.9731 20.1884 16.8484 20.3878V20.0887H16.3251V22.4813H16.8484V21.1355C16.8484 20.7367 17.0229 20.5124 17.3469 20.5124C17.4466 20.5124 17.5712 20.5373 17.6709 20.5622L17.8205 20.0638C17.7208 20.0388 17.5712 20.0388 17.4715 20.0388ZM10.7671 20.2881C10.5179 20.1136 10.169 20.0388 9.79512 20.0388C9.19696 20.0388 8.79818 20.3379 8.79818 20.8115C8.79818 21.2102 9.09726 21.4346 9.62065 21.5093L9.86989 21.5342C10.144 21.5841 10.2936 21.6589 10.2936 21.7835C10.2936 21.9579 10.0942 22.0826 9.74527 22.0826C9.39634 22.0826 9.12219 21.9579 8.94773 21.8333L8.69849 22.2321C8.97265 22.4315 9.3465 22.5312 9.72035 22.5312C10.4182 22.5312 10.817 22.2072 10.817 21.7586C10.817 21.3349 10.493 21.1105 9.9945 21.0358L9.74527 21.0109C9.52096 20.9859 9.3465 20.9361 9.3465 20.7865C9.3465 20.6121 9.52096 20.5124 9.79512 20.5124C10.0942 20.5124 10.3933 20.637 10.5428 20.7118L10.7671 20.2881ZM24.6744 20.0388C24.3753 20.0388 24.1759 20.1884 24.0513 20.3878V20.0887H23.5279V22.4813H24.0513V21.1355C24.0513 20.7367 24.2258 20.5124 24.5498 20.5124C24.6495 20.5124 24.7741 20.5373 24.8738 20.5622L25.0233 20.0638C24.9236 20.0388 24.7741 20.0388 24.6744 20.0388ZM17.9949 21.285C17.9949 22.0078 18.4934 22.5312 19.266 22.5312C19.6149 22.5312 19.8642 22.4564 20.1134 22.257L19.8642 21.8333C19.6648 21.9829 19.4654 22.0576 19.2411 22.0576C18.8174 22.0576 18.5183 21.7586 18.5183 21.285C18.5183 20.8364 18.8174 20.5373 19.2411 20.5124C19.4654 20.5124 19.6648 20.5872 19.8642 20.7367L20.1134 20.313C19.8642 20.1136 19.6149 20.0388 19.266 20.0388C18.4934 20.0388 17.9949 20.5622 17.9949 21.285ZM22.8301 21.285V20.0887H22.3067V20.3878C22.1322 20.1635 21.883 20.0388 21.559 20.0388C20.886 20.0388 20.3626 20.5622 20.3626 21.285C20.3626 22.0078 20.886 22.5312 21.559 22.5312C21.9079 22.5312 22.1571 22.4066 22.3067 22.1823V22.4813H22.8301V21.285ZM20.911 21.285C20.911 20.8613 21.1851 20.5124 21.6337 20.5124C22.0574 20.5124 22.3565 20.8364 22.3565 21.285C22.3565 21.7087 22.0574 22.0576 21.6337 22.0576C21.1851 22.0327 20.911 21.7087 20.911 21.285ZM14.6552 20.0388C13.9573 20.0388 13.4589 20.5373 13.4589 21.285C13.4589 22.0327 13.9573 22.5312 14.6801 22.5312C15.029 22.5312 15.378 22.4315 15.6521 22.2072L15.4029 21.8333C15.2035 21.9829 14.9543 22.0826 14.705 22.0826C14.381 22.0826 14.057 21.933 13.9822 21.5093H15.7518C15.7518 21.4346 15.7518 21.3847 15.7518 21.3099C15.7767 20.5373 15.3281 20.0388 14.6552 20.0388ZM14.6552 20.4875C14.9792 20.4875 15.2035 20.6868 15.2533 21.0607H14.0072C14.057 20.7367 14.2813 20.4875 14.6552 20.4875ZM27.6403 21.285V19.1416H27.1169V20.3878C26.9424 20.1635 26.6932 20.0388 26.3692 20.0388C25.6963 20.0388 25.1729 20.5622 25.1729 21.285C25.1729 22.0078 25.6963 22.5312 26.3692 22.5312C26.7181 22.5312 26.9673 22.4066 27.1169 22.1823V22.4813H27.6403V21.285ZM25.7212 21.285C25.7212 20.8613 25.9953 20.5124 26.444 20.5124C26.8676 20.5124 27.1667 20.8364 27.1667 21.285C27.1667 21.7087 26.8676 22.0576 26.444 22.0576C25.9953 22.0327 25.7212 21.7087 25.7212 21.285ZM8.22495 21.285V20.0887H7.70155V20.3878C7.52709 20.1635 7.27786 20.0388 6.95385 20.0388C6.28092 20.0388 5.75752 20.5622 5.75752 21.285C5.75752 22.0078 6.28092 22.5312 6.95385 22.5312C7.30278 22.5312 7.55201 22.4066 7.70155 22.1823V22.4813H8.22495V21.285ZM6.28092 21.285C6.28092 20.8613 6.55507 20.5124 7.0037 20.5124C7.42739 20.5124 7.72648 20.8364 7.72648 21.285C7.72648 21.7087 7.42739 22.0576 7.0037 22.0576C6.55507 22.0327 6.28092 21.7087 6.28092 21.285Z"
    fill="black"
  ></path>
  <path d="M18.4436 1.92041H10.5928V16.0271H18.4436V1.92041Z" fill="#FF5F00"></path>
  <path
    d="M11.0909 8.97243C11.0909 6.10623 12.4368 3.56405 14.5054 1.91911C12.9851 0.722782 11.066 0 8.97243 0C4.01267 0 0 4.01267 0 8.97243C0 13.9322 4.01267 17.9449 8.97243 17.9449C11.066 17.9449 12.9851 17.2221 14.5054 16.0258C12.4368 14.4057 11.0909 11.8386 11.0909 8.97243Z"
    fill="#EB001B"
  ></path>
  <path
    d="M29.0357 8.97243C29.0357 13.9322 25.023 17.9449 20.0633 17.9449C17.9697 17.9449 16.0506 17.2221 14.5303 16.0258C16.6238 14.3808 17.9448 11.8386 17.9448 8.97243C17.9448 6.10623 16.5989 3.56405 14.5303 1.91911C16.0506 0.722782 17.9697 0 20.0633 0C25.023 0 29.0357 4.03759 29.0357 8.97243Z"
    fill="#F79E1B"
  ></path>
</svg>
