<?xml version="1.0" encoding="UTF-8"?>
<svg xmlns="http://www.w3.org/2000/svg" width="28" height="29" viewBox="0 0 28 29" fill="none">
  <path d="M10.0058 13.2784L12.7946 16.0911L19.6018 9.2451L20.743 10.3848L12.7946 18.3786L8.86458 14.4261L10.0058 13.2784Z" fill="white"></path>
  <path fill-rule="evenodd" clip-rule="evenodd" d="M27.5824 2.47187L27.6628 3.24781C27.7753 4.32281 27.8235 5.23616 27.8235 6.11717C27.8235 16.0831 22.3986 25.1843 14.3216 28.7568L14.0001 28.9023L13.6786 28.7568C5.60162 25.1843 0.176758 16.0831 0.176758 6.11717C0.176758 5.23616 0.224979 4.32281 0.337495 3.24781L0.417863 2.47187L1.1894 2.52845C1.96094 2.58503 2.6521 2.60928 3.29505 2.60928C7.34562 2.60928 11.1953 1.76059 13.5902 0.346119L14.0001 0.103638L14.402 0.346119C16.805 1.76059 20.6546 2.60928 24.6972 2.60928C25.3481 2.60928 26.0313 2.58503 26.8028 2.52845L27.5824 2.47187ZM1.78413 6.11717C1.78413 15.3153 6.67856 23.7051 14.0001 27.1241C21.3217 23.7051 26.2161 15.3153 26.2161 6.10909C26.2161 5.50288 26.192 4.88052 26.1357 4.1854C25.6294 4.20965 25.1633 4.22582 24.7052 4.22582C20.5341 4.22582 16.6684 3.40946 14.0001 1.97074C11.3239 3.40946 7.46617 4.22582 3.29505 4.22582C2.87322 4.22582 2.43021 4.21162 1.9594 4.19652C1.92789 4.19551 1.89626 4.1945 1.86449 4.19349C1.80824 4.8886 1.78413 5.51097 1.78413 6.11717Z" fill="white"></path>
</svg>
